<?xml version="1.0" standalone="no"?>
<!DOCTYPE svg PUBLIC "-//W3C//DTD SVG 1.1//EN" "http://www.w3.org/Graphics/SVG/1.1/DTD/svg11.dtd" >
<svg xmlns="http://www.w3.org/2000/svg" xmlns:xlink="http://www.w3.org/1999/xlink" version="1.1">
<metadata></metadata>
<defs>
<font id="lust_scriptregular" horiz-adv-x="1241" >
<font-face units-per-em="2048" ascent="1587" descent="-461" />
<missing-glyph horiz-adv-x="471" />
<glyph unicode="&#xfb01;" horiz-adv-x="1206" d="M-242 -279q0 106 69 161t163 55q86 0 145 -55.5t49 -153.5q-56 3 -87 -22.5t-31 -72.5q0 -35 19.5 -56t55.5 -21q64 0 93.5 49.5t29.5 126.5q0 47 -18.5 89.5t-43 74t-48.5 64t-36.5 76t-4.5 93.5l147 926h-108l4 20h108q46 238 245 399q161 130 357 164q183 31 294 -39 q102 -64 102 -194q0 -88 -59.5 -145.5t-160.5 -57.5q-81 0 -132.5 63.5t-16.5 139.5q46 -9 80.5 17t34.5 73q0 98 -97 114q-95 16 -224 -47.5t-188 -158.5q-34 -55 -34 -107q0 -48 16 -82t37.5 -50t42.5 -28t32 -26t5 -35h147q53 0 148.5 3t150.5 3q185 0 146 -225l-70 -420 q-42 -242 -40 -334q3 -89 36 -106l-6 -6q-27 -4 -53.5 -6t-59.5 -1.5t-62 5.5t-60 15t-55 27t-45.5 41.5t-32 58t-15.5 77t6 98.5l96 592q5 30 15 59t16.5 43.5t10 27.5t-4.5 18t-26 7.5t-56 2.5h-157l-162 -1028q-16 -98 -48.5 -187t-83.5 -167.5t-128.5 -125.5t-169.5 -47 q-129 0 -203 61t-74 160z" />
<glyph unicode="&#xfb02;" horiz-adv-x="1183" d="M-242 -279q0 106 69 161t163 55q86 0 145 -55.5t49 -153.5q-56 3 -87 -22.5t-31 -72.5q0 -35 19.5 -56t55.5 -21q64 0 93.5 49.5t29.5 126.5q0 47 -18.5 89.5t-43 74t-48.5 64t-36.5 76t-4.5 93.5l147 926h-108l4 20h108q20 106 73.5 200t126 160.5t158 115t172.5 72.5 t167 24q64 0 120 -15.5t99 -44.5t64 -76t11 -106l-155 -969q-2 -11 -8.5 -50.5t-9.5 -59.5t-8.5 -59.5t-7.5 -62.5t-4.5 -56.5t-1 -54.5t5 -43t11.5 -35t19 -19l-6 -6q-27 -4 -53.5 -6t-59.5 -1.5t-62 5.5t-60 15t-55 27t-45.5 41.5t-32 58t-15.5 77t6 98.5l178 1100 q57 -14 92 15t35 75t-38 81.5t-108 35.5q-80 0 -174.5 -44t-163.5 -119t-69 -153q0 -48 16 -82t37.5 -50t42.5 -28t32 -26t5 -35h141l-4 -20h-108l-162 -1028q-16 -98 -48.5 -187t-83.5 -167.5t-128.5 -125.5t-169.5 -47q-129 0 -203 61t-74 160z" />
<glyph unicode="&#xfb03;" horiz-adv-x="1839" d="M-242 -279q0 106 69 161t163 55q86 0 145 -55.5t49 -153.5q-56 3 -87 -22.5t-31 -72.5q0 -35 19.5 -56t55.5 -21q64 0 93.5 49.5t29.5 126.5q0 47 -18.5 89.5t-43 74t-48.5 64t-36.5 76t-4.5 93.5l147 926h-108l4 20h106q10 58 16.5 93.5t17.5 86.5t22 83t28.5 72 t37.5 65t47.5 51t60 40.5t74.5 23.5t91 9q129 0 198 -52.5t69 -141.5q0 -88 -59 -145.5t-160 -57.5q-81 0 -133 63.5t-17 139.5q46 -9 80.5 17t34.5 73q0 36 -19.5 58t-60.5 22q-68 0 -125 -62t-57 -143q0 -48 21.5 -89t51 -67.5t58.5 -49t46.5 -45t12.5 -44.5h297 q46 238 246 399q161 131 356 164q182 31 293 -39q102 -64 102 -194q0 -88 -59 -145.5t-160 -57.5q-81 0 -132.5 63.5t-16.5 139.5q46 -9 80 17t34 73q0 98 -97 114q-95 16 -224 -48q-128 -64 -187 -158q-34 -55 -34 -107q0 -48 16 -82t37.5 -50t42.5 -28t32 -26t5 -35h147 q53 0 148.5 3t150.5 3q185 0 146 -225l-70 -420q-42 -242 -40 -334q3 -89 36 -106l-6 -6q-27 -4 -53.5 -6t-59.5 -1.5t-62 5.5t-60 15t-55 27t-45.5 41.5t-32 58t-15.5 77t6 98.5l96 592q5 30 15 59t16.5 43.5t10 27.5t-4.5 18t-26 7.5t-56 2.5h-158l-155 -987 q-10 -60 -16.5 -97t-17.5 -90t-22 -86t-27.5 -75t-35.5 -67.5t-45.5 -53t-57.5 -42.5t-70.5 -24.5t-86.5 -9.5q-129 0 -197.5 52.5t-68.5 141.5q0 88 59 145.5t160 57.5q81 0 132.5 -63.5t16.5 -139.5q-46 9 -80 -17t-34 -73q0 -36 19.5 -58t60.5 -22q66 0 114.5 61 t48.5 144q0 42 -17.5 80.5t-43 65t-54.5 55t-52.5 52.5t-36.5 56.5t-7 67.5l148 926h-264l-162 -1028q-16 -98 -48.5 -187t-83.5 -167.5t-128.5 -125.5t-169.5 -47q-129 0 -203 61t-74 160z" />
<glyph unicode="&#xfb04;" horiz-adv-x="1816" d="M-242 -279q0 106 69 161t163 55q86 0 145 -55.5t49 -153.5q-56 3 -87 -22.5t-31 -72.5q0 -35 19.5 -56t55.5 -21q64 0 93.5 49.5t29.5 126.5q0 47 -18.5 89.5t-43 74t-48.5 64t-36.5 76t-4.5 93.5l147 926h-108l4 20h106q10 58 16.5 93.5t17.5 86.5t22 83t28.5 72 t37.5 65t47.5 51t60 40.5t74.5 23.5t91 9q129 0 198 -52.5t69 -141.5q0 -88 -59 -145.5t-160 -57.5q-81 0 -133 63.5t-17 139.5q46 -9 80.5 17t34.5 73q0 36 -19.5 58t-60.5 22q-68 0 -125 -62t-57 -143q0 -48 21.5 -89t51 -67.5t58.5 -49t46.5 -45t12.5 -44.5h299 q20 106 73.5 200t126 160.5t157.5 115t172 72.5t167 24q135 0 224.5 -64t70.5 -178l-155 -969q-2 -11 -8.5 -50.5t-9.5 -59.5t-8.5 -59.5t-7.5 -62.5t-4.5 -56.5t-1 -54.5t5 -43t11.5 -35t19 -19l-7 -6q-30 -5 -60.5 -6.5t-68 0t-69 9t-65.5 22.5t-56.5 39.5t-41 59 t-20.5 82.5t5 109l178 1100q57 -14 92 15t35 75t-38 81.5t-108 35.5q-80 0 -174.5 -44t-163.5 -119t-69 -153q0 -48 16 -82t37.5 -50t42.5 -28t32 -26t5 -35h141l-4 -20h-108l-158 -987q-10 -60 -16.5 -97t-17.5 -90t-22 -86t-27.5 -75t-35.5 -67.5t-45.5 -53t-57.5 -42.5 t-70.5 -24.5t-86.5 -9.5q-129 0 -197.5 52.5t-68.5 141.5q0 88 59 145.5t160 57.5q81 0 132.5 -63.5t16.5 -139.5q-46 9 -80 -17t-34 -73q0 -36 19.5 -58t60.5 -22q66 0 114.5 61t48.5 144q0 50 -24 94t-57 75.5t-65 61.5t-51 67.5t-12 78.5l148 926h-266l-162 -1028 q-16 -98 -48.5 -187t-83.5 -167.5t-128.5 -125.5t-169.5 -47q-129 0 -203 61t-74 160z" />
<glyph horiz-adv-x="587" d="M51 143v21h486v-21h-486zM51 307v21h486v-21h-486zM51 471v21h486v-21h-486zM51 635v20h486v-20h-486zM51 799v20h486v-20h-486zM51 963v20h486v-20h-486zM51 1126v21h486v-21h-486zM51 1290v21h486v-21h-486z" />
<glyph horiz-adv-x="587" d="M51 143v21h486v-21h-486zM51 307v21h486v-21h-486zM51 471v21h486v-21h-486zM51 635v20h486v-20h-486zM51 799v20h486v-20h-486zM51 963v20h486v-20h-486zM51 1126v21h486v-21h-486zM51 1290v21h486v-21h-486z" />
<glyph horiz-adv-x="682" />
<glyph unicode=" "  horiz-adv-x="471" />
<glyph unicode="&#x09;" horiz-adv-x="471" />
<glyph unicode="&#xa0;" horiz-adv-x="471" />
<glyph unicode="!" horiz-adv-x="606" d="M158 156q0 90 68 156.5t155 66.5q71 0 117.5 -49.5t46.5 -120.5q0 -91 -69 -157t-157 -66q-70 0 -115.5 49.5t-45.5 120.5zM258 1110q0 111 72.5 203.5t230.5 191.5q191 -150 191 -311q0 -66 -30 -137.5t-75.5 -138t-93 -134t-89.5 -149.5t-58 -160h-17q7 68 -3.5 139 t-31 133t-42.5 121t-38 123t-16 119z" />
<glyph unicode="&#x22;" horiz-adv-x="931" d="M287 1434q8 55 68.5 104t136.5 49q77 0 121 -49t36 -104q-70 -79 -148.5 -239t-109.5 -296h-16q12 135 -16 295.5t-72 239.5zM733 1434q8 55 69 104t138 49q75 0 119.5 -49t36.5 -104q-70 -79 -148.5 -239t-109.5 -296h-15q10 136 -18 296t-72 239z" />
<glyph unicode="#" horiz-adv-x="1206" d="M162 645l10 21h295l164 389h-297l8 20h297l152 359h20l-152 -359h338l152 359h20l-151 -359h299l-8 -20h-299l-164 -389h299l-10 -21h-297l-152 -358h-18l149 358h-338l-149 -358h-21l150 358h-297zM487 666h338l164 389h-338z" />
<glyph unicode="$" horiz-adv-x="1261" d="M106 279q0 83 38 143.5t92 87.5t114 27q80 0 127 -51t37 -146q-43 -22 -71.5 -64t-28.5 -98q0 -77 60 -126.5t149 -49.5l84 530q-437 130 -437 439q0 84 34.5 160t92.5 131.5t133 97.5t157 64t163 24l41 252h18l-41 -252q72 0 145.5 -11.5t149 -37.5t123 -78t47.5 -123 q0 -102 -67 -163.5t-152 -61.5q-72 0 -116 44.5t-35 127.5q42 18 66 58t24 85q0 61 -50 102.5t-137 41.5l-75 -480q280 -98 387.5 -185.5t107.5 -225.5q0 -101 -37.5 -190.5t-102 -154t-147.5 -112t-175.5 -72t-186.5 -26.5l-39 -252h-18l38 252q-45 0 -93.5 4.5t-109 15.5 t-113 33t-98 52.5t-72 79t-26.5 108.5zM588 1171q0 -135 186 -210l74 471q-96 -2 -178 -78.5t-82 -182.5zM641 2q44 0 87.5 10.5t84 32.5t71.5 53.5t49.5 77.5t18.5 100q0 85 -56 146t-173 104z" />
<glyph unicode="%" horiz-adv-x="1263" d="M102 0l1272 1434h19l-1272 -1434h-19zM190 1044q0 161 120 282.5t290 121.5q136 0 218.5 -77.5t82.5 -203.5q0 -106 -53.5 -199t-148 -149.5t-207.5 -56.5q-138 0 -220 77.5t-82 204.5zM395 958q0 -180 99 -180q44 0 80 38.5t57.5 95t35.5 125.5t19.5 124t5.5 96 q0 175 -94 175q-55 0 -97.5 -55t-64 -136t-31.5 -154t-10 -129zM588 268q0 161 119.5 282.5t289.5 121.5q136 0 218.5 -77.5t82.5 -203.5q0 -106 -53.5 -199t-148 -149.5t-207.5 -56.5q-138 0 -219.5 77.5t-81.5 204.5zM793 182q0 -180 98 -180q55 0 96.5 56.5t62 140 t30.5 156t10 126.5q0 174 -95 174q-45 0 -81.5 -37.5t-58 -92.5t-36.5 -122t-20.5 -122.5t-5.5 -98.5z" />
<glyph unicode="&#x26;" horiz-adv-x="1748" d="M90 324q0 86 30.5 162.5t81.5 133t119 101t141.5 71t149.5 37.5q-20 94 -20 191q0 132 68.5 231.5t176.5 148t236 48.5q123 0 185.5 -42t62.5 -110q0 -47 -23.5 -94.5t-59.5 -85t-83.5 -72t-90 -57.5t-83.5 -41q58 -161 154 -321q8 126 56 239t131.5 186.5t182.5 73.5 q141 0 218 -81.5t77 -206.5q0 -138 -88 -243.5t-225 -105.5q-108 0 -175 65.5t-67 154.5q0 61 35.5 117t114.5 77q39 -86 127 -86q62 0 98.5 40t36.5 99t-39 99.5t-119 40.5q-133 0 -230 -131.5t-120 -360.5q103 -165 226 -270t253 -105q50 0 84 27l6 -4 q-194 -264 -389 -264q-190 0 -375 188q-235 -188 -469 -188q-192 0 -293.5 95.5t-101.5 242.5zM469 524q0 -131 65.5 -235t172 -138.5t241.5 29.5q-119 123 -208 295t-126 346q-74 -40 -109.5 -122.5t-35.5 -174.5zM926 1235q0 -129 53 -283q91 52 149 150t58 196 q0 60 -29 97t-88 37q-40 0 -69.5 -18t-44.5 -48.5t-22 -63t-7 -67.5z" />
<glyph unicode="'" horiz-adv-x="481" d="M287 1434q8 55 68.5 104t136.5 49q77 0 121 -49t36 -104q-70 -79 -148.5 -239t-109.5 -296h-16q12 135 -16 295.5t-72 239.5z" />
<glyph unicode="(" horiz-adv-x="722" d="M223 338.5q5 91.5 23 206.5l55 344q21 133 50.5 235t80 197.5t120 159t173 104t236.5 47.5l-3 -14q-58 -3 -107 -25.5t-83.5 -55.5t-62.5 -83t-45.5 -98t-32 -110.5t-23 -111t-17.5 -108.5q-1 -5 -1 -8l-97 -604q-31 -202 -32 -291q0 -296 215 -309l-2 -15 q-107 6 -187.5 32.5t-132 74.5t-82 110t-40.5 146.5t-5 176z" />
<glyph unicode=")" horiz-adv-x="722" d="M-12 -201l2 15q58 3 107 26.5t83 55.5t62.5 84.5t45.5 96t33 108.5t23 104t17 100q3 17 4 25l94 604q33 215 33 308q-2 253 -174 287q-20 4 -42 5l3 14q94 -5 166.5 -27t123 -57.5t84 -87.5t50.5 -111.5t21.5 -135.5t-1.5 -153.5t-21 -170.5l-53 -344 q-22 -139 -52.5 -244.5t-82 -199.5t-122 -156t-172 -100.5t-232.5 -45.5z" />
<glyph unicode="*" horiz-adv-x="1157" d="M280 1046.5q-17 54.5 11 124.5q30 64 89.5 94t102.5 17q93 -185 224 -248l-9 -16q-140 33 -360 -41q-41 15 -58 69.5zM336.5 744.5q8.5 35.5 28.5 60.5q220 63 340 180l12 -8q-98 -133 -129 -361q-33 -38 -93 -46t-112 30q-33 28 -44 68.5t-2.5 76zM643 1389q7 47 58 91 t116 44q66 0 104 -44t31 -91q-163 -187 -200 -334h-17q9 148 -92 334zM750 975l14 12q79 -112 280 -182q12 -27 10.5 -61.5t-25.5 -75t-64 -66.5q-41 -28 -85 -32.5t-74 9t-44 37.5q44 221 -12 359zM776 1034q147 64 303 248q45 15 94 -15t60 -93q10 -67 -26 -124.5 t-83 -72.5q-189 77 -344 43z" />
<glyph unicode="+" horiz-adv-x="1073" d="M195 604l4 21h426l71 440h21l-70 -440h426l-4 -21h-426l-70 -440h-20l70 440h-428z" />
<glyph unicode="," horiz-adv-x="557" d="M109 119q-14 102 60.5 181t162.5 79q74 0 123 -54.5t49 -140.5q0 -113 -93 -245.5t-241 -237.5l-12 10q131 119 113.5 231t-162.5 177z" />
<glyph unicode="-" horiz-adv-x="745" d="M154 655l4 21h645l-4 -21h-645z" />
<glyph unicode="." horiz-adv-x="540" d="M106 156q0 90 68.5 156.5t155.5 66.5q70 0 116 -49.5t46 -120.5q0 -90 -68.5 -156.5t-155.5 -66.5q-70 0 -116 49.5t-46 120.5z" />
<glyph unicode="/" horiz-adv-x="849" d="M-29 -186l1116 1804h21l-1116 -1804h-21z" />
<glyph unicode="0" horiz-adv-x="1433" d="M152 573q0 127 34 252.5t102.5 237.5t162 198t221.5 136.5t272 50.5q175 0 304 -76.5t194 -209t65 -304.5q0 -126 -34.5 -251t-103.5 -236.5t-162.5 -197.5t-221.5 -136.5t-272 -50.5q-263 0 -412 162.5t-149 424.5zM569 293q0 -291 146 -291q84 0 157.5 124t118.5 305.5 t70.5 370.5t25.5 335q0 150 -35.5 222.5t-109.5 72.5q-68 0 -129.5 -83t-105 -212t-75.5 -283.5t-47.5 -300.5t-15.5 -260z" />
<glyph unicode="1" horiz-adv-x="899" d="M33 0l2 14q63 0 106 15.5t69 39t44 72.5t27.5 96t23.5 130v2l107 678q-123 -130 -240 -195l-4 12q106 60 206.5 163t167.5 202t122 205h219l-168 -1065q-28 -172 -24 -229q7 -86 76 -111q39 -15 105 -15l-2 -14h-837z" />
<glyph unicode="2" horiz-adv-x="1239" d="M33 0q2 132 34 240.5t85 183t120.5 135.5t142 106t149 86.5t141.5 84.5t118.5 91.5t82 117.5t30.5 153q0 30 -3.5 58.5t-15 61.5t-30.5 57t-52.5 40.5t-78.5 16.5q-99 0 -164.5 -68t-65.5 -150q0 -65 46 -97t135 -3q24 -54 11 -108t-47 -97t-89 -69.5t-115 -26.5 q-117 0 -190.5 69.5t-73.5 192.5q0 121 77.5 206t211 126t313.5 41q76 0 144 -7.5t144.5 -31t131.5 -61t91 -103.5t36 -153q0 -82 -26.5 -148.5t-68.5 -111t-105 -79t-126 -53.5t-141.5 -35t-141 -23t-136 -16.5t-115.5 -17.5q-123 -23 -203.5 -74.5t-138.5 -144.5 q51 49 142 74.5t171 25.5q81 0 185.5 -31t212.5 -62t196 -31q172 0 217 120l12 -2q-18 -58 -35 -103.5t-41 -99.5t-49 -94t-59.5 -79.5t-72.5 -64.5t-87 -40.5t-104 -15.5q-72 0 -202.5 38.5t-262.5 77.5t-207 39q-79 0 -111 -35q-8 -44 -8 -106h-14z" />
<glyph unicode="3" horiz-adv-x="1314" d="M88 324q0 125 82 209.5t227 84.5q70 0 126.5 -35.5t80.5 -99t0 -135.5q-91 7 -146 -47.5t-55 -140.5q0 -44 16.5 -76t44 -49t57.5 -25t63 -8q72 0 130.5 40t94 104.5t54 140t18.5 151.5q0 56 -18 111.5t-50.5 101.5t-85.5 74.5t-117 28.5h-65l2 16h55q159 0 257.5 125.5 t98.5 308.5q0 32 -3 60t-13 60t-26.5 55t-45.5 38t-67 15q-79 0 -141 -53.5t-62 -123.5q0 -64 50 -86.5t106 17.5q20 -50 20 -96q0 -96 -75 -152.5t-175 -56.5q-103 0 -175 61t-72 178q0 75 34.5 133t90 94t132.5 59.5t155 32.5t165 9q58 0 112 -5.5t113 -17.5t107 -35.5 t87 -56.5t61 -83.5t22 -112.5q0 -63 -23.5 -115t-61 -88.5t-94.5 -65t-112.5 -45.5t-126.5 -29.5t-126.5 -18t-121.5 -9.5v-4q65 1 121.5 -1t124 -10t121.5 -21.5t106.5 -38t88.5 -58t57.5 -82.5t21.5 -109q0 -221 -194.5 -338.5t-563.5 -117.5q-129 0 -238 37.5t-179 116 t-70 184.5z" />
<glyph unicode="4" horiz-adv-x="1288" d="M76 410l2 16q94 25 212 89t220.5 143.5t173 169t70.5 157.5q0 59 -30.5 90t-72.5 31q-53 0 -84.5 -33.5t-31.5 -85.5q0 -51 59 -72q-53 -84 -143 -84q-126 0 -183 103q-51 91 -24 206q28 120 121 181q66 43 151 43q121 0 191.5 -74.5t70.5 -222.5q0 -92 -28.5 -192 t-73.5 -184t-92 -150t-92 -111h227l88 543q74 82 167.5 224.5t141.5 236.5h172l-160 -1004h220l-5 -20h-217l-6 -41q-15 -90 -19.5 -131t-3 -95t20.5 -75.5t57.5 -37.5t102.5 -16l-2 -14h-840l2 14q64 0 107.5 16t69.5 37.5t45 75.5t27.5 94.5t23.5 131.5l6 41h-641z" />
<glyph unicode="5" horiz-adv-x="1306" d="M76 319q0 115 81 191t214 76q100 0 163 -67.5t33 -160.5q-79 -1 -135.5 -58.5t-56.5 -137.5t56 -120t128 -40q86 0 161.5 61.5t117 153.5t41.5 186q0 98 -51 166t-129.5 97.5t-176.5 29.5q-187 0 -338 -96l158 471q69 207 139 287t172 80q74 0 251.5 -47.5t283.5 -47.5 q96 0 150 21.5t77 83.5l12 -2q-26 -80 -50 -138.5t-61 -121t-80 -101.5t-104 -64.5t-135 -25.5q-61 0 -135 17.5t-132.5 38t-132 38t-132.5 17.5q-51 0 -100 -12l-154 -461q160 144 334 231.5t346 87.5q127 0 229 -42t164 -128.5t62 -203.5q0 -129 -66 -241t-175.5 -188 t-253 -119.5t-296.5 -43.5q-128 0 -235.5 38.5t-175.5 115.5t-68 179z" />
<glyph unicode="6" horiz-adv-x="1361" d="M152 598q0 168 62 323t169.5 271.5t261.5 186t328 69.5q130 0 233 -33.5t167.5 -105.5t64.5 -174q0 -115 -81 -191t-214 -76q-98 0 -164.5 78t-36.5 172q82 -20 139.5 28.5t57.5 129.5q0 80 -55 118t-128 38q-117 0 -204 -183.5t-138 -533.5q100 73 212.5 108t211 26.5 t179.5 -47t128.5 -112t47.5 -168.5q0 -99 -39.5 -186t-107 -150t-155 -109t-184.5 -68.5t-194 -22.5q-173 0 -301.5 81t-194 218.5t-65.5 312.5zM573 295q0 -150 36.5 -221.5t115.5 -71.5q46 0 80 9t72 42t61.5 90.5t39 160.5t15.5 245q0 196 -105.5 233t-277.5 -86 q-37 -236 -37 -401z" />
<glyph unicode="7" horiz-adv-x="1183" d="M150 942q22 69 42 122t49.5 116.5t63.5 108.5t77 84.5t98.5 60t119.5 20.5q50 0 126.5 -17t152 -40.5t157.5 -46t148 -37t117.5 -11t70.5 30.5q11 44 14 107h13q-7 -74 -17 -121q-14 -73 -58.5 -150t-103 -145t-127 -137t-133.5 -135.5t-118.5 -130.5t-86 -131.5 t-32.5 -129.5q0 -52 29.5 -78.5t78.5 -7.5q-4 -64 -25 -115.5t-51 -83.5t-69.5 -53t-78.5 -29.5t-79 -8.5q-110 0 -187 61.5t-77 165.5q0 74 32 143t87.5 126t128 110.5t155 103t167.5 98t167 100.5t150.5 104.5t122 117t78.5 131.5h-2q-48 -114 -150 -184t-227 -70 q-95 0 -291 35t-303 35q-174 0 -215 -121z" />
<glyph unicode="8" horiz-adv-x="1267" d="M72 289q0 54 24 102t59 81.5t89 65t99.5 50.5t105.5 41q-96 67 -149.5 146.5t-53.5 187.5q0 95 45 176.5t117 137t163 95t181.5 58t173.5 18.5q53 0 103.5 -7t103 -25.5t91.5 -46t64 -72.5t25 -101q0 -80 -84 -157t-240 -128q59 -29 102 -54t90.5 -63t77 -78t49 -95.5 t19.5 -118.5q0 -154 -103.5 -273t-272.5 -181t-371 -62q-97 0 -182.5 15.5t-161 49t-120 94.5t-44.5 144zM279 319q0 -48 11 -93t36 -86t61.5 -71.5t92 -48.5t124.5 -18q92 0 175 31t134.5 85.5t51.5 119.5q0 49 -31 92t-88 79t-116.5 66.5t-139 71.5t-133.5 76 q-75 -42 -126.5 -128.5t-51.5 -175.5zM618 1217q0 -27 9 -52.5t21.5 -45.5t37.5 -41t45.5 -35t56 -33.5t59.5 -31t66.5 -31.5t65.5 -32q178 98 178 254q0 114 -91.5 185t-207.5 71q-100 0 -170 -61.5t-70 -146.5z" />
<glyph unicode="9" horiz-adv-x="1357" d="M152 293q0 120 80.5 196t213.5 76q98 0 164.5 -78t36.5 -172q-79 20 -137.5 -27.5t-58.5 -127.5q0 -44 20 -77t51 -49.5t61 -24t58 -7.5q49 0 88 19.5t70.5 62t55.5 97.5t45.5 141.5t38.5 177t36 219.5q-82 -60 -174 -93.5t-177 -38.5t-163.5 16.5t-136.5 65.5 t-92.5 114.5t-34.5 158.5q0 102 39 187t104.5 143t153.5 98.5t184.5 59t198.5 18.5q173 0 301.5 -81t194 -218.5t65.5 -312.5q0 -169 -58 -323t-162 -271t-260 -186.5t-340 -69.5q-88 0 -167 16.5t-148 50.5t-110 96t-41 144zM594 868q0 -114 51 -170.5t139 -46t195 85.5 q6 41 11.5 78t9 64t6.5 57.5t4.5 47t3 44t2 37t1.5 38t1 36.5q12 293 -154 293q-270 0 -270 -564z" />
<glyph unicode=":" horiz-adv-x="540" d="M106 156q0 90 68.5 156.5t155.5 66.5q70 0 116 -49.5t46 -120.5q0 -90 -68.5 -156.5t-155.5 -66.5q-70 0 -116 49.5t-46 120.5zM219 866q0 90 68 157t155 67q70 0 116 -49.5t46 -120.5q0 -91 -68.5 -157.5t-154.5 -66.5q-70 0 -116 49.5t-46 120.5z" />
<glyph unicode=";" horiz-adv-x="557" d="M109 119q-14 102 60.5 181t162.5 79q74 0 123 -54.5t49 -140.5q0 -113 -93 -245.5t-241 -237.5l-12 10q131 119 113.5 231t-162.5 177zM219 866q0 90 68 157t155 67q70 0 116 -49.5t46 -120.5q0 -91 -68.5 -157.5t-154.5 -66.5q-70 0 -116 49.5t-46 120.5z" />
<glyph unicode="&#x3c;" horiz-adv-x="669" d="M197 614l546 519l5 -11l-457 -508l297 -508l-8 -10z" />
<glyph unicode="=" horiz-adv-x="1073" d="M162 399l4 21h874l-4 -21h-874zM227 809l2 20h875l-2 -20h-875z" />
<glyph unicode="&#x3e;" horiz-adv-x="669" d="M115 106l458 508l-297 508l9 11l381 -519l-545 -518z" />
<glyph unicode="?" horiz-adv-x="1171" d="M211 1079q0 72 28 131.5t77 98.5t107.5 67t126.5 43.5t127 22t116 6.5q66 0 133.5 -9.5t137.5 -32.5t123.5 -57.5t87.5 -89t34 -122.5q0 -77 -37 -141.5t-96 -109.5t-130 -84t-142 -71.5t-130 -64t-96 -70.5t-37 -82q0 -34 16 -65q-5 -11 -14 -11q-4 0 -9 8t-9 24.5 t-4 35.5q0 42 20.5 86t50.5 82t66 91t66 108.5t50.5 138.5t20.5 178q0 116 -40.5 179t-113.5 63q-70 0 -127 -62t-57 -162q0 -82 53 -114q-19 -95 -82 -146t-143 -51q-74 0 -124 47t-50 135zM424 156q0 90 69 156.5t156 66.5q70 0 116 -49.5t46 -120.5q0 -91 -68 -157 t-157 -66q-70 0 -116 49.5t-46 120.5z" />
<glyph unicode="@" horiz-adv-x="1626" d="M129 336q0 170 80.5 339t213 299.5t317 212t380.5 81.5q135 0 242 -43.5t172 -118t99 -169t34 -202.5q0 -115 -35 -218t-100 -183.5t-168.5 -128t-230.5 -47.5q-97 0 -150 47t-35 139q-44 -74 -121 -131t-161 -57q-73 0 -116.5 50t-43.5 134q0 78 29 161.5t81.5 157 t118.5 132.5t146 93t159 34q92 0 168 -35.5t117 -79.5l-131 -400q-22 -66 -31 -96.5t-14.5 -65.5t4.5 -48t35 -13q109 11 197.5 60t145 125t86.5 170.5t30 199.5q0 103 -32.5 194t-96 163t-166 113.5t-232.5 41.5q-192 0 -372.5 -79.5t-310.5 -207t-208.5 -293t-78.5 -331.5 q0 -227 144 -369.5t384 -142.5q202 0 414 102l8 -18q-212 -105 -422 -105q-249 0 -399 148.5t-150 384.5zM741 303q0 -72 41 -72q35 0 88.5 48.5t85.5 111.5l142 424q25 80 -31 80q-65 0 -143.5 -109t-130.5 -249.5t-52 -233.5z" />
<glyph unicode="A" horiz-adv-x="2291" d="M0 225q0 115 61.5 206t155.5 137t199 46q102 0 193.5 -36.5t153.5 -112t62 -174.5q0 -106 -73.5 -179t-192.5 -73q-91 1 -149 65q-39 44 -40 99q0 26 9 55q74 2 125 57t51 136q0 73 -52 110t-118 37q-114 0 -207.5 -107t-93.5 -262q0 -175 107 -284t288 -109 q101 0 197 43.5t179 118t165.5 186t153 233.5t146 276.5t139.5 299t138 315.5l84 195l353 -1138q61 -193 119 -272t159 -79l-2 -14h-850l2 14q170 0 170 171q0 67 -26 161l-43 154h-316q-87 -163 -172 -283.5t-181 -213t-202 -140t-221 -47.5q-132 0 -237 45.5t-169.5 139.5 t-64.5 224zM1257 520h299l-110 391q-97 -218 -189 -391z" />
<glyph unicode="B" horiz-adv-x="1761" d="M0 1284q0 144 107.5 242t271.5 98q87 0 192.5 -32t189 -70.5t186 -70.5t183.5 -32q32 0 49 15t17 36q0 29 -24 41q-9 4 -20 4q-20 0 -48 -14q-16 31 -16 59t16 52q34 48 94 49q46 0 79.5 -28t33.5 -83q0 -36 -23.5 -65t-47.5 -41.5t-50 -20.5q76 13 108 13 q88 0 168.5 -17t147 -50.5t106 -88.5t39.5 -125q0 -63 -22 -115t-57 -87.5t-87 -63t-104 -44t-117 -27.5t-117 -16t-112 -7l-2 -4q48 -1 97 -6t109.5 -17t114 -31t106 -51t90 -73t60.5 -100t23 -130q0 -121 -70.5 -226.5t-204.5 -176.5q-132 -70 -324 -86q-39 -3 -81 -3 q-161 0 -354 48l2 14q80 -14 147 -15q8 0 17 1q74 2 133.5 25.5t105 57t79.5 80t57.5 94.5t38 100.5t20.5 98.5t6 88q0 58 -14.5 109t-45.5 95t-86 69.5t-129 25.5l2 17q326 0 326 415q0 87 -41 144t-113 57q-65 0 -109 -65.5t-69 -223.5l-176 -1126h-622l2 14 q63 0 106 15.5t69 39t44 72.5t27.5 96t23.5 130v2l108 696q12 77 53 137.5t94 96t121 59.5t123 33t111 12v2q-85 0 -186.5 31.5t-180.5 69t-180 69t-186 31.5q-99 0 -158 -40.5t-59 -119.5q0 -66 40 -97.5t95 -31.5q92 0 156 82q58 -26 88 -68t32 -87v-8q0 -41 -18 -83 q-20 -46 -57 -82t-90 -59t-111 -23q-120 0 -211.5 82.5t-91.5 212.5z" />
<glyph unicode="C" horiz-adv-x="1464" d="M102 475q0 134 31 266.5t88.5 252.5t146 223t197 178t247.5 118t292 43q126 0 228.5 -33.5t168.5 -105.5t66 -172q0 -114 -78 -188t-174 -74q-83 0 -145 60q-46 44 -46 103q0 21 6 44q64 15 103 57t39 113q0 83 -49 130.5t-125 47.5q-79 0 -156.5 -56.5t-140.5 -151.5 t-117.5 -220.5t-91.5 -262t-57.5 -278t-20.5 -266.5q0 -55 6 -105.5t20 -104.5t40.5 -98t64 -79.5t93.5 -55.5t126 -20q93 0 183 35t162 99t116.5 163t44.5 217q0 75 -22 130.5t-59 85t-78 43.5t-87 14q-78 0 -129 -51t-51 -134q0 -67 41.5 -110t106.5 -45q1 -11 1 -22 q0 -77 -60 -133q-69 -64 -161 -64q-106 0 -166.5 58.5t-60.5 149.5q0 65 29 123.5t78 102t111 76t129.5 49t131.5 16.5q147 0 236.5 -71.5t89.5 -217.5q0 -110 -41 -206.5t-119 -171t-200.5 -117.5t-274.5 -43q-139 0 -257.5 36.5t-201 99.5t-141 147.5t-86 179.5t-27.5 196 z" />
<glyph unicode="D" horiz-adv-x="1867" d="M0 1284q0 144 107.5 242t271.5 98q87 0 192.5 -32t189 -70.5t186 -70.5t183.5 -32q32 0 49 15t17 36q0 29 -24 41q-9 4 -20 4q-20 0 -48 -14q-16 31 -16 59t16 52q34 48 94 49q46 0 79.5 -28t33.5 -83q0 -36 -23.5 -65t-47.5 -41.5t-50 -20.5q58 7 96 7q93 0 178.5 -21 t165 -70t138 -120t93.5 -179t35 -241q0 -73 -10 -148t-33.5 -157t-58.5 -158t-88.5 -147.5t-120.5 -129t-157 -98.5t-196 -60q-73 -13 -160 -13q-39 0 -80 2q-134 8 -285 49l2 14q63 -11 122 -11q65 0 123 14q112 26 191 88t140.5 155t98.5 194t61 214.5t33 208t9 181.5 q0 206 -59 311t-193 105q-88 0 -131.5 -60t-69.5 -227l-176 -1126h-622l2 14q53 0 92 8t66.5 32t44 46t30.5 71.5t20.5 86t18.5 111.5l106 696q12 77 53 137.5t94 96t121 59.5t123 33t111 12v2q-85 0 -186.5 31.5t-180.5 69t-180 69t-186 31.5q-99 0 -158 -40.5t-59 -119.5 q0 -66 40 -97.5t95 -31.5q92 0 156 82q58 -26 88 -68t32 -87v-8q0 -41 -18 -83q-20 -46 -57 -82t-90 -59t-111 -23q-120 0 -211.5 82.5t-91.5 212.5z" />
<glyph unicode="E" horiz-adv-x="1447" d="M82 250q0 82 28.5 158t89 142.5t147.5 116t212 79t275 30.5l2 4q-232 4 -364 96t-132 236q0 82 46 148t115.5 104.5t158.5 64t166 35t147 9.5q130 0 234.5 -34t169.5 -105.5t65 -170.5q0 -115 -78 -189.5t-174 -74.5q-82 0 -144 60q-45 44 -46 103q0 21 6 44 q62 13 101.5 55t39.5 115q0 79 -47.5 128.5t-122.5 49.5q-83 0 -149 -62.5t-98 -147t-32 -165.5q0 -114 66 -200t166 -86h55l-4 -17h-33q-104 0 -196.5 -56t-154 -144.5t-97 -197.5t-35.5 -216q0 -406 334 -406q102 0 194.5 33t159.5 88t116.5 124.5t74 143.5t24.5 144 q0 108 -68 181t-196 73q-78 0 -129 -51t-51 -134q0 -67 41 -110t106 -45q1 -11 1 -23q0 -76 -60 -132q-68 -64 -160 -64q-106 0 -166.5 59t-60.5 150q0 80 44.5 150.5t115 116.5t154.5 72.5t165 26.5q168 0 256 -84.5t88 -212.5q0 -73 -28 -146.5t-87.5 -142.5 t-142.5 -122.5t-202 -86t-257 -32.5q-131 0 -239.5 29t-183.5 78.5t-126.5 116t-75.5 140.5t-24 154z" />
<glyph unicode="F" horiz-adv-x="2019" d="M0 223q0 115 61.5 206t155.5 137t199 46q102 0 193.5 -36.5t153.5 -112t62 -174.5q0 -106 -73.5 -179t-192.5 -73q-91 1 -149 65q-39 44 -40 99q0 26 9 55q74 2 125 57t51 136q0 73 -52 110t-118 37q-114 0 -207.5 -107t-93.5 -262q0 -170 111.5 -280.5t271.5 -110.5 q194 0 319 135t164 398l107 696q12 77 53 137.5t94 96t121 59.5t123 33t111 12v2q-85 0 -187 31.5t-181 69t-180 69t-186 31.5q-99 0 -158 -40.5t-59 -119.5q0 -66 40 -97.5t95 -31.5q92 0 156 82q58 -26 88 -68t32 -87v-8q0 -41 -18 -83q-20 -46 -57 -82t-90 -59t-111 -23 q-120 0 -211.5 82.5t-91.5 212.5q0 144 107.5 242t271.5 98q87 0 193 -32t189 -70.5t186 -70.5t184 -32q32 0 48.5 15t16.5 36q0 29 -24 41q-9 4 -20 4q-20 0 -48 -14q-16 31 -16 59t16 52q34 48 94 49q46 0 79.5 -28t33.5 -83q0 -36 -23.5 -65t-47.5 -41.5t-50 -20.5v-2 q24 3 45.5 5.5t53 4t52 2.5t70 1h79h106.5h127l-78 -494h-19q15 89 15 164q0 20 -1 38q-5 88 -37 148.5t-105.5 92.5t-190.5 32q-61 0 -104 -11.5t-71 -31t-47 -58t-29.5 -80t-20.5 -108.5l-60 -387q172 0 294.5 82t156.5 240h14l-137 -662h-14q7 36 7 69q0 100 -67 168 q-89 90 -254 89l-49 -303q-17 -108 -62 -197.5t-105.5 -151t-139 -109t-155.5 -75t-162 -44.5t-152.5 -23t-132.5 -6q-64 0 -128 16t-123.5 50t-105 81.5t-73 114.5t-27.5 145z" />
<glyph unicode="G" horiz-adv-x="1572" d="M102 518q0 156 48.5 309t140.5 283.5t215 231t282.5 157.5t331.5 57q129 0 233.5 -33.5t170 -105.5t65.5 -172q0 -114 -78 -188t-174 -74q-83 0 -145 60q-45 44 -45 103q0 21 6 44q141 32 141 170q0 83 -48.5 130.5t-125.5 47.5q-98 0 -191.5 -76t-164.5 -199.5 t-125 -275t-82.5 -308t-28.5 -292.5q0 -30 1.5 -62t6.5 -82.5t14 -94.5t26 -91.5t40 -81t58 -55.5t78 -22q65 0 144.5 39t111.5 98l39 256q23 158 23 216v12q-5 81 -64 105q-35 15 -99 15l2 14h736v-14q-96 0 -135 -57.5t-62 -206.5l-68 -453q-12 -77 -34 -149.5t-59 -141.5 t-84.5 -120.5t-112.5 -83t-140 -31.5q-129 0 -202.5 61t-73.5 160q0 106 68.5 160.5t162.5 54.5q87 0 146 -56q50 -47 50 -125q0 -14 -1 -28h-12q-47 0 -76 -23q-31 -25 -31 -71q0 -35 20 -56.5t56 -21.5q64 0 93.5 49.5t29.5 126.5q0 45 -18.5 85t-45 71t-52.5 61 t-43.5 68.5t-16.5 81.5q-47 -65 -135 -97t-195 -32q-138 0 -248.5 52t-180 142.5t-106.5 207.5t-37 251z" />
<glyph unicode="H" horiz-adv-x="2437" d="M0 223q0 115 61.5 206t155.5 137t199 46q102 0 193.5 -36.5t153.5 -112t62 -174.5q0 -106 -73.5 -179t-192.5 -73q-91 1 -149 65q-39 44 -40 99q0 26 9 55q74 2 125 57t51 136q0 73 -52 110t-118 37q-114 0 -207.5 -107t-93.5 -262q0 -170 111.5 -280.5t271.5 -110.5 q194 0 319 135t164 398l107 698q12 77 53 137.5t94 95.5t121 58.5t123 32.5t111 12v2q-85 0 -187 31.5t-181 69t-180 69t-186 31.5q-99 0 -158 -40.5t-59 -119.5q0 -66 40 -97.5t95 -31.5q92 0 156 82q58 -26 88 -68t32 -87v-8q0 -41 -18 -83q-20 -46 -57 -82t-90 -59 t-111 -23q-120 0 -211.5 82.5t-91.5 212.5q0 144 107.5 242t271.5 98q87 0 193 -32t189 -70.5t186 -70.5t184 -32q32 0 48.5 15t16.5 36q0 29 -24 41q-9 4 -20 4q-20 0 -48 -14q-16 31 -16 59t16 52q34 48 94 49q42 0 76.5 -27t34.5 -73q0 -30 -12 -51.5t-32 -37t-45 -30.5 t-52 -39t-52 -57t-46 -89.5t-33 -130.5l-62 -389h453l16 107q18 121 73 239t130.5 213t167 177.5t184.5 137.5t181.5 86.5t158.5 31.5q88 0 134 -43.5t46 -110.5q0 -93 -66.5 -150t-146.5 -57q-78 0 -106 78q31 13 47 42.5t16 63.5q0 45 -27 77t-75 32q-53 0 -97 -44.5 t-72.5 -116.5t-45 -133.5t-27.5 -125.5l-139 -872q-16 -90 -20 -131q-3 -31 -3 -69q1 -13 1 -26q2 -54 20.5 -75.5t57 -37.5t102.5 -16l-2 -14h-777l3 14q51 0 83 14t54.5 51.5t35.5 88t27 139.5l62 410h-453l-45 -295q-17 -108 -62 -197.5t-105.5 -151t-139 -109 t-155.5 -75t-162 -44.5t-152.5 -23t-132.5 -6q-64 0 -128 16t-123.5 50t-105 81.5t-73 114.5t-27.5 145z" />
<glyph unicode="I" horiz-adv-x="1134" d="M0 1284q0 144 107.5 242t271.5 98q87 0 192.5 -32t189 -70.5t186 -70.5t183.5 -32q32 0 49 15t17 36q0 29 -24 41q-9 4 -20 4q-20 0 -48 -14q-16 31 -16 59t16 52q34 48 94 49q42 0 76.5 -27t34.5 -73q0 -35 -16.5 -59.5t-41.5 -38.5t-57 -39t-62 -56t-56.5 -93.5 t-39.5 -148.5l-129 -819q-12 -73 -12 -127q-1 -68 19 -103q34 -63 161 -63l-2 -14h-837l2 14q53 0 92 8t66.5 32t44 46t30.5 71.5t20.5 86t18.5 111.5l106 698q12 77 53 137.5t94 95.5t121 58.5t123 32.5t111 12v2q-85 0 -186.5 31.5t-180.5 69t-180 69t-186 31.5 q-99 0 -158 -40.5t-59 -119.5q0 -66 40 -97.5t95 -31.5q92 0 156 82q58 -26 88 -68t32 -87v-8q0 -41 -18 -83q-20 -46 -57 -82t-90 -59t-111 -23q-120 0 -211.5 82.5t-91.5 212.5z" />
<glyph unicode="J" horiz-adv-x="1574" d="M0 223q0 115 61.5 206t155.5 137t199 46q102 0 193.5 -36.5t153.5 -112t62 -174.5q0 -106 -73.5 -179t-192.5 -73q-92 0 -149 65q-40 43 -40 99q0 26 9 55q74 2 125 57t51 136q0 73 -52 110t-118 37q-114 0 -207.5 -107t-93.5 -262q0 -170 111.5 -280.5t271.5 -110.5 q194 0 319 135t164 398l107 698q12 77 53 137.5t94 95.5t121 58.5t123 32.5t111 12v2q-85 0 -187 31.5t-181 69t-180 69t-186 31.5q-99 0 -158 -40.5t-59 -119.5q0 -66 40 -97.5t95 -31.5q92 0 156 82q58 -26 88 -68t32 -87v-8q0 -41 -18 -83q-20 -46 -57 -82t-90 -59 t-111 -23q-120 0 -211.5 82.5t-91.5 212.5q0 144 107.5 242t271.5 98q87 0 193 -32t189 -70.5t186 -70.5t184 -32q32 0 48.5 15t16.5 36q0 29 -24 41q-9 4 -20 4q-20 0 -48 -14q-16 31 -16 59t16 52q34 49 94 49q42 0 76.5 -27t34.5 -73q0 -30 -12 -51.5t-32 -37t-45 -30.5 t-52 -39t-52 -57t-46 -89.5t-33 -130.5l-111 -704q-17 -108 -62 -197.5t-105.5 -151t-139 -109t-155.5 -75t-162 -44.5t-152.5 -23t-132.5 -6q-64 0 -128 16t-123.5 50t-105 81.5t-73 114.5t-27.5 145z" />
<glyph unicode="K" horiz-adv-x="2248" d="M0 223q0 115 61.5 206t155.5 137t199 46q102 0 193.5 -36.5t153.5 -112t62 -174.5q0 -106 -73.5 -179t-192.5 -73q-91 1 -149 65q-39 44 -40 99q0 26 9 55q74 2 125 57t51 136q0 73 -52 110t-118 37q-114 0 -207.5 -107t-93.5 -262q0 -170 111.5 -280.5t271.5 -110.5 q194 0 319 135t164 398l107 698q12 77 53 137.5t94 95.5t121 58.5t123 32.5t111 12v2q-85 0 -187 31.5t-181 69t-180 69t-186 31.5q-99 0 -158 -40.5t-59 -119.5q0 -66 40 -97.5t95 -31.5q92 0 156 82q58 -26 88 -68t32 -87v-8q0 -41 -18 -83q-20 -46 -57 -82t-90 -59 t-111 -23q-120 0 -211.5 82.5t-91.5 212.5q0 144 107.5 242t271.5 98q87 0 193 -32t189 -70.5t186 -70.5t184 -32q32 0 48.5 15t16.5 36q0 29 -24 41q-9 4 -20 4q-20 0 -48 -14q-16 31 -16 59t16 52q34 48 94 49q42 0 76.5 -27t34.5 -73q0 -30 -12 -51.5t-32 -37t-45 -30.5 t-52 -39t-52 -57t-46 -89.5t-33 -130.5l-62 -383l209 201q200 198 268 291q59 82 59 127q0 56 -91 57l2 15h581l-2 -15q-91 0 -199.5 -44t-217.5 -120t-202 -154.5t-188 -170.5l-161 -154q97 20 163 28q32 4 63 3q33 0 65 -4q62 -8 104.5 -34t85 -78.5t77 -128t72.5 -187.5 q31 -91 51.5 -148t50 -126t55 -109.5t58 -72.5t66.5 -40l-6 -6q-90 -18 -171 -18.5t-153 18.5q-145 37 -244.5 150.5t-134.5 293.5q-18 94 -35.5 161.5t-42.5 135t-58 107t-73 49.5l-55 -53l-45 -295q-17 -108 -62 -197.5t-105.5 -151t-139 -109t-155.5 -75t-162 -44.5 t-152.5 -23t-132.5 -6q-64 0 -128 16t-123.5 50t-105 81.5t-73 114.5t-27.5 145z" />
<glyph unicode="L" horiz-adv-x="1372" d="M0 -391q38 66 88 132t86 112t72.5 103.5t63 134t42.5 175.5l78 492q20 119 73 241t136 232t185 196t228 136.5t255 50.5q120 0 184.5 -62t64.5 -153q0 -108 -86.5 -189.5t-199.5 -81.5q-75 0 -123 48q-34 34 -34 83q0 19 5 41h3q55 0 89 42q34 44 35 100q0 44 -37 79 t-98 35q-43 0 -79 -19t-61.5 -55.5t-44 -73.5t-32.5 -89.5t-20.5 -85t-14.5 -78.5l-108 -688q-15 -91 -50.5 -166.5t-84.5 -130.5t-106.5 -102t-121 -91.5t-122.5 -88.5t-118 -103t-100 -125l2 -2q133 161 265 232t272 71q116 0 261.5 -38t283 -92.5t271.5 -109.5t266 -93 t228 -38q138 0 226 82l8 -4q-109 -214 -241.5 -306.5t-291.5 -92.5q-97 0 -214 32.5t-224.5 81t-233.5 105.5t-239 105.5t-243 81t-244 32.5q-61 0 -100 -19.5t-85 -86.5z" />
<glyph unicode="M" horiz-adv-x="2789" d="M0 223q0 115 61.5 206t155.5 137t199 46q102 0 193.5 -36.5t153.5 -112t62 -174.5q0 -106 -73.5 -179t-192.5 -73q-91 1 -149 65q-39 44 -40 99q0 26 9 55q74 2 125 57t51 136q0 73 -52 110t-118 37q-114 0 -207.5 -107t-93.5 -262q0 -57 13.5 -111t45 -105.5t78.5 -89.5 t119.5 -61.5t161.5 -23.5q229 0 375 162t194 463l160 999q134 -51 271 -51h24q-69 11 -149.5 44.5t-140.5 66.5t-141.5 59.5t-158.5 26.5q-99 0 -158 -40.5t-59 -119.5q0 -66 40 -97.5t95 -31.5q92 0 156 82q58 -26 88 -68t32 -87v-8q0 -41 -18 -83q-20 -46 -57 -82t-90 -59 t-111 -23q-120 0 -211.5 82.5t-91.5 212.5q0 144 107.5 242t271.5 98q72 0 146.5 -21t138 -51t126.5 -60.5t134.5 -51.5t138.5 -21q32 0 48.5 15t16.5 36q-1 29 -25 41q-9 4 -19 4q-20 0 -48 -14q-16 31 -16 59q1 28 17 52q34 48 93 49q42 0 76.5 -27t34.5 -73 q0 -130 -133 -152l196 -872q166 283 344.5 519t342.5 363q144 143 311 226.5t278 83.5q88 0 134.5 -43.5t46.5 -110.5q0 -93 -66.5 -150t-146.5 -57q-79 0 -107 78q31 13 47.5 42.5t16.5 63.5q0 44 -27.5 76.5t-75.5 32.5q-53 0 -97 -44.5t-72 -116.5t-44.5 -133.5 t-27.5 -125.5l-140 -872q-16 -90 -20 -131q-3 -31 -3 -69q1 -13 1 -26q2 -54 20.5 -75.5t57 -37.5t102.5 -16l-2 -14h-776l2 14q51 0 83 14t54.5 51.5t35.5 88t27 139.5l82 537q35 232 185 438q-129 -132 -271 -329t-255 -391t-198 -358.5t-130 -273.5l-332 1411l-139 -876 q-24 -154 -74 -272.5t-109 -188t-133.5 -113.5t-140.5 -59.5t-137 -15.5q-230 0 -366 115t-136 292z" />
<glyph unicode="N" horiz-adv-x="2512" d="M0 223q0 115 61.5 206t155.5 137t199 46q102 0 193.5 -36.5t153.5 -112t62 -174.5q0 -106 -73.5 -179t-192.5 -73q-91 1 -149 65q-39 44 -40 99q0 26 9 55q74 2 125 57t51 136q0 73 -52 110t-118 37q-114 0 -207.5 -107t-93.5 -262q0 -57 13.5 -111t45 -105.5t78.5 -89.5 t119.5 -61.5t161.5 -23.5q228 0 373.5 161.5t195.5 463.5l94 575q12 74 14 152v19q-1 67 -13 131q-14 72 -46 104q108 -33 267 -33q39 0 81 2q-69 11 -149 44t-139.5 66t-140.5 59t-158 26q-99 0 -158 -40.5t-59 -119.5q0 -66 40 -97.5t95 -31.5q91 0 155 82q58 -26 88 -68 t32 -87q0 -3 1 -6q-1 -42 -19 -85q-20 -46 -56.5 -82t-90 -59t-112.5 -23q-119 0 -210 83t-91 214q0 141 107 239.5t269 98.5q70 0 146 -21t141.5 -51t128.5 -60.5t128.5 -51.5t121.5 -21q86 0 86 49q0 32 -24 44q-9 4 -20 4q-20 0 -48 -15q-16 31 -16 59t17 52q34 48 95 49 q41 0 75 -27t34 -84q0 -60 -39 -94.5t-99 -46.5l594 -850l103 645q91 570 426 570q46 0 82.5 -13t58.5 -32.5t36.5 -46.5t20 -52t5.5 -51q0 -96 -66 -153.5t-143 -57.5q-83 0 -111 78q31 13 47.5 42.5t16.5 63.5q0 44 -27 76.5t-74 32.5q-53 0 -97.5 -43.5t-73 -113 t-46 -134t-27.5 -129.5l-204 -1311l-903 1280l-121 -745q-25 -154 -75 -272.5t-109 -188t-133 -113.5t-140 -59.5t-137 -15.5q-230 0 -366 115t-136 292z" />
<glyph unicode="O" horiz-adv-x="1777" d="M102 489q0 501 385 773q59 143 214 233t391 90q177 0 318.5 -54.5t229 -147t133.5 -209t46 -246.5q0 -179 -56.5 -346.5t-156.5 -299.5t-230.5 -231.5t-285.5 -153t-314 -53.5q-147 0 -273 49t-214 135t-137.5 205t-49.5 256zM506 270q0 -89 12.5 -160.5t38 -127 t69.5 -85.5t103 -30q98 0 200 81.5t185.5 215t150.5 294t104.5 330.5t37.5 312q0 68 -8 127.5t-31.5 124t-61.5 110t-104 75.5t-153 30q-145 0 -293.5 -72t-218.5 -201q190 120 473 193l8 -8q-145 -51 -254.5 -220.5t-175.5 -406.5q85 -76 198 -76q88 0 139.5 50.5 t51.5 134.5q0 67 -41.5 110t-106.5 45q-1 11 -1 22q0 76 60 132q69 64 161 65q106 0 166.5 -59t60.5 -150q0 -80 -45 -150.5t-115 -116.5t-152.5 -72.5t-160.5 -26.5q-133 0 -221 67q-76 -280 -76 -557z" />
<glyph unicode="P" horiz-adv-x="2172" d="M0 223q0 115 61.5 206t155.5 137t199 46q102 0 193.5 -36.5t153.5 -112t62 -174.5q0 -106 -73.5 -179t-192.5 -73q-91 1 -149 65q-39 44 -40 99q0 26 9 55q74 2 125 57t51 136q0 73 -52 110t-118 37q-114 0 -207.5 -107t-93.5 -262q0 -170 111.5 -280.5t271.5 -110.5 q194 0 319 135t164 398l107 696q10 65 40 118t73.5 88t92.5 61t105 40.5t102 21.5t91 9v2q-85 0 -187 31.5t-181 69t-180 69t-186 31.5q-99 0 -158 -40.5t-59 -119.5q0 -66 40 -97.5t95 -31.5q92 0 156 82q58 -26 88 -68t32 -87v-8q0 -41 -18 -83q-20 -46 -57 -82t-90 -59 t-111 -23q-120 0 -211.5 82.5t-91.5 212.5q0 144 107.5 242t271.5 98q87 0 193 -32t189 -70.5t186 -70.5t184 -32q32 0 48.5 15t16.5 36q0 29 -24 41q-9 4 -20 4q-20 0 -48 -14q-16 31 -16 59t16 52q34 48 94 49q46 0 79.5 -28t33.5 -83q0 -36 -23.5 -65t-47.5 -41.5 t-50 -20.5q76 13 109 13q231 0 362 -90t131 -273q0 -75 -21 -142.5t-58.5 -119.5t-89 -97t-111 -74.5t-125.5 -53t-133.5 -32t-133.5 -10.5q-11 0 -23 -1q-54 0 -103 10l2 16q14 -1 27 -1q67 0 123 30q66 36 106.5 97t67 145t36.5 164t10 163q0 110 -39.5 178t-113.5 68 q-66 0 -109.5 -64.5t-68.5 -222.5l-111 -704q-17 -108 -62 -197.5t-105.5 -151t-139 -109t-155.5 -75t-162 -44.5t-152.5 -23t-132.5 -6q-64 0 -128 16t-123.5 50t-105 81.5t-73 114.5t-27.5 145z" />
<glyph unicode="Q" horiz-adv-x="1740" d="M96 37q0 40 53.5 64t118.5 24q56 0 154.5 -24t172.5 -47.5t239 -78.5q135 64 240.5 180t168.5 258t95 294t32 305q0 72 -7.5 140.5t-31 147t-60.5 135.5t-103 95.5t-152 38.5q-108 0 -199.5 -54.5t-153.5 -142.5t-105.5 -202t-63 -231.5t-19.5 -231.5q0 -176 50 -257 t147 -81q89 0 134.5 57t45.5 156q0 77 -47.5 127t-122.5 51q-2 15 -2 30q0 89 64 158q74 80 190 80q121 0 191.5 -75.5t70.5 -180.5q0 -75 -31.5 -143t-84 -117.5t-118.5 -87t-136.5 -56t-137.5 -18.5q-44 0 -96.5 12t-112.5 37t-114.5 69t-99.5 102t-72 143.5t-27 185.5 q0 206 110.5 364t297 241t415.5 83q97 0 190.5 -16t183 -47.5t165 -83t133 -117.5t89.5 -156.5t32 -195.5q0 -147 -63 -303t-173.5 -294t-273.5 -252t-352 -175q163 -55 277 -91t294 -85t328.5 -78t332 -50.5t353.5 -21.5q132 0 211.5 16.5t136.5 63.5l8 -4 q-63 -115 -130 -199.5t-150 -150t-184.5 -98.5t-221.5 -33q-89 0 -185 19.5t-183.5 51t-186.5 79.5t-181 96t-180 111.5t-171.5 114.5t-167.5 115t-156 105q-142 -27 -258 -27q-103 0 -185 15.5t-129 39.5t-71.5 50t-24.5 51zM180 35q0 -50 85.5 -91.5t232.5 -41.5 q110 0 223 30q-276 174 -422 174q-59 0 -89 -21t-30 -50z" />
<glyph unicode="R" horiz-adv-x="2256" d="M0 223q0 115 61.5 206t155.5 137t199 46q102 0 193.5 -36.5t153.5 -112t62 -174.5q0 -106 -73.5 -179t-192.5 -73q-91 1 -149 65q-39 44 -40 99q0 26 9 55q74 2 125 57t51 136q0 73 -52 110t-118 37q-114 0 -207.5 -107t-93.5 -262q0 -170 111.5 -280.5t271.5 -110.5 q194 0 319 135t164 398l107 696q10 65 40 118t73.5 88t92.5 61t105 40.5t102 21.5t91 9v2q-85 0 -187 31.5t-181 69t-180 69t-186 31.5q-99 0 -158 -40.5t-59 -119.5q0 -66 40 -97.5t95 -31.5q92 0 156 82q58 -26 88 -68t32 -87v-8q0 -41 -18 -83q-20 -46 -57 -82t-90 -59 t-111 -23q-120 0 -211.5 82.5t-91.5 212.5q0 144 107.5 242t271.5 98q87 0 193 -32t189 -70.5t186 -70.5t184 -32q32 0 48.5 15t16.5 36q0 29 -24 41q-9 4 -20 4q-20 0 -48 -14q-16 31 -16 59t16 52q34 48 94 49q46 0 79.5 -28t33.5 -83q0 -36 -23.5 -65t-47.5 -41.5 t-50 -20.5q76 13 109 13q504 0 504 -316q0 -51 -17 -97t-42.5 -82.5t-70.5 -70t-85 -57.5t-104 -48.5t-109.5 -39.5t-119 -33t-115 -27.5t-113.5 -24.5q-22 -5 -33 -7q65 11 110 17q46 6 102 10q39 3 70 4q14 0 26 -1q40 -2 86.5 -10.5t80.5 -26t70.5 -45t64 -66t53.5 -91.5 t47 -119q33 -107 57.5 -172.5t55 -124t64.5 -88.5t77 -41l-6 -6q-88 -18 -168 -18q-107 0 -188.5 18.5t-149.5 62.5t-113 121.5t-67 190.5q-33 168 -104 270.5t-166 108.5l-2 6l-2 4q93 36 160.5 81t108.5 93.5t64.5 111.5t32 125t8.5 144q0 107 -38.5 164t-114.5 57 q-66 0 -109.5 -64.5t-68.5 -222.5l-111 -704q-17 -108 -62 -197.5t-105.5 -151t-139 -109t-155.5 -75t-162 -44.5t-152.5 -23t-132.5 -6q-64 0 -128 16t-123.5 50t-105 81.5t-73 114.5t-27.5 145z" />
<glyph unicode="S" horiz-adv-x="1464" d="M0 205q0 172 119 289.5t297 117.5q102 0 193.5 -36.5t153.5 -112t62 -174.5q0 -106 -73.5 -179t-192.5 -73q-91 1 -149 65q-39 44 -40 99q0 26 9 55q74 2 125 57t51 136q0 73 -52 110t-118 37q-83 0 -152.5 -54t-109 -142t-39.5 -189q0 -72 20.5 -138.5t64 -125 t105.5 -102t150.5 -68.5t193.5 -25q123 0 227 34.5t171.5 91.5t105 128.5t37.5 147.5q0 77 -45 143t-117 115.5t-158.5 96.5t-173.5 96.5t-159 104t-117 130t-45 164.5q0 88 38.5 165.5t103.5 132t150 94t178 58.5t187 19q126 0 228.5 -33.5t168.5 -106.5t66 -174 q0 -112 -78.5 -186t-173.5 -74q-82 0 -138 55q-40 39 -40 95q0 22 6 47q60 12 92.5 56t32.5 103q0 97 -58 148t-144 51q-104 0 -188.5 -64.5t-84.5 -164.5q0 -50 26 -93t70.5 -76t101.5 -64t120.5 -62t127 -65t120.5 -78t101.5 -95t70.5 -122t26 -154q0 -137 -69 -263.5 t-184 -218.5t-273.5 -147t-329.5 -55q-145 0 -261.5 40t-188.5 107t-110 150.5t-38 175.5z" />
<glyph unicode="T" horiz-adv-x="1304" d="M0 1280q3 108 47.5 192t114 136t165 85.5t191.5 46.5t203 13q145 0 374.5 -34.5t447 -69.5t331.5 -35q77 0 133.5 17t108.5 65l8 -4q-58 -114 -123 -194t-134 -124t-137 -63t-147 -19q-99 0 -250 35q-96 -35 -135 -287l-117 -733q-12 -73 -12 -127q-1 -68 19 -103 q34 -63 161 -63l-2 -14h-837l2 14q53 0 92 8t66.5 32t44 46t30.5 71.5t20.5 86t18.5 111.5l94 612q11 74 54 134t100 97.5t128.5 64.5t132.5 39t120 17q-105 28 -254.5 83.5t-261.5 100t-242 79t-225 34.5q-106 0 -165 -40t-59 -120q0 -77 50 -119t123 -42q51 0 99 22t81 64 q119 -55 119 -164q0 -111 -81 -175.5t-192 -64.5q-75 0 -140 29.5t-112 97t-53 162.5z" />
<glyph unicode="U" horiz-adv-x="1982" d="M0 1284q0 144 107.5 242t271.5 98q87 0 192.5 -32t189 -70.5t186 -70.5t183.5 -32q32 0 49 15t17 36q0 29 -24 41q-9 4 -20 4q-20 0 -48 -14q-16 31 -16 59t16 52q34 48 94 49q42 0 76.5 -27t34.5 -73q0 -35 -16.5 -59.5t-41.5 -38.5t-57 -39t-62 -56t-56.5 -93.5 t-39.5 -148.5l-86 -548q-9 -58 -15 -102q-5 -45 -11 -106q-4 -48 -5 -87q1 -11 1 -21q2 -47 7.5 -99.5t22 -90t41.5 -69.5t64.5 -48t91.5 -16q191 0 328.5 149.5t177.5 398.5l55 338q9 56 14.5 95t11 93t5.5 91.5t-4 83t-14.5 76.5t-29.5 62.5t-46 50.5t-66 30.5t-88 11.5 l2 15h653l-2 -15q-50 0 -93.5 -12t-77.5 -31t-63.5 -51t-51 -64.5t-40.5 -80t-32 -88t-25.5 -98.5t-20.5 -101.5t-18 -106.5l-47 -299q-43 -271 -196.5 -424t-413.5 -153q-307 0 -447 144q-103 106 -103 305q0 70 13 151l88 557q12 77 53.5 137.5t94.5 95.5t120.5 58.5 t122.5 32.5t111 12v2q-85 0 -186.5 31.5t-180.5 69t-180 69t-186 31.5q-99 0 -158 -40.5t-59 -119.5q0 -66 40 -97.5t95 -31.5q92 0 156 82q58 -26 88 -68t32 -87v-8q0 -41 -18 -83q-20 -46 -57 -82t-90 -59t-111 -23q-120 0 -211.5 82.5t-91.5 212.5z" />
<glyph unicode="V" horiz-adv-x="1835" d="M0 1286q0 141 107.5 239.5t269.5 98.5q85 0 193 -32t193 -70.5t182.5 -70.5t164.5 -32q86 0 86 49q0 32 -24 44q-9 4 -20 4q-20 0 -48 -15q-16 31 -16 59t16 52q34 48 94 49q43 0 77 -27.5t34 -77.5q0 -25 -12 -46t-25 -31.5t-42.5 -29.5t-43.5 -30q-182 -145 -182 -420 q0 -106 27 -237.5t59 -231.5t59 -197.5t27 -144.5q0 -30 -8 -56t-19.5 -46.5t-37.5 -47.5t-48 -46t-64 -55l2 -3q234 157 421 351t291 384t104 339q0 75 -39 121.5t-107 46.5q-53 0 -98 -28t-66 -77q-89 6 -133.5 54t-44.5 130q0 112 75 183t179 71q55 0 106.5 -22.5 t93.5 -65t67.5 -114t25.5 -160.5q0 -144 -54.5 -297t-145.5 -288t-209.5 -262t-245 -227t-254.5 -175l-6 12q24 37 24 86q0 51 -30.5 118.5t-76.5 134.5t-100 151.5t-100 165t-76.5 179t-30.5 191.5q0 112 44 200t121 142.5t173 85.5t209 39v2q-85 0 -186.5 31.5t-180.5 69 t-180 69t-186 31.5q-99 0 -158 -40.5t-59 -119.5q0 -66 40 -97.5t95 -31.5q92 0 156 82q58 -26 88.5 -68t32.5 -87v-6q0 -42 -19 -85q-20 -46 -57 -82t-90.5 -59t-112.5 -23q-119 0 -210 83t-91 214z" />
<glyph unicode="W" horiz-adv-x="2400" d="M0 1286q0 141 107.5 239.5t269.5 98.5q85 0 193 -32t193 -70.5t182.5 -70.5t164.5 -32q86 0 86 49q0 32 -24 44q-9 4 -20 4q-20 0 -48 -15q-16 31 -16 59t16 52q34 48 94 49q43 0 77 -27.5t34 -77.5q0 -25 -12 -46t-25 -31.5t-42.5 -29.5t-43.5 -30q-185 -147 -185 -415 q0 -105 27.5 -235t60 -229.5t60 -199.5t27.5 -152q0 -30 -8 -56t-19.5 -46.5t-37.5 -47.5t-48 -46t-64 -55l2 -3q271 184 457 418q-39 83 -63 138.5t-52.5 135t-42.5 155t-14 147.5q0 90 23.5 162.5t62.5 116t85.5 66.5t94.5 23q88 0 149.5 -74.5t61.5 -211.5 q0 -162 -90 -353q16 -52 53 -154.5t54.5 -167t17.5 -116.5q0 -69 -50 -133t-151 -149l2 -3q232 156 414.5 351t280.5 384t98 339q0 75 -38.5 121.5t-106.5 46.5q-53 0 -98 -28t-66 -77q-89 6 -133.5 54t-44.5 130q0 112 75 183t179 71q118 0 205 -94t87 -268 q0 -144 -52.5 -297t-139.5 -288t-202.5 -261.5t-239.5 -227t-252 -175.5l-6 12q24 38 24 86q0 42 -18.5 102.5t-37.5 103.5t-59 130q-222 -275 -501 -434l-6 12q24 37 24 86q0 51 -30.5 118.5t-76.5 134.5t-100 151.5t-100 165t-76.5 179t-30.5 191.5q0 112 44 200 t121 142.5t173 85.5t209 39v2q-85 0 -186.5 31.5t-180.5 69t-180 69t-186 31.5q-99 0 -158 -40.5t-59 -119.5q0 -66 40 -97.5t95 -31.5q92 0 156 82q58 -26 88.5 -68t32.5 -87v-6q0 -42 -19 -85q-20 -46 -57 -82t-90.5 -59t-112.5 -23q-119 0 -210 83t-91 214zM1622 965 q0 -135 43 -275q76 175 76 314q0 57 -13.5 100t-44.5 43q-19 0 -32 -19t-18.5 -50t-8 -58t-2.5 -55z" />
<glyph unicode="X" horiz-adv-x="1970" d="M0 223q0 115 61.5 206t155.5 137t199 46q102 0 193.5 -36.5t153.5 -112t62 -174.5q0 -106 -73.5 -179t-192.5 -73q-91 1 -149 65q-39 44 -40 99q0 26 9 55q74 2 125 57t51 136q0 73 -52 110t-118 37q-114 0 -207.5 -107t-93.5 -262q0 -76 25 -145.5t72.5 -124.5 t123.5 -88t170 -33q226 0 382 169.5t222 451.5q-26 63 -78 192q-38 97 -58.5 146.5t-57.5 136.5t-62 133t-61.5 110t-67.5 96t-68.5 64t-76.5 40q-18 4 -37 4q-21 0 -43 -5l-6 6q68 42 163 67.5t179 25.5q141 0 236 -67.5t165 -203.5q36 -70 113 -254q27 115 68.5 211 t101.5 177.5t145.5 128t186.5 46.5q140 0 216.5 -81.5t76.5 -202.5q0 -143 -88 -248t-230 -105q-58 0 -107.5 23t-80 60t-42.5 83q-7 27 -8 54q0 19 4 38q9 45 46.5 87.5t99.5 68.5q39 -86 123 -86q66 0 102.5 39.5t36.5 95.5q0 64 -39.5 108t-128.5 44t-168 -48.5 t-137 -131.5t-99 -184.5t-63 -215.5q150 -365 215 -501q199 -414 376 -507q28 -15 56 -22l-6 -6q-51 -9 -143.5 -17t-146.5 -8q-91 0 -164.5 24t-131 72t-101 106.5t-87.5 142.5q-39 73 -106 227q-40 -154 -105.5 -271t-148 -189t-176 -108t-195.5 -36q-123 0 -229 48 t-174 143t-68 216z" />
<glyph unicode="Y" horiz-adv-x="1114" d="M0 1333q76 65 177.5 110.5t199.5 45.5q94 0 172 -39t131.5 -106.5t91 -158t54.5 -194.5q16 -101 16 -208v-7q-1 -111 -19 -221l414 737q248 437 504 437q141 0 218 -78t77 -201q0 -137 -88 -238.5t-226 -101.5q-109 0 -175 61.5t-66 149.5q0 61 35 117.5t114 77.5 q39 -86 127 -86q62 0 98.5 40t36.5 99q0 125 -153 125q-250 0 -479 -412l-357 -641l-43 -272q-15 -90 -20 -131q-3 -31 -3 -69q0 -13 1 -26q1 -54 20 -75.5t57.5 -37.5t102.5 -16l-2 -14h-840l2 14q64 0 107.5 16t69.5 37.5t45 75.5t27.5 94.5t23.5 131.5l30 206 q-25 196 -79 374t-134.5 299.5t-165.5 121.5q-39 0 -96 -47z" />
<glyph unicode="Z" horiz-adv-x="1382" d="M0 14q0 121 123 181q35 98 111.5 182t172.5 144.5t206 115.5t221 106.5t208.5 105t176 123.5t116.5 150q-70 -31 -180 -50t-214.5 -25.5t-215 -20t-192.5 -32.5t-134.5 -62.5t-52.5 -110.5q0 -37 17.5 -65t62.5 -56l-4 -6q-110 51 -182 167.5t-72 228.5q0 62 23 125 t65 115.5t108.5 86t145.5 33.5q77 0 159.5 -33.5t154.5 -81.5t142.5 -96t147 -81.5t143.5 -33.5q41 0 74 21.5t33 64.5q0 40 -44 58q-14 6 -29 5q-30 0 -62 -24q-26 49 -26 89q1 14 3 26q12 50 53 79.5t93 29.5q54 0 94.5 -35.5t40.5 -114.5q0 -123 -123 -186 q-31 -85 -105 -159t-169.5 -129t-206 -107t-223 -106t-211.5 -112.5t-180.5 -140t-121.5 -176.5q86 34 232.5 48t282 17t263 14.5t204.5 53.5t77 121q0 37 -17.5 65t-62.5 56l4 6q110 -51 182 -167t72 -228q0 -84 -38.5 -165t-119 -138.5t-184.5 -57.5q-65 0 -139.5 27.5 t-140 68.5t-138.5 89.5t-135.5 89.5t-131.5 68.5t-126 27.5q-43 0 -75.5 -19.5t-32.5 -62.5q0 -25 20 -42.5t52.5 -16.5t62.5 26q26 -49 26 -89q0 -13 -2 -25q-12 -50 -53.5 -79.5t-93.5 -29.5q-55 0 -95 35t-40 114z" />
<glyph unicode="[" horiz-adv-x="679" d="M133 -172l281 1776h499l-2 -15h-223l-276 -1747h223l-2 -14h-500z" />
<glyph unicode="\" horiz-adv-x="849" d="M256 1618h20l543 -1804h-20z" />
<glyph unicode="]" horiz-adv-x="679" d="M-6 -172l2 14h221l277 1747h-222l2 15h500l-280 -1776h-500z" />
<glyph unicode="^" horiz-adv-x="669" d="M221 1049l365 538l192 -538l-20 -11l-183 486l-337 -486z" />
<glyph unicode="_" horiz-adv-x="839" d="M-35 -225l4 20h840l-4 -20h-840z" />
<glyph unicode="`" horiz-adv-x="0" d="M231 1479q0 25 19 43t47 18q17 0 42.5 -17t65 -57t71 -74.5t92 -102.5t96.5 -107l-9 -13z" />
<glyph unicode="a" d="M82 365q0 81 23.5 167t66 166t104.5 151.5t134 125t160.5 84.5t179.5 31q53 0 116 -17t111 -35q49 -16 99 -26q19 -4 37 -4q30 0 60 10q47 16 89 63l-109 -635q-18 -100 -24 -186q-2 -25 -2 -50q1 -59 11 -112q14 -76 56 -92l-6 -6q-66 -14 -146 -14q-55 0 -100.5 9.5 t-86 32.5t-62.5 60q-21 38 -29 94q-2 15 -3 33q0 45 15 100l76 316l-8 2q-47 -187 -101 -315.5t-114.5 -200t-121.5 -101.5t-134 -30q-62 0 -112.5 21.5t-83 57.5t-54.5 85.5t-31.5 102.5t-9.5 112zM453 258q0 -70 17 -116t54 -46q60 0 124.5 93t113.5 234t76 294l22 125 q14 71 14 119q0 37 -8 59q-18 54 -92 53q-81 0 -157 -134t-120 -323t-44 -358z" />
<glyph unicode="b" horiz-adv-x="1208" d="M113 459l161 1020q5 32 -19 49q-14 10 -33 10q-15 0 -32 -6l-6 6q61 29 153.5 54.5t160.5 25.5q90 0 123 -40q22 -26 22 -80q0 -28 -6 -62l-197 -1203q-9 -60 -9 -103q0 -112 61 -112q64 0 134 92.5t122.5 226t87.5 286.5t36 270q0 147 -55 147q-64 0 -144 -105 t-136 -280l-17 7q41 127 88.5 215.5t100.5 137.5t107.5 70t119.5 21q146 0 224.5 -89t78.5 -255q0 -102 -24.5 -208t-77 -208.5t-126 -182t-180 -128.5t-229.5 -49q-153 0 -272 60q-118 59 -178 168q-44 81 -44 176q0 34 5 69z" />
<glyph unicode="c" horiz-adv-x="1132" d="M82 420q0 176 90 330t249 247t349 93q62 0 124 -11.5t125.5 -38t103.5 -79.5t40 -125q0 -91 -66 -160.5t-167 -69.5q-76 0 -124 46q-40 39 -40 105q0 14 2 29q60 16 92.5 59.5t32.5 94.5q0 56 -36.5 94.5t-102.5 38.5q-58 0 -107.5 -35.5t-81.5 -91t-55 -124t-33 -132.5 t-10 -119q0 -176 82 -268t211 -92q190 0 317 145l13 -6q-105 -176 -265 -270t-323 -94q-180 0 -300 113.5t-120 320.5z" />
<glyph unicode="d" horiz-adv-x="1257" d="M82 330q0 101 27 206.5t82.5 204.5t132 177t185 125t232.5 47q79 0 140 -19l-4 -6q-73 -3 -141 -63t-117.5 -153t-88 -207t-59 -228.5t-22.5 -214.5v-15q0 -56 14 -92q16 -40 47 -41q57 0 120 76.5t116.5 212.5t80.5 297l144 842q5 32 -19 49q-14 10 -33 10q-15 0 -32 -6 l-6 6q61 30 153 55t160 25q90 0 123 -40q22 -26 22 -80q0 -28 -6 -62l-159 -990q-25 -153 -26 -253q0 -161 66 -187l-6 -6q-66 -14 -145 -14q-55 0 -100.5 9.5t-86 32.5t-62.5 60.5t-30 93.5q-2 15 -2 33q0 45 15 100l61 316l-8 2q-41 -185 -92 -313t-110.5 -200 t-122.5 -103t-140 -31q-146 0 -224.5 89t-78.5 255z" />
<glyph unicode="e" horiz-adv-x="1132" d="M82 424q0 130 53.5 251.5t144 213t219.5 146.5t271 55q53 0 103 -5.5t104 -21t94 -40t66 -66.5t26 -97q0 -48 -21.5 -94t-73.5 -86t-128 -62q-63 -18 -154 -18h-40q-118 4 -263 43l2 8q17 -1 34 -1q78 0 142 20q77 24 121 67t66 94.5t22 108.5q0 60 -32.5 96.5 t-85.5 36.5q-75 0 -139.5 -71.5t-101 -174.5t-42.5 -209q-1 -22 -1 -43q0 -59 10 -113q14 -72 47.5 -129t94 -89.5t142.5 -32.5t165.5 33.5t149.5 111.5l13 -6q-100 -164 -255 -264t-329 -100q-189 0 -306.5 118t-117.5 320z" />
<glyph unicode="f" horiz-adv-x="632" d="M-242 -279q0 106 69 161t163 55q86 0 145 -55q50 -48 50 -126q0 -14 -1 -28h-12q-47 0 -75 -22q-31 -26 -31 -73q0 -35 19.5 -56t55.5 -21q64 0 93.5 49.5t29.5 126.5q0 47 -18.5 89.5t-43 74t-48.5 64t-36 76.5q-8 26 -8 55q0 18 3 38l147 926h-108l4 20h106 q13 78 21 120.5t25 107t34.5 100.5t47.5 80t67 66t90 37.5t119 15.5q135 0 215 -62t80 -162q0 -99 -65.5 -163t-180.5 -64q-59 0 -108.5 32.5t-68.5 83.5q-7 22 -7 45q0 32 14 68q14 -3 27 -3q36 0 64 22q38 30 38 82q0 96 -80 96q-69 0 -127.5 -63t-58.5 -144 q0 -48 21.5 -89t51 -67.5t58.5 -49t46.5 -45t12.5 -44.5h172l-4 -20h-139l-162 -1028q-16 -98 -48.5 -187t-83.5 -167.5t-128.5 -125.5t-169.5 -47q-129 0 -203 61t-74 160z" />
<glyph unicode="g" d="M43 -238q0 86 60.5 142.5t148.5 56.5q70 0 121 -46q44 -40 44 -103q0 -10 -1 -21q-54 -6 -84.5 -39t-30.5 -76q0 -49 39.5 -83.5t118.5 -34.5q58 0 100 20.5t69.5 64t44.5 95t32 129.5l147 764l-8 2q-47 -187 -101 -315.5t-114.5 -200t-121.5 -101.5t-134 -30 q-62 0 -112.5 21.5t-83 57.5t-54.5 85.5t-31.5 102.5t-9.5 112q0 81 23.5 167t66 166t104.5 151.5t134 125t160.5 84.5t179.5 31q53 0 116 -17t111 -34.5t99 -26.5q19 -4 37 -4q31 0 60 10q47 15 89 63l-168 -1067q-35 -219 -199 -347t-446 -128q-72 0 -136.5 9.5t-129 32 t-102.5 69t-38 112.5zM453 258q0 -70 17 -116t54 -46q60 0 124.5 93t113.5 234t76 294l22 125q14 71 14 119q0 36 -8 59q-18 53 -92 53q-81 0 -157 -134t-120 -323t-44 -358z" />
<glyph unicode="h" horiz-adv-x="1220" d="M73 196q2 48 13 109l193 1174q5 32 -19 49q-14 10 -33 10q-15 0 -32 -6l-7 6q61 29 153.5 54.5t160.5 25.5q90 0 122 -40q20 -25 21 -73q0 -30 -8 -69l-191 -992l9 -2q169 648 526 648q53 0 93.5 -12.5t65.5 -32.5t40.5 -50t22 -59.5t6.5 -67.5t-3.5 -67t-9.5 -64 l-49 -291q-18 -100 -24 -186q-2 -25 -2 -50q1 -59 11 -112q14 -76 56 -92l-6 -6q-72 -14 -134 -16h-15q-55 0 -109 14q-61 16 -101 50.5t-58 102.5q-10 37 -10 83q0 38 7 81l82 508q8 47 8 81q0 18 -2 33q-7 42 -41 42q-56 0 -119.5 -71.5t-119 -195t-93.5 -274.5 q-55 -222 -55 -331q0 -85 33 -101l-6 -6q-57 -8 -98.5 -12t-84 -4t-71 7.5t-54.5 22t-40 39t-22 59.5q-6 28 -6 65v19z" />
<glyph unicode="i" horiz-adv-x="573" d="M100 305l107 645q5 32 -19 50q-14 10 -33 10q-14 0 -32 -6l-6 6q61 30 153 55t160 25q88 0 120 -40q20 -26 21 -79q0 -28 -6 -64l-78 -471q-10 -56 -14 -81t-12.5 -84t-8.5 -93q0 -11 -1 -23q0 -23 1 -51q1 -42 11.5 -66t28.5 -32l-7 -6q-82 -16 -149 -16 q-245 0 -245 227q0 43 9 94zM297 1176q21 35 33 90q7 34 8 70q0 22 -3 44q-7 60 -36 97q36 66 99.5 106.5t127.5 40.5q67 0 118.5 -41t51.5 -121q0 -121 -119 -210q-111 -83 -256 -83h-20z" />
<glyph unicode="j" horiz-adv-x="573" d="M-281 -279q0 106 69 161t163 55q86 0 145 -55q50 -48 50 -126q0 -14 -1 -28h-12q-47 0 -75 -22q-31 -26 -31 -73q0 -35 19.5 -56t55.5 -21q64 0 93.5 49.5t29.5 126.5q0 47 -18.5 89.5t-43 74t-48.5 64t-37 76.5q-7 26 -7 55q0 18 3 38l133 821q5 32 -19 50 q-14 10 -33 10q-15 0 -32 -6l-6 6q61 30 153 55t160 25q89 0 120 -40q21 -27 21 -79q0 -28 -6 -64l-139 -880q-16 -98 -48.5 -187t-83.5 -167.5t-128.5 -125.5t-169.5 -47q-129 0 -203 61t-74 160zM297 1176q22 35 33 90q8 34 8 70q0 22 -3 44q-7 60 -36 97 q36 66 99.5 106.5t127.5 40.5q67 0 118.5 -41t51.5 -121q0 -121 -119 -210q-111 -83 -256 -83h-20z" />
<glyph unicode="k" horiz-adv-x="1193" d="M76 148q-1 12 -1 25q0 55 11 132l193 1174q5 32 -19 49q-14 10 -33 10q-15 0 -32 -6l-7 6q61 29 153.5 54.5t160.5 25.5q90 0 122 -40q20 -25 21 -73q0 -30 -8 -69l-191 -992l9 -2q34 131 75 235t85.5 173t89.5 117.5t94 74.5t92.5 37t91.5 11q117 0 180.5 -56.5 t63.5 -138.5q0 -45 -21.5 -84.5t-54.5 -68.5t-84 -54.5t-99.5 -43t-112.5 -34t-111 -26.5t-106.5 -22t-88.5 -19q82 12 149 12q14 0 28 -1q76 -3 129 -14t90 -36.5t58 -56t35 -72.5q58 -183 112.5 -262t125.5 -107l-6 -6q-157 -29 -240 -29q-68 0 -124 13.5t-108.5 45 t-92 91.5t-60.5 145q-7 28 -15.5 65t-14 59t-12.5 48.5t-13 41.5t-14.5 29t-18.5 20.5t-22 7.5l-3 4q58 22 110.5 53t103.5 75.5t81.5 104.5t30.5 127q0 40 -12 59t-39 19q-82 0 -177 -154t-153 -387q-55 -222 -56 -331q0 -85 34 -101l-6 -6q-106 -16 -173 -16 q-63 0 -103 14.5t-67 51t-30 98.5z" />
<glyph unicode="l" horiz-adv-x="550" d="M74 206q-1 13 -2 27q0 33 8 72l188 1174q5 32 -19 49q-14 10 -33 10q-15 0 -32 -6l-6 6q61 29 153.5 54.5t160.5 25.5q90 0 121 -40q20 -26 20 -78q0 -28 -6 -64l-160 -1000q-40 -231 -40 -325v-9q3 -89 36 -106l-6 -6q-27 -4 -53.5 -6t-59.5 -1.5t-62.5 5.5t-60.5 15 t-55 27t-45.5 41.5t-32 57.5t-14.5 77z" />
<glyph unicode="m" horiz-adv-x="1865" d="M94 148v16q0 57 12 141l115 645q5 32 -19 50q-14 10 -33 10q-14 0 -32 -6l-6 6q61 30 153 55t160 25q91 0 124 -41q20 -25 20 -73q0 -30 -8 -69l-113 -463l8 -2q40 153 88 268.5t96 186.5t104 115.5t107.5 61t110.5 16.5q62 0 106.5 -16.5t67.5 -45.5t35.5 -63t12.5 -77 t-5 -77.5t-14 -73.5l-72 -293l8 -2q40 153 88 268.5t96 186.5t104 115.5t107.5 61t110.5 16.5q53 0 93.5 -12.5t65.5 -32.5t40.5 -50t22 -59.5t6.5 -67.5t-3.5 -67t-9.5 -64l-49 -291q-18 -100 -24 -186q-2 -25 -1 -50q-1 -59 9 -112q14 -76 57 -92l-6 -6q-78 -16 -150 -16 q-68 0 -120.5 16t-92.5 52t-56 103q-8 34 -8 75q0 39 7 85l82 508q8 47 8 81q0 18 -2 33q-7 42 -41 42q-56 0 -114.5 -72.5t-108 -193t-88.5 -275.5q-56 -224 -56 -333q0 -83 33 -99l-6 -6q-106 -16 -172 -16q-63 0 -103.5 15t-67 53t-26.5 102t17 161l82 508q8 47 8 81 q0 18 -2 33q-7 42 -41 42q-56 0 -114.5 -72.5t-108 -193t-88.5 -275.5q-56 -224 -55 -333q0 -83 32 -99l-6 -6q-106 -16 -172 -16q-63 0 -104.5 14.5t-69 51t-29.5 98.5z" />
<glyph unicode="n" d="M94 148v16q0 57 12 141l115 645q5 32 -19 50q-14 10 -33 10q-14 0 -32 -6l-6 6q61 30 153 55t160 25q91 0 124 -41q20 -25 20 -73q0 -30 -8 -69l-113 -463l8 -2q169 648 526 648q62 0 106.5 -15.5t69 -45t38 -62.5t14.5 -77v-21q0 -31 -2 -56q-3 -34 -10 -76l-50 -291 q-18 -100 -24 -186q-2 -25 -1 -50q0 -59 10 -112q14 -76 56 -92l-6 -6q-78 -16 -149 -16q-68 0 -120.5 16t-93.5 52t-57 103q-8 34 -7 75q0 39 7 85l82 508q8 47 8 81q0 18 -2 33q-7 42 -41 42q-85 0 -179 -155t-152 -386q-56 -224 -55 -333q0 -83 32 -99l-6 -6 q-106 -16 -172 -16q-63 0 -104.5 14.5t-69 51t-29.5 98.5z" />
<glyph unicode="o" horiz-adv-x="1239" d="M82 449q0 172 90 320t244.5 234.5t335.5 86.5q219 0 358 -129t139 -332q0 -125 -54 -243.5t-144 -206t-214.5 -140.5t-258.5 -53q-219 0 -357.5 130t-138.5 333zM457 213q0 -211 123 -211q65 8 117.5 77.5t84 167t53 216t29.5 217.5t8 180q0 100 -27.5 156.5t-94.5 56.5 q-64 0 -116.5 -69.5t-84 -171.5t-53.5 -225t-30.5 -222.5t-8.5 -171.5z" />
<glyph unicode="p" horiz-adv-x="1236" d="M32 -244q-1 13 -1 27q0 33 8 72l182 1095q5 32 -19 50q-14 10 -33 10q-15 0 -32 -6l-6 6q61 30 153 55t160 25q91 0 125 -41q20 -24 20 -70q0 -31 -9 -72l-103 -465l8 -2q34 156 76 273t86.5 191.5t98 120t105.5 63.5t114 18q146 0 224.5 -89t78.5 -255 q0 -101 -28.5 -207t-86.5 -206t-137.5 -179t-189.5 -126.5t-234 -47.5q-81 0 -139 18l4 6q91 4 175.5 95t141.5 223.5t91.5 281t35.5 273.5q0 147 -61 147q-88 0 -183 -168t-149 -436l-92 -450q-18 -88 -28 -174q-7 -54 -7 -106q0 -32 3 -63q6 -82 38 -98l-6 -6 q-27 -4 -53.5 -6t-59.5 -1.5t-62.5 6t-60.5 15.5t-55 27t-45.5 41.5t-32 58t-15.5 76.5z" />
<glyph unicode="q" d="M82 365q0 81 23.5 167t66 166t104.5 151.5t134 125t160.5 84.5t179.5 31q53 0 116 -17t111 -34.5t99 -26.5q19 -4 37 -4q31 0 60 10q47 15 89 63l-179 -1087q-25 -152 -25 -252q0 -163 66 -188l-6 -7q-78 -16 -147 -16q-53 0 -97 10t-83 33t-60.5 61.5t-30.5 94.5 q-3 21 -3 44q0 40 10 89l145 768l-8 2q-47 -187 -101 -315.5t-114.5 -200t-121.5 -101.5t-134 -30q-62 0 -112.5 21.5t-83 57.5t-54.5 85.5t-31.5 102.5t-9.5 112zM453 258q0 -70 17 -116t54 -46q60 0 124.5 93t113.5 234t76 294l22 125q14 71 14 119q0 36 -8 59 q-18 53 -92 53q-81 0 -157 -134t-120 -323t-44 -358z" />
<glyph unicode="r" horiz-adv-x="1114" d="M94 194v14q0 43 8 97l115 645q5 32 -19 50q-14 10 -33 10q-14 0 -32 -6l-6 6q61 30 153 55t160 25q92 0 124 -41q20 -25 19 -72q0 -30 -8 -70l-112 -465l8 -2q68 258 141 405.5t153 204t189 56.5q129 0 196 -69t67 -169q0 -110 -77.5 -192t-207.5 -82q-76 0 -126 46 q-43 40 -43 111q0 11 1 23q59 0 105 49t46 119q0 46 -21.5 72t-57.5 26q-93 0 -183.5 -165t-158.5 -439q-55 -223 -55 -331q0 -83 32 -99l-6 -6q-59 -16 -123 -16q-37 0 -70 6.5t-65 21t-54.5 38.5t-39.5 60t-19 84z" />
<glyph unicode="s" horiz-adv-x="1095" d="M31 201q0 79 54 137.5t136 58.5q66 1 111 -39q38 -34 38 -90q0 -10 -1 -20q-44 -15 -70.5 -52.5t-26.5 -82.5q0 -53 43 -81t148 -28q44 0 90 6t100.5 21t88.5 48.5t34 80.5q0 36 -27.5 67t-72.5 53.5t-102.5 47.5t-117 47t-117 53.5t-102.5 67t-72.5 87t-27.5 113.5 q0 82 35 149.5t92.5 112t133 75t153.5 44t158 13.5q70 0 133 -9t123 -29.5t95.5 -60.5t35.5 -96q0 -71 -48.5 -123.5t-121.5 -52.5q-56 1 -94 37q-32 31 -32 81q0 9 1 19q35 13 59.5 43.5t24.5 67.5q0 51 -54 77.5t-147 26.5q-52 0 -101.5 -13.5t-89.5 -51.5t-40 -93 q0 -41 34.5 -74t90 -56.5t122.5 -46.5t134 -51t122.5 -63.5t90 -90.5t34.5 -125q0 -86 -39 -157.5t-103 -119t-147 -80.5t-169 -48t-172 -15q-61 0 -115.5 5t-112 20t-98.5 38t-67.5 62t-26.5 90z" />
<glyph unicode="t" horiz-adv-x="593" d="M111 305l116 750h-92l4 20q228 0 348 88t154 301h18l-65 -389h143l-4 -20h-141l-103 -619q-25 -152 -25 -252q0 -162 66 -188l-6 -6q-58 -8 -100 -8q-52 0 -98 7.5t-93 29.5t-77 57q-30 36 -44 94q-7 30 -7 64q0 33 6 71z" />
<glyph unicode="u" horiz-adv-x="1236" d="M92 246q2 41 10 92l101 612q5 32 -19 50q-14 10 -33 10q-14 0 -32 -6l-6 6q61 30 153 55t160 25q88 0 120 -40q20 -26 21 -79q0 -28 -6 -64l-106 -655q-6 -35 -5 -62q0 -94 70 -94q166 0 301 541q56 227 56 338q0 85 -33 102l6 6q48 3 80 4.5t70.5 2t62.5 -3t52 -10.5 t44 -19t32 -29.5t23 -41.5q6 -24 10 -56q2 -17 2 -37q0 -17 -2 -35q-4 -40 -12 -90l-59 -322q-19 -99 -25 -186q-2 -25 -2 -49q0 -59 11 -113q15 -76 57 -92l-6 -6q-66 -14 -146 -14q-55 0 -100.5 9.5t-86 32.5t-62.5 60q-21 38 -29 94q-2 15 -3 33q0 45 15 100l76 316l-8 2 q-51 -195 -103 -322t-112.5 -198.5t-124.5 -99t-150 -27.5q-81 0 -136.5 24t-81.5 58.5t-36 85.5q-8 42 -8 78v14z" />
<glyph unicode="v" horiz-adv-x="1058" d="M100 287l107 663q5 32 -19 50q-14 10 -33 10q-14 0 -32 -6l-6 6q61 30 153 55t160 25q88 0 120 -40q20 -26 21 -79q0 -28 -6 -64l-94 -594q-16 -89 -16 -145q-1 -26 3 -46q12 -60 74 -61q68 0 161 58.5t175.5 146t140.5 198t58 204.5q0 67 -33 107t-92 40q-47 0 -86 -24 t-57 -66q-76 4 -116 46.5t-40 109.5q0 101 65.5 163t155.5 62q103 0 177.5 -82.5t74.5 -237.5q0 -104 -32 -207t-87 -190t-130.5 -162.5t-161 -128t-180 -82.5t-185.5 -30q-140 0 -202 75q-44 54 -45 147q0 37 7 79z" />
<glyph unicode="w" horiz-adv-x="1716" d="M92 246q2 41 10 92l101 612q5 32 -19 50q-14 10 -33 10q-14 0 -32 -6l-6 6q61 30 153 55t160 25q88 0 120 -40q20 -26 21 -79q0 -28 -6 -64l-106 -655q-6 -35 -5 -62q0 -94 70 -94q45 0 85.5 39.5t77 119t66 167t64.5 215.5q24 85 40 171q16 83 16 164q-1 3 -1 5 q0 84 -32 100l6 6q74 5 134 5q54 0 96 -4q90 -8 125 -82q19 -41 19 -109q0 -54 -12 -125l-76 -455q-17 -89 -17 -145q0 -26 4 -46q12 -60 75 -61q68 0 161 58.5t175 146t140 198t58 204.5q0 67 -33 107t-92 40q-47 0 -86 -24t-57 -66q-76 4 -116 46.5t-40 109.5 q0 100 66 162.5t156 62.5q103 0 177.5 -82.5t74.5 -237.5t-69 -304t-177.5 -256.5t-248 -173.5t-275.5 -66q-142 0 -208 77q-43 51 -44 132q0 42 12 92l80 344l-8 2q-41 -157 -82.5 -268.5t-83.5 -185.5t-92.5 -116.5t-103 -59.5t-120.5 -17q-81 0 -136.5 24t-81.5 58.5 t-36 85.5q-8 42 -8 78v14z" />
<glyph unicode="x" horiz-adv-x="1224" d="M-20 209q0 90 58 142t134 52q74 0 125 -50q46 -45 46 -110q0 -8 -1 -16q-60 -3 -95.5 -36t-35.5 -87q0 -79 84 -79q58 0 99.5 41t59.5 106q18 66 26 146q3 37 4 73q0 43 -5 86l-117 336q-65 189 -158 189q-22 0 -46 -11l-6 6q150 93 311 93q117 0 182 -57t111 -177 l65 -172q22 406 285 406q40 0 78 -9.5t73.5 -30t57.5 -60.5t22 -93q0 -87 -52.5 -137.5t-123.5 -50.5q-67 0 -113 46q-40 41 -41 98q0 8 1 15q54 3 86 33.5t32 79.5q0 72 -73 72q-70 0 -120.5 -66t-71.5 -163q-16 -75 -16 -156q0 -23 1 -47l67 -175q92 -237 157 -332 t149 -108l-7 -6q-57 -10 -106 -16q-45 -5 -99 -6h-11q-60 0 -110.5 10.5t-104.5 34.5t-98 62.5t-83.5 99.5t-67.5 141l-24 69q-2 -47 -4 -79.5t-9 -78.5t-18 -78t-31.5 -67t-48 -56.5t-68.5 -35.5t-93 -14q-105 0 -180.5 57.5t-75.5 165.5z" />
<glyph unicode="y" horiz-adv-x="1220" d="M43 -238q0 86 60.5 142.5t148.5 56.5q70 0 121 -46q44 -40 44 -103q0 -10 -1 -21q-54 -6 -84.5 -39t-30.5 -76q0 -49 39.5 -83.5t118.5 -34.5q58 0 100 20.5t69.5 64t44.5 95t32 129.5l147 764l-8 2q-51 -195 -103 -322t-112.5 -198.5t-124.5 -99t-150 -27.5 q-81 0 -136.5 24t-81.5 58.5t-36 85.5q-8 42 -8 78v14q2 41 10 92l101 612q5 32 -19 50q-14 10 -33 10q-15 0 -32 -6l-6 6q61 30 153 55t160 25q89 0 120 -40q21 -27 21 -79q0 -28 -6 -64l-106 -655q-6 -35 -6 -62q0 -94 71 -94q166 0 301 541q56 227 56 338q0 85 -33 102 l6 6q54 4 88 5q26 2 55 2h21q41 -1 65.5 -6t52.5 -15t42.5 -26.5t28 -41t17.5 -57.5q2 -23 2 -52v-25q-2 -44 -10 -99l-118 -754q-35 -219 -199 -347t-446 -128q-72 0 -136.5 9.5t-129 32t-102.5 69t-38 112.5z" />
<glyph unicode="z" horiz-adv-x="1142" d="M20 66q0 91 103 145q30 69 93 127t140.5 99t165.5 77.5t175.5 71.5t163.5 72t136 87t86 109q-64 -28 -171 -45t-204 -26.5t-188 -24.5t-146 -49t-55 -91q0 -37 43 -61l-4 -6q-90 31 -146 105t-56 161q0 47 17 94t50 87.5t88.5 66t124.5 25.5q80 0 172 -35.5t159.5 -77.5 t140.5 -77.5t118 -35.5q32 0 55 15.5t23 46.5q0 30 -26 42q-9 5 -20 4q-19 0 -44 -14q-21 31 -21 59q1 9 3 17q8 34 39 56t69 22q40 0 70 -25t30 -77q0 -95 -98 -146q-21 -63 -76.5 -116.5t-129.5 -92t-160 -74t-175.5 -71.5t-169 -74.5t-146.5 -93.5t-102 -119 q67 28 179 44.5t213 25.5t196 24t152 49t57 91q0 37 -43 61l4 6q90 -31 146.5 -105t56.5 -161q0 -47 -17.5 -94t-50.5 -87.5t-88.5 -65.5t-124.5 -25q-65 0 -141 23t-143 56t-129.5 66.5t-119.5 56.5t-95 23q-32 0 -55 -15t-23 -46q0 -29 26 -42q10 -5 21 -5q19 0 43 14 q21 -31 21 -59q0 -8 -2 -16q-8 -34 -39.5 -56.5t-69.5 -22.5q-40 0 -70.5 25.5t-30.5 77.5z" />
<glyph unicode="{" horiz-adv-x="722" d="M213 141q0 57 21 112.5t50.5 99.5t59.5 86t51 85.5t21 83.5q0 52 -34.5 76.5t-86.5 24.5h-53l2 16h53q68 0 114 34.5t46 110.5q0 47 -38 158t-38 180q0 28 5.5 59t22 71.5t43 78t72 75t104 66.5t144.5 49t189 25l-3 -14q-275 -8 -327 -344q-11 -69 -12.5 -166t-6.5 -131 q-20 -122 -104 -190t-172 -68v-4q78 0 138.5 -57t60.5 -160q0 -41 -14 -91.5t-30.5 -92.5t-30.5 -107t-14 -131q0 -119 55 -188t171 -72l-2 -15q-109 5 -193 31t-133 61t-79.5 81t-41 86t-10.5 81z" />
<glyph unicode="|" horiz-adv-x="495" d="M209 -186l285 1802h20l-285 -1802h-20z" />
<glyph unicode="}" horiz-adv-x="722" d="M-10 -199l2 15q275 8 327 344q11 69 12.5 166t6.5 131q20 122 104 190t172 68v4q-78 0 -138 57t-60 160q0 50 22 117t44 146t22 159q0 119 -55 188t-173 72l5 14q109 -5 193 -31t132.5 -61t79 -81t41 -86t10.5 -81q0 -57 -21 -112.5t-50.5 -99.5t-59 -86t-50.5 -85.5 t-21 -83.5q0 -52 34 -76t86 -24h54l-2 -16h-54q-68 0 -113.5 -35t-45.5 -111q0 -48 37.5 -159t37.5 -179q0 -28 -5.5 -58.5t-22 -71.5t-42.5 -78t-71.5 -75t-104 -67t-144.5 -49t-189 -25z" />
<glyph unicode="~" horiz-adv-x="894" d="M147 621q56 90 108 128.5t112 38.5q53 0 106.5 -28t90.5 -61t89.5 -61t104.5 -28q51 0 95.5 31t92.5 107l17 -7q-54 -88 -103 -119.5t-102 -31.5q-55 0 -110 28t-93 61t-90.5 61t-104.5 28q-50 0 -95.5 -32.5t-98.5 -121.5z" />
<glyph unicode="&#xa1;" horiz-adv-x="606" d="M23 -117q0 66 30.5 137t76.5 137t93.5 133.5t89.5 149.5t58 160h16q-10 -83 8.5 -174t46 -158.5t52 -152t24.5 -150.5q0 -111 -72 -203.5t-229 -191.5q-194 150 -194 313zM233 866q0 91 68 157.5t156 66.5q70 0 115.5 -49.5t45.5 -120.5q0 -90 -68 -157t-155 -67 q-71 0 -116.5 49t-45.5 121z" />
<glyph unicode="&#xa2;" horiz-adv-x="1097" d="M164 621q0 133 47 250.5t127.5 203t192.5 139t239 62.5l41 262h20l-40 -262q41 0 81 -4t88 -13t88 -27.5t74 -44.5t53 -67t19 -92q0 -108 -62.5 -166.5t-148.5 -58.5q-69 0 -109 44t-30 128q38 19 63 59t25 88q0 64 -41 104t-105 34l-122 -781q74 -53 167 -53 q80 0 164 37t144 115l10 -7q-221 -371 -533 -395l-41 -260h-20l41 258h-25q-180 0 -293.5 122.5t-113.5 324.5zM532 788q0 -199 113 -294l121 761q-57 -15 -104 -71t-74 -128.5t-41.5 -143t-14.5 -124.5z" />
<glyph unicode="&#xa3;" horiz-adv-x="1288" d="M47 102q0 63 23 108t66 72t96.5 40.5t123.5 17.5q-6 71 -27.5 215.5t-27.5 196.5h-108l2 20h104q-12 88 -12 168q0 95 34 178.5t91 142.5t131.5 102t156.5 64t164 21q56 0 113 -6t122.5 -23.5t114.5 -44.5t82 -73.5t33 -106.5q0 -98 -68 -159.5t-151 -61.5 q-72 0 -116.5 44.5t-35.5 127.5q41 19 66 58.5t25 82.5q0 65 -51.5 105.5t-123.5 40.5q-80 0 -120 -54.5t-58 -167.5q-5 -29 -24 -180.5t-37 -257.5h332l-2 -20h-334q-40 -242 -101 -414q57 -4 221.5 -19.5t235.5 -15.5q149 0 229.5 75.5t120.5 235.5h17 q-61 -307 -199 -467.5t-336 -160.5q-43 0 -83.5 9.5t-82 30.5t-68 37t-73 48t-66.5 45q-102 -170 -241 -170q-75 0 -116.5 31.5t-41.5 84.5zM61 106q0 -45 36 -74.5t93 -29.5q155 0 168 203q-68 33 -133 33q-69 0 -116.5 -37t-47.5 -95z" />
<glyph unicode="&#xa4;" horiz-adv-x="1304" d="M207 147l155 138q-106 136 -76 328.5t179 328.5l-111 139l17 15l112 -140q100 88 220.5 119t231.5 0t185 -119l156 140l12 -15l-158 -139q109 -136 79.5 -328.5t-181.5 -328.5l113 -138l-17 -14l-112 137q-101 -87 -222 -117.5t-232 0t-183 117.5l-156 -137zM308 614.5 q-30 -189.5 77 -321.5q70 -87 179 -117.5t227.5 0t216.5 117.5q149 132 179 321.5t-77 321.5q-70 87 -179 117.5t-227.5 0t-216.5 -117.5q-149 -132 -179 -321.5z" />
<glyph unicode="&#xa5;" horiz-adv-x="1662" d="M236 1419l2 15h827l-2 -15q-43 0 -72.5 -12.5t-45 -29t-20.5 -47t-5 -53t9 -61t14.5 -56.5t17.5 -54l141 -442l133 198q36 54 64 98t58.5 97t48.5 94.5t32 84.5t11 74.5t-16.5 57t-48 38.5t-86.5 13l2 15h580l-2 -15q-54 0 -108 -20t-108 -61t-102.5 -88t-104.5 -117 t-100 -131t-102 -146l-143 -211l-16 -96h280l-4 -21h-278l-25 -157h279l-5 -21h-278q-18 -113 -20 -188t39.5 -111.5t142.5 -36.5l-2 -14h-820l3 14q39 0 70 4.5t55.5 16.5t42 25t32 37.5t23.5 46t18 59t14 67.5t13 80h-279l4 21h279l24 157h-278l4 21h277l6 33l-222 587 q-28 73 -49 115t-50.5 75.5t-65.5 46.5t-88 13z" />
<glyph unicode="&#xa6;" horiz-adv-x="495" d="M209 -186l131 829h20l-131 -829h-20zM362 786l132 830h20l-131 -830h-21z" />
<glyph unicode="&#xa7;" horiz-adv-x="1212" d="M199 303q0 163 138 276.5t343 131.5q-48 21 -74.5 33t-70.5 35t-69.5 41t-57 46t-48.5 56t-29 64.5t-12 76.5q0 83 35 150t90.5 110t128.5 72t144 41t141 12q63 0 121.5 -9t115 -28.5t90.5 -58.5t34 -92q0 -72 -45 -114t-105 -42q-50 0 -80 32.5t-24 92.5q29 12 48 40 t19 58q0 44 -49.5 74.5t-124.5 30.5q-95 0 -160 -46t-65 -114q0 -35 26 -65t69 -50.5t98 -43.5t112 -43t112 -50t98 -64.5t69 -86t26 -113.5q0 -164 -137 -277.5t-344 -132.5q46 -20 73.5 -32.5t70.5 -34.5t69 -40.5t57.5 -46t48.5 -55.5t29 -64.5t12 -76.5q0 -83 -35 -150 t-91 -110t-129 -72t-144.5 -41t-142.5 -12q-62 0 -120 9t-114.5 28.5t-90.5 58.5t-34 92q0 72 46 114t106 42q49 0 78 -32.5t22 -92.5q-26 -12 -44.5 -40.5t-18.5 -57.5q0 -43 49 -74t123 -31q96 0 160.5 45.5t64.5 114.5q0 40 -33.5 72.5t-87 56.5t-118.5 47.5t-130 53.5 t-118.5 66t-87 92.5t-33.5 127.5zM506 543q0 -24 12 -46t30 -38.5t50 -35t58.5 -31.5t70.5 -32q91 9 150 52.5t59 103.5q0 54 -56 93.5t-167 86.5q-89 -8 -148 -51.5t-59 -101.5z" />
<glyph unicode="&#xa8;" horiz-adv-x="0" d="M137 1276q0 49 38.5 86t86.5 37q39 0 64.5 -27.5t25.5 -66.5q0 -52 -37.5 -88.5t-87.5 -36.5q-38 0 -64 27.5t-26 68.5zM543 1276q0 49 38.5 86t86.5 37q39 0 64.5 -27.5t25.5 -66.5q0 -52 -37.5 -88.5t-87.5 -36.5q-38 0 -64 27.5t-26 68.5z" />
<glyph unicode="&#xa9;" horiz-adv-x="1589" d="M203 623q0 160 69 310.5t181.5 259.5t262.5 175t306 66q169 0 304.5 -83t210.5 -224.5t75 -313.5q0 -161 -69 -312t-181 -260t-261.5 -175t-305.5 -66q-169 0 -305 83t-211.5 225.5t-75.5 314.5zM223 623q0 -167 73 -304.5t204.5 -218t294.5 -80.5q152 0 298 64 t255 170.5t176 254t67 304.5q0 124 -42.5 234.5t-117 191t-181 127.5t-228.5 47q-152 0 -298.5 -64t-256 -170t-177 -252.5t-67.5 -303.5zM420 657q0 112 51 213t135 171t192 110.5t220 40.5q97 0 201 -29l102 27l-39 -373h-14q3 64 -7 123t-35.5 114t-77.5 88.5t-124 33.5 q-241 0 -315 -459q-69 -459 170 -459q58 0 111 22.5t91.5 58.5t70 84t52 95.5t33.5 97.5h14l-80 -372l-92 26q-94 -28 -211 -28q-191 0 -319.5 116.5t-128.5 298.5z" />
<glyph unicode="&#xaa;" horiz-adv-x="917" d="M156 948q0 86 37 176t98 164t150 121t184 47q43 0 99.5 -17t94.5 -30.5t83 -6.5t81 48l-78 -444q-45 -278 29 -308l-4 -4q-41 -8 -78.5 -10t-76.5 3t-67 20t-49 41.5t-24.5 67.5t8.5 97l53 222l-6 2q-33 -130 -71 -220.5t-80 -140t-85 -71t-94 -21.5q-55 0 -96 22.5 t-63.5 61t-33.5 83.5t-11 97zM416 874q0 -112 51 -112q61 0 123.5 132t93.5 302l14 86q17 88 5.5 125t-62.5 37q-57 0 -110.5 -93.5t-84 -225.5t-30.5 -251z" />
<glyph unicode="&#xab;" horiz-adv-x="899" d="M184 545l455 403l8 -8l-325 -395l198 -395l-8 -9zM487 545l453 403l10 -8l-325 -395l198 -395l-10 -9z" />
<glyph unicode="&#xac;" horiz-adv-x="958" d="M154 655l4 21h858l-62 -379h-18l57 358h-839z" />
<glyph unicode="&#xad;" horiz-adv-x="745" d="M154 655l4 21h645l-4 -21h-645z" />
<glyph unicode="&#xae;" horiz-adv-x="1589" d="M203 623q0 160 69 310.5t181.5 259.5t262.5 175t306 66q169 0 304.5 -83t210.5 -224.5t75 -313.5q0 -161 -69 -312t-181 -260t-261.5 -175t-305.5 -66q-169 0 -305 83t-211.5 225.5t-75.5 314.5zM223 623q0 -167 73 -304.5t204.5 -218t294.5 -80.5q152 0 298 64 t255 170.5t176 254t67 304.5q0 124 -42.5 234.5t-117 191t-181 127.5t-228.5 47q-152 0 -298.5 -64t-256 -170t-177 -252.5t-67.5 -303.5zM358 248l2 16q27 0 47.5 5t35 11.5t26 23t18.5 29.5t14 42t10.5 49.5t10.5 62.5l72 453q8 49 11.5 73.5t5 55.5t-4 45t-17.5 28 t-33 18.5t-52 4.5l2 15h354q50 0 83 -0.5t83 -4.5t83 -11.5t71 -21.5t61 -34t38 -51t15 -70q0 -62 -26.5 -109.5t-65.5 -75t-93.5 -45.5t-101 -25t-98.5 -9v-4q51 0 91 -6t68.5 -14.5t51 -27.5t36.5 -35t26.5 -47t20 -54.5t18.5 -65.5l59 -225q-78 -4 -115 -4q-35 0 -57 0.5 t-43.5 5.5t-33 9t-24 18t-18 24.5t-13.5 37.5t-12 48l-12 63q-3 14 -8 49t-8.5 59t-13.5 57t-22 53t-33 34.5t-48 14.5h-22l-35 -226q-24 -119 -14 -171t79 -52l-2 -16h-467zM799 729h35q109 0 156.5 70.5t47.5 204.5q0 157 -135 157h-35z" />
<glyph unicode="&#xaf;" horiz-adv-x="0" d="M117 1249l4 21h651l-4 -21h-651z" />
<glyph unicode="&#xb0;" horiz-adv-x="587" d="M193 1133q0 126 95.5 220.5t219.5 94.5q100 0 164.5 -69.5t64.5 -172.5q0 -126 -96.5 -219.5t-220.5 -93.5q-100 0 -163.5 68.5t-63.5 171.5zM213 1133q0 -94 58 -157t149 -63q117 0 207 87t90 206q0 94 -59 157.5t-150 63.5q-117 0 -206 -87.5t-89 -206.5z" />
<glyph unicode="&#xb1;" horiz-adv-x="1073" d="M98 0l4 20h875l-4 -20h-875zM195 604l2 21h428l69 440h21l-70 -440h426l-2 -21h-426l-70 -440h-20l68 440h-426z" />
<glyph unicode="&#xb2;" horiz-adv-x="806" d="M102 502q5 69 30 130.5t50 100t79 86t81.5 66.5t93.5 62l27 18q235 149 235 342q0 54 -25 87t-77 33q-66 0 -109 -40t-43 -101q0 -54 39 -74q-13 -61 -54.5 -94t-92.5 -33q-47 0 -80 31t-33 88q0 49 19.5 88.5t52.5 65t72 43.5t83.5 26.5t80.5 12.5t69 4q358 0 358 -203 q0 -57 -21.5 -104t-56 -79.5t-86 -59.5t-101.5 -44t-113 -32q-7 -2 -40.5 -10t-44 -11t-40 -11t-42.5 -13t-38 -14t-40 -17.5t-35 -20t-36 -25t-31 -28.5q61 47 148 47q62 0 188.5 -40t196.5 -40q110 0 135 78l14 -2q-17 -54 -33 -94.5t-41.5 -86t-54 -74.5t-70.5 -48.5 t-91 -19.5q-37 0 -98 14.5t-116.5 32.5t-117.5 34t-100.5 19t-65.5 -12q-9 -39 -12 -78h-13z" />
<glyph unicode="&#xb3;" horiz-adv-x="854" d="M141 682q0 79 47.5 123.5t110.5 44.5q52 0 83.5 -32.5t25.5 -94.5q-30 -13 -49 -41.5t-19 -67.5q0 -47 33.5 -76.5t87.5 -29.5q93 0 148 85.5t55 190.5q0 41 -10 79.5t-30 71t-55 52t-80 19.5h-40l4 18h34q100 0 159 84.5t59 196.5q0 122 -101 122q-62 0 -98.5 -39.5 t-36.5 -84.5q0 -51 33 -68q-11 -54 -48 -82.5t-83 -28.5q-45 0 -75 26t-30 77q0 52 24 91.5t60 62.5t84 38t91 20t87 5q349 0 349 -178q0 -228 -408 -248v-2q55 0 105 -5t104.5 -20.5t93.5 -40t64.5 -66t25.5 -96.5q0 -143 -127.5 -219.5t-365.5 -76.5q-28 0 -58 3t-67 10 t-69 21.5t-59 34t-43 51t-16 70.5z" />
<glyph unicode="&#xb4;" horiz-adv-x="0" d="M258 1182q56 45 133 108t123 100.5t96 76t81 56t48 17.5q22 0 34.5 -13.5t12.5 -35.5l-522 -322z" />
<glyph unicode="&#xb5;" horiz-adv-x="1351" d="M78 -461l203 1276q11 69 10 114t-40.5 62.5t-129.5 5.5v15l569 78l-119 -750q-4 -25 -5.5 -44t-1 -43.5t6.5 -42t16.5 -33.5t30.5 -24t48 -8q85 0 188 80l94 590q11 69 12.5 115t-29.5 65.5t-104 8.5v14l531 72l-131 -830q-11 -69 -10 -115.5t37 -64.5t116 -2v-15 q-122 -32 -207.5 -48t-148 -19t-97 9.5t-53 38.5t-17 68t10.5 97q-162 -124 -272.5 -173.5t-206.5 -49.5q-168 0 -191 141l-92 -588h-18z" />
<glyph unicode="&#xb6;" horiz-adv-x="1107" d="M201 682q0 84 27.5 151t74 111.5t111 74.5t135 43t149.5 13h545l-4 -20h-217l-240 -1516h-20l239 1516h-299l-239 -1516h-21l136 852q-160 -19 -268.5 62.5t-108.5 228.5z" />
<glyph unicode="&#xb7;" horiz-adv-x="540" d="M219 866q0 90 68 157t155 67q70 0 116 -49.5t46 -120.5q0 -91 -68.5 -157.5t-154.5 -66.5q-70 0 -116 49.5t-46 120.5z" />
<glyph unicode="&#xb8;" horiz-adv-x="0" d="M-203 -352l19 12q41 -47 118 -47q75 0 117.5 34.5t42.5 82.5q0 46 -44 82.5t-124 40.5q51 89 66 139l20 2q-20 -66 -57 -125q76 -9 118 -47t42 -88q0 -58 -49 -100t-134 -42q-43 0 -80 16t-55 40z" />
<glyph unicode="&#xb9;" horiz-adv-x="665" d="M139 502l2 14q26 0 47 2.5t37 11t27.5 16t21 25t15 30t12 40t9.5 45.5t9 55l70 437q-74 -77 -160 -127l-2 12q101 58 186 161t138 210h143l-110 -693q-6 -35 -8 -49.5t-5 -41t-2.5 -37.5t2 -29.5t7.5 -25.5t14.5 -17.5t22.5 -14.5t32 -7t41 -3l-2 -14h-547z" />
<glyph unicode="&#xba;" horiz-adv-x="868" d="M195 1010q0 121 65 222.5t172 158.5t230 57q154 0 252 -94t98 -240q0 -121 -65 -222.5t-173 -158.5t-233 -57q-153 0 -249.5 94t-96.5 240zM455 879q0 -50 7.5 -90t28 -68.5t52.5 -28.5q95 0 151 145.5t56 403.5q0 80 -21.5 135.5t-69.5 55.5q-92 0 -148 -148.5 t-56 -404.5z" />
<glyph unicode="&#xbb;" horiz-adv-x="899" d="M123 150l328 395l-203 395l12 8l326 -403l-455 -404zM426 150l326 395l-201 395l12 8l326 -403l-455 -404z" />
<glyph unicode="&#xbc;" horiz-adv-x="2121" d="M160 502l2 14q26 0 47 2.5t37 11t27.5 16t21 25t15 30t12 40t9.5 45.5t9 55l70 437q-74 -77 -160 -127l-2 12q101 58 185.5 161t137.5 210h144l-111 -693q-6 -38 -8.5 -55.5t-5.5 -45t-1 -39.5t5.5 -30t12.5 -25.5t22.5 -16t33.5 -11t46 -2.5l-2 -14h-547zM473 0 l1243 1434h21l-1243 -1434h-21zM1260 262l2 14q49 13 121 55t140.5 95.5t117.5 117t49 113.5q0 38 -22.5 58t-55.5 20q-76 0 -111 -61q-53 3 -79.5 33.5t-26.5 76.5q0 62 44.5 110t123.5 48t115 -59t36 -156q0 -112 -45 -243.5t-94 -204.5h104l66 415q90 98 164 238h141 l-104 -653h139l-2 -17h-139l-5 -22q-14 -78 -16 -128t25 -74t94 -24l-2 -14h-543l2 14q40 0 67.5 9t44 23t28 43.5t17.5 58.5t15 79q1 9 2 13l4 22h-417z" />
<glyph unicode="&#xbd;" horiz-adv-x="2078" d="M160 502l2 14q26 0 47 2.5t37 11t27.5 16t21 25t15 30t12 40t9.5 45.5t9 55l70 437q-74 -77 -160 -127l-2 12q101 58 185.5 161t137.5 210h144l-111 -693q-6 -38 -8.5 -55.5t-5.5 -45t-1 -39.5t5.5 -30t12.5 -25.5t22.5 -16t33.5 -11t46 -2.5l-2 -14h-547zM473 0 l1243 1434h21l-1243 -1434h-21zM1235 0q5 69 29 130t51.5 101.5t78 85t82.5 67t93 62.5q17 11 26 17q236 150 236 342q0 54 -26 87.5t-76 33.5q-66 0 -109 -40t-43 -102q0 -53 39 -73q-13 -61 -55 -94t-93 -33q-47 0 -79.5 30.5t-32.5 87.5q0 49 19.5 88.5t52.5 65t72 43.5 t83.5 26.5t80.5 12.5t69 4q358 0 358 -203q0 -56 -22 -103.5t-56.5 -80t-86 -59.5t-101.5 -44t-113 -32q-6 -2 -40.5 -10t-43.5 -10.5t-39.5 -11t-42.5 -13t-38 -14t-40.5 -18t-34.5 -20t-36 -25t-31 -28.5q61 47 147 47q62 0 188.5 -39.5t196.5 -39.5q112 0 136 77l14 -2 q-17 -54 -33 -94.5t-41.5 -86t-54.5 -74.5t-71 -48.5t-91 -19.5q-37 0 -97.5 14.5t-116.5 32.5t-117.5 34t-100 19t-65.5 -12q-11 -45 -13 -78h-12z" />
<glyph unicode="&#xbe;" horiz-adv-x="2191" d="M170 682q0 79 47.5 123.5t110.5 44.5q52 0 83 -32.5t25 -94.5q-29 -13 -48 -41.5t-19 -67.5q0 -47 33 -76.5t87 -29.5q93 0 148 85.5t55 190.5q0 57 -16.5 105t-57.5 82.5t-100 34.5h-41l4 18h35q100 0 158.5 84.5t58.5 196.5q0 122 -100 122q-62 0 -98.5 -39.5 t-36.5 -84.5q0 -51 32 -68q-11 -54 -48 -82.5t-83 -28.5q-45 0 -74.5 26t-29.5 77q0 52 24 91.5t60 62.5t84 38t91 20t87 5q348 0 348 -178q0 -228 -407 -248v-2q55 0 105 -5t104.5 -20.5t93.5 -40t64.5 -66t25.5 -96.5q0 -142 -128 -219t-366 -77q-35 0 -71 4t-81 16.5 t-79 32.5t-57 55.5t-23 81.5zM584 0l1243 1434h20l-1243 -1434h-20zM1368 262l2 14q49 13 121 55t140.5 95.5t117.5 117t49 113.5q0 38 -22.5 58t-55.5 20q-75 0 -110 -61q-53 3 -80 33.5t-27 76.5q0 62 44.5 110t123.5 48q80 0 116 -59.5t36 -155.5q0 -112 -45 -243.5 t-95 -204.5h105l65 415q90 98 164 238h142l-105 -653h139l-2 -17h-139l-4 -22q-10 -56 -13 -84.5t-2 -61t14 -47t37.5 -24t65.5 -9.5l-2 -14h-542l2 14q40 0 67.5 9t44 23t28 43.5t17.5 58.5t15 79q1 9 2 13l4 22h-418z" />
<glyph unicode="&#xbf;" horiz-adv-x="1171" d="M31 -61q0 77 37 141.5t96 109.5t130 83.5t142.5 71t130.5 64t96 69.5t37 81q0 36 -18 68q8 10 14 10q8 0 15.5 -19t7.5 -47q0 -50 -28.5 -102t-68.5 -104.5t-80.5 -115t-69 -157.5t-28.5 -207q0 -115 40 -178t114 -63q70 0 128 61.5t58 159.5q0 84 -55 117 q21 95 83.5 145.5t141.5 50.5q74 0 124 -47t50 -135q0 -72 -28 -131.5t-76.5 -98.5t-106.5 -67.5t-125.5 -43.5t-126 -21.5t-114.5 -6.5q-67 0 -135 9.5t-138 32.5t-124 57.5t-88.5 89.5t-34.5 123zM528 866q0 90 69.5 157t156.5 67q71 0 116 -49t45 -121q0 -90 -67.5 -157 t-155.5 -67q-70 0 -117 49.5t-47 120.5z" />
<glyph unicode="&#xc0;" horiz-adv-x="2291" d="M0 225q0 115 61.5 206t155.5 137t199 46q102 0 193.5 -36.5t153.5 -112t62 -174.5q0 -106 -73.5 -179t-192.5 -73q-92 0 -149.5 64.5t-30.5 154.5q74 2 125 57t51 136q0 73 -52 110t-118 37q-114 0 -207.5 -107t-93.5 -262q0 -175 107 -284t288 -109q101 0 197 43.5 t179 118t165.5 186t153 233.5t146 276.5t139.5 299t138 315.5l84 195l353 -1138q61 -193 119 -272t159 -79l-2 -14h-850l2 14q237 0 144 332l-43 154h-316q-87 -163 -172 -283.5t-181 -213t-202 -140t-221 -47.5q-132 0 -237 45.5t-169.5 139.5t-64.5 224zM1257 520h299 l-110 391q-97 -218 -189 -391zM1290 1796q0 25 19.5 43.5t46.5 18.5t75 -30.5t146 -103.5t162 -116l-8 -13z" />
<glyph unicode="&#xc1;" horiz-adv-x="2291" d="M0 225q0 115 61.5 206t155.5 137t199 46q102 0 193.5 -36.5t153.5 -112t62 -174.5q0 -106 -73.5 -179t-192.5 -73q-92 0 -149.5 64.5t-30.5 154.5q74 2 125 57t51 136q0 73 -52 110t-118 37q-114 0 -207.5 -107t-93.5 -262q0 -175 107 -284t288 -109q101 0 197 43.5 t179 118t165.5 186t153 233.5t146 276.5t139.5 299t138 315.5l84 195l353 -1138q61 -193 119 -272t159 -79l-2 -14h-850l2 14q237 0 144 332l-43 154h-316q-87 -163 -172 -283.5t-181 -213t-202 -140t-221 -47.5q-132 0 -237 45.5t-169.5 139.5t-64.5 224zM1257 520h299 l-110 391q-97 -218 -189 -391zM1638 1608q81 45 200.5 117t178 102.5t84.5 30.5q21 0 34 -14t13 -36l-503 -213z" />
<glyph unicode="&#xc2;" horiz-adv-x="2291" d="M0 225q0 115 61.5 206t155.5 137t199 46q102 0 193.5 -36.5t153.5 -112t62 -174.5q0 -106 -73.5 -179t-192.5 -73q-92 0 -149.5 64.5t-30.5 154.5q74 2 125 57t51 136q0 73 -52 110t-118 37q-114 0 -207.5 -107t-93.5 -262q0 -175 107 -284t288 -109q101 0 197 43.5 t179 118t165.5 186t153 233.5t146 276.5t139.5 299t138 315.5l84 195l353 -1138q61 -193 119 -272t159 -79l-2 -14h-850l2 14q237 0 144 332l-43 154h-316q-87 -163 -172 -283.5t-181 -213t-202 -140t-221 -47.5q-132 0 -237 45.5t-169.5 139.5t-64.5 224zM1257 520h299 l-110 391q-97 -218 -189 -391zM1380 1577l355 246l276 -246l-12 -10l-283 137l-327 -137z" />
<glyph unicode="&#xc3;" horiz-adv-x="2291" d="M0 225q0 115 61.5 206t155.5 137t199 46q102 0 193.5 -36.5t153.5 -112t62 -174.5q0 -106 -73.5 -179t-192.5 -73q-92 0 -149.5 64.5t-30.5 154.5q74 2 125 57t51 136q0 73 -52 110t-118 37q-114 0 -207.5 -107t-93.5 -262q0 -175 107 -284t288 -109q101 0 197 43.5 t179 118t165.5 186t153 233.5t146 276.5t139.5 299t138 315.5l84 195l353 -1138q61 -193 119 -272t159 -79l-2 -14h-850l2 14q237 0 144 332l-43 154h-316q-87 -163 -172 -283.5t-181 -213t-202 -140t-221 -47.5q-132 0 -237 45.5t-169.5 139.5t-64.5 224zM1257 520h299 l-110 391q-97 -218 -189 -391zM1305 1638q58 94 102.5 131t103.5 37q53 0 106.5 -28t91 -61t90 -61t104.5 -28q50 0 88.5 29.5t87.5 107.5l16 -6q-55 -89 -98 -120t-94 -31q-55 0 -110 28t-93 61t-90.5 61t-104.5 28q-47 0 -87.5 -31.5t-96.5 -122.5z" />
<glyph unicode="&#xc4;" horiz-adv-x="2291" d="M0 225q0 115 61.5 206t155.5 137t199 46q102 0 193.5 -36.5t153.5 -112t62 -174.5q0 -106 -73.5 -179t-192.5 -73q-92 0 -149.5 64.5t-30.5 154.5q74 2 125 57t51 136q0 73 -52 110t-118 37q-114 0 -207.5 -107t-93.5 -262q0 -175 107 -284t288 -109q101 0 197 43.5 t179 118t165.5 186t153 233.5t146 276.5t139.5 299t138 315.5l84 195l353 -1138q61 -193 119 -272t159 -79l-2 -14h-850l2 14q237 0 144 332l-43 154h-316q-87 -163 -172 -283.5t-181 -213t-202 -140t-221 -47.5q-132 0 -237 45.5t-169.5 139.5t-64.5 224zM1257 520h299 l-110 391q-97 -218 -189 -391zM1405 1688q0 49 38.5 85.5t86.5 36.5q39 0 64.5 -27.5t25.5 -66.5q0 -52 -37.5 -88.5t-87.5 -36.5q-38 0 -64 28t-26 69zM1810 1688q0 49 38.5 85.5t86.5 36.5q39 0 64.5 -27.5t25.5 -66.5q0 -52 -37 -88.5t-87 -36.5q-38 0 -64.5 28t-26.5 69 z" />
<glyph unicode="&#xc5;" horiz-adv-x="2291" d="M0 225q0 115 61.5 206t155.5 137t199 46q102 0 193.5 -36.5t153.5 -112t62 -174.5q0 -106 -73.5 -179t-192.5 -73q-92 0 -149.5 64.5t-30.5 154.5q74 2 125 57t51 136q0 73 -52 110t-118 37q-114 0 -207.5 -107t-93.5 -262q0 -175 107 -284t288 -109q101 0 197 43.5 t179 118t165.5 186t153 233.5t146 276.5t139.5 299t138 315.5l84 195l353 -1138q61 -193 119 -272t159 -79l-2 -14h-850l2 14q237 0 144 332l-43 154h-316q-87 -163 -172 -283.5t-181 -213t-202 -140t-221 -47.5q-132 0 -237 45.5t-169.5 139.5t-64.5 224zM1257 520h299 l-110 391q-97 -218 -189 -391zM1516 1743q0 90 72.5 155.5t168.5 65.5q77 0 128.5 -49.5t51.5 -122.5q0 -91 -73 -157t-168 -66q-79 0 -129.5 50t-50.5 124zM1536 1743q0 -65 45 -109.5t115 -44.5q87 0 154 60.5t67 142.5q0 64 -46 108t-114 44q-89 0 -155 -59.5t-66 -141.5 z" />
<glyph unicode="&#xc6;" horiz-adv-x="2377" d="M10 0l2 14q49 0 106 22t108 52.5t115.5 85.5t111 99t112.5 116t102 113t97 112l551 646q41 59 115 103t160 66.5t164 33t149 10.5q130 0 234.5 -34t169.5 -105.5t65 -170.5q0 -115 -78 -189.5t-174 -74.5q-83 0 -145 60t-40 147q62 13 102 55t40 115q0 79 -47.5 128.5 t-122.5 49.5q-83 0 -149 -62.5t-98 -147t-32 -165.5q0 -114 66 -200t166 -86h55l-4 -17h-33q-104 0 -196.5 -56t-154 -144.5t-97 -197.5t-35.5 -216q0 -406 334 -406q102 0 194.5 33t159.5 88t116.5 124.5t74 143.5t24.5 144q0 108 -68 181t-196 73q-78 0 -129.5 -51 t-51.5 -134q0 -67 41.5 -110t106.5 -45q10 -90 -58.5 -154.5t-160.5 -64.5q-106 0 -167 59t-61 150q0 80 45 150.5t115.5 116.5t154.5 72.5t165 26.5q168 0 256 -84.5t88 -212.5q0 -73 -28 -146.5t-87.5 -142.5t-142.5 -122.5t-202 -86t-257 -32.5q-131 0 -239.5 29 t-183.5 78.5t-126.5 116t-75.5 140.5t-24 154q0 138 75 250h-393q-360 -449 -121 -483q21 -3 45 -3l-2 -14h-606zM709 520h393q89 116 255.5 184.5t405.5 71.5l2 4q-232 4 -363.5 96t-131.5 236q0 41 8 68l-490 -568z" />
<glyph unicode="&#xc7;" horiz-adv-x="1464" d="M102 475q0 134 31 266.5t88.5 252.5t146 223t197 178t247.5 118t292 43q126 0 228.5 -33.5t168.5 -105.5t66 -172q0 -114 -78 -188t-174 -74q-83 0 -145 60t-40 147q64 15 103 57t39 113q0 83 -49 130.5t-125 47.5q-79 0 -156.5 -56.5t-140.5 -151.5t-117.5 -220.5 t-91.5 -262t-57.5 -278t-20.5 -266.5q0 -55 6 -105.5t20 -104.5t40.5 -98t64 -79.5t93.5 -55.5t126 -20q93 0 183 35t162 99t116.5 163t44.5 217q0 75 -22 130.5t-59 85t-78 43.5t-87 14q-78 0 -129 -51t-51 -134q0 -67 41.5 -110t106.5 -45q10 -90 -59 -154.5t-161 -64.5 q-106 0 -166.5 58.5t-60.5 149.5q0 65 29 123.5t78 102t111 76t129.5 49t131.5 16.5q147 0 236.5 -71.5t89.5 -217.5q0 -110 -41 -206.5t-119 -171t-200.5 -117.5t-274.5 -43h-10q-18 -56 -53 -117q76 -9 117.5 -47t41.5 -88q0 -58 -48.5 -100t-133.5 -42q-43 0 -80 16 t-55 40l18 12q41 -47 119 -47q75 0 117.5 34.5t42.5 82.5q0 46 -44 82.5t-124 40.5q49 88 63 135q-134 3 -247.5 41.5t-193 101t-135 145.5t-82 176.5t-26.5 192.5z" />
<glyph unicode="&#xc8;" horiz-adv-x="1447" d="M82 250q0 82 28.5 158t89 142.5t147.5 116t212 79t275 30.5l2 4q-232 4 -364 96t-132 236q0 82 46 148t115.5 104.5t158.5 64t166 35t147 9.5q130 0 234.5 -34t169.5 -105.5t65 -170.5q0 -115 -78 -189.5t-174 -74.5q-83 0 -144.5 60t-39.5 147q62 13 101.5 55t39.5 115 q0 79 -47.5 128.5t-122.5 49.5q-83 0 -149 -62.5t-98 -147t-32 -165.5q0 -114 66 -200t166 -86h55l-4 -17h-33q-104 0 -196.5 -56t-154 -144.5t-97 -197.5t-35.5 -216q0 -406 334 -406q102 0 194.5 33t159.5 88t116.5 124.5t74 143.5t24.5 144q0 108 -68 181t-196 73 q-78 0 -129 -51t-51 -134q0 -67 41 -110t106 -45q10 -90 -58.5 -154.5t-160.5 -64.5q-106 0 -166.5 59t-60.5 150q0 80 44.5 150.5t115 116.5t154.5 72.5t165 26.5q168 0 256 -84.5t88 -212.5q0 -73 -28 -146.5t-87.5 -142.5t-142.5 -122.5t-202 -86t-257 -32.5 q-131 0 -239.5 29t-183.5 78.5t-126.5 116t-75.5 140.5t-24 154zM580 1767q0 25 19 43.5t46 18.5t75 -30.5t146 -103.5t162 -116l-8 -12z" />
<glyph unicode="&#xc9;" horiz-adv-x="1447" d="M82 250q0 82 28.5 158t89 142.5t147.5 116t212 79t275 30.5l2 4q-232 4 -364 96t-132 236q0 82 46 148t115.5 104.5t158.5 64t166 35t147 9.5q130 0 234.5 -34t169.5 -105.5t65 -170.5q0 -115 -78 -189.5t-174 -74.5q-83 0 -144.5 60t-39.5 147q62 13 101.5 55t39.5 115 q0 79 -47.5 128.5t-122.5 49.5q-83 0 -149 -62.5t-98 -147t-32 -165.5q0 -114 66 -200t166 -86h55l-4 -17h-33q-104 0 -196.5 -56t-154 -144.5t-97 -197.5t-35.5 -216q0 -406 334 -406q102 0 194.5 33t159.5 88t116.5 124.5t74 143.5t24.5 144q0 108 -68 181t-196 73 q-78 0 -129 -51t-51 -134q0 -67 41 -110t106 -45q10 -90 -58.5 -154.5t-160.5 -64.5q-106 0 -166.5 59t-60.5 150q0 80 44.5 150.5t115 116.5t154.5 72.5t165 26.5q168 0 256 -84.5t88 -212.5q0 -73 -28 -146.5t-87.5 -142.5t-142.5 -122.5t-202 -86t-257 -32.5 q-131 0 -239.5 29t-183.5 78.5t-126.5 116t-75.5 140.5t-24 154zM928 1579q81 45 200.5 117t178 102.5t84.5 30.5q22 0 34.5 -13.5t12.5 -35.5l-504 -213z" />
<glyph unicode="&#xca;" horiz-adv-x="1447" d="M82 250q0 82 28.5 158t89 142.5t147.5 116t212 79t275 30.5l2 4q-232 4 -364 96t-132 236q0 82 46 148t115.5 104.5t158.5 64t166 35t147 9.5q130 0 234.5 -34t169.5 -105.5t65 -170.5q0 -115 -78 -189.5t-174 -74.5q-83 0 -144.5 60t-39.5 147q62 13 101.5 55t39.5 115 q0 79 -47.5 128.5t-122.5 49.5q-83 0 -149 -62.5t-98 -147t-32 -165.5q0 -114 66 -200t166 -86h55l-4 -17h-33q-104 0 -196.5 -56t-154 -144.5t-97 -197.5t-35.5 -216q0 -406 334 -406q102 0 194.5 33t159.5 88t116.5 124.5t74 143.5t24.5 144q0 108 -68 181t-196 73 q-78 0 -129 -51t-51 -134q0 -67 41 -110t106 -45q10 -90 -58.5 -154.5t-160.5 -64.5q-106 0 -166.5 59t-60.5 150q0 80 44.5 150.5t115 116.5t154.5 72.5t165 26.5q168 0 256 -84.5t88 -212.5q0 -73 -28 -146.5t-87.5 -142.5t-142.5 -122.5t-202 -86t-257 -32.5 q-131 0 -239.5 29t-183.5 78.5t-126.5 116t-75.5 140.5t-24 154zM670 1548l354 246l276 -246l-12 -10l-282 137l-328 -137z" />
<glyph unicode="&#xcb;" horiz-adv-x="1447" d="M82 250q0 82 28.5 158t89 142.5t147.5 116t212 79t275 30.5l2 4q-232 4 -364 96t-132 236q0 82 46 148t115.5 104.5t158.5 64t166 35t147 9.5q130 0 234.5 -34t169.5 -105.5t65 -170.5q0 -115 -78 -189.5t-174 -74.5q-83 0 -144.5 60t-39.5 147q62 13 101.5 55t39.5 115 q0 79 -47.5 128.5t-122.5 49.5q-83 0 -149 -62.5t-98 -147t-32 -165.5q0 -114 66 -200t166 -86h55l-4 -17h-33q-104 0 -196.5 -56t-154 -144.5t-97 -197.5t-35.5 -216q0 -406 334 -406q102 0 194.5 33t159.5 88t116.5 124.5t74 143.5t24.5 144q0 108 -68 181t-196 73 q-78 0 -129 -51t-51 -134q0 -67 41 -110t106 -45q10 -90 -58.5 -154.5t-160.5 -64.5q-106 0 -166.5 59t-60.5 150q0 80 44.5 150.5t115 116.5t154.5 72.5t165 26.5q168 0 256 -84.5t88 -212.5q0 -73 -28 -146.5t-87.5 -142.5t-142.5 -122.5t-202 -86t-257 -32.5 q-131 0 -239.5 29t-183.5 78.5t-126.5 116t-75.5 140.5t-24 154zM694 1659q0 49 38.5 86t86.5 37q39 0 64.5 -27.5t25.5 -66.5q0 -52 -37.5 -88.5t-87.5 -36.5q-38 0 -64 27.5t-26 68.5zM1100 1659q0 49 38.5 86t86.5 37q39 0 64.5 -27.5t25.5 -66.5q0 -52 -37.5 -88.5 t-87.5 -36.5q-38 0 -64 27.5t-26 68.5z" />
<glyph unicode="&#xcc;" horiz-adv-x="1134" d="M0 1284q0 144 107.5 242t271.5 98q87 0 192.5 -32t189 -70.5t186 -70.5t183.5 -32q32 0 49 15t17 36q0 29 -24.5 41t-67.5 -10q-33 63 0.5 111.5t93.5 48.5q42 0 76.5 -27t34.5 -73q0 -35 -16.5 -59.5t-41.5 -38.5t-57 -39t-62 -56t-56.5 -93.5t-39.5 -148.5l-129 -819 q-27 -167 7.5 -230t160.5 -63l-2 -14h-837l2 14q53 0 92 8t66.5 32t44 46t30.5 71.5t20.5 86t18.5 111.5l106 698q12 77 53 137.5t94 95.5t121 58.5t123 32.5t111 12v2q-85 0 -186.5 31.5t-180.5 69t-180 69t-186 31.5q-99 0 -158 -40.5t-59 -119.5q0 -66 40 -97.5t95 -31.5 q92 0 156 82q58 -26 88 -68t32 -87t-18 -91t-57 -82t-90 -59t-111 -23q-120 0 -211.5 82.5t-91.5 212.5zM514 1872q0 25 19 43t47 18q27 0 75 -30.5t146 -103.5t162 -116l-9 -12z" />
<glyph unicode="&#xcd;" horiz-adv-x="1134" d="M0 1284q0 144 107.5 242t271.5 98q87 0 192.5 -32t189 -70.5t186 -70.5t183.5 -32q32 0 49 15t17 36q0 29 -24.5 41t-67.5 -10q-33 63 0.5 111.5t93.5 48.5q42 0 76.5 -27t34.5 -73q0 -35 -16.5 -59.5t-41.5 -38.5t-57 -39t-62 -56t-56.5 -93.5t-39.5 -148.5l-129 -819 q-27 -167 7.5 -230t160.5 -63l-2 -14h-837l2 14q53 0 92 8t66.5 32t44 46t30.5 71.5t20.5 86t18.5 111.5l106 698q12 77 53 137.5t94 95.5t121 58.5t123 32.5t111 12v2q-85 0 -186.5 31.5t-180.5 69t-180 69t-186 31.5q-99 0 -158 -40.5t-59 -119.5q0 -66 40 -97.5t95 -31.5 q92 0 156 82q58 -26 88 -68t32 -87t-18 -91t-57 -82t-90 -59t-111 -23q-120 0 -211.5 82.5t-91.5 212.5zM862 1683q81 45 200.5 117t178 102.5t84.5 30.5q22 0 34.5 -13.5t12.5 -35.5l-504 -213z" />
<glyph unicode="&#xce;" horiz-adv-x="1134" d="M0 1284q0 144 107.5 242t271.5 98q87 0 192.5 -32t189 -70.5t186 -70.5t183.5 -32q32 0 49 15t17 36q0 29 -24.5 41t-67.5 -10q-30 62 -2 107.5t84 50.5l-246 121l-328 -138l-8 11l354 245l273 -241q33 -10 55.5 -35t22.5 -61q0 -35 -16.5 -59.5t-41.5 -38.5t-57 -39 t-62 -56t-56.5 -93.5t-39.5 -148.5l-129 -819q-27 -167 7.5 -230t160.5 -63l-2 -14h-837l2 14q53 0 92 8t66.5 32t44 46t30.5 71.5t20.5 86t18.5 111.5l106 698q12 77 53 137.5t94 95.5t121 58.5t123 32.5t111 12v2q-85 0 -186.5 31.5t-180.5 69t-180 69t-186 31.5 q-99 0 -158 -40.5t-59 -119.5q0 -66 40 -97.5t95 -31.5q92 0 156 82q58 -26 88 -68t32 -87t-18 -91t-57 -82t-90 -59t-111 -23q-120 0 -211.5 82.5t-91.5 212.5z" />
<glyph unicode="&#xcf;" horiz-adv-x="1134" d="M0 1284q0 144 107.5 242t271.5 98q87 0 192.5 -32t189 -70.5t186 -70.5t183.5 -32q32 0 49 15t17 36q0 29 -24.5 41t-67.5 -10q-33 63 0.5 111.5t93.5 48.5q42 0 76.5 -27t34.5 -73q0 -35 -16.5 -59.5t-41.5 -38.5t-57 -39t-62 -56t-56.5 -93.5t-39.5 -148.5l-129 -819 q-27 -167 7.5 -230t160.5 -63l-2 -14h-837l2 14q53 0 92 8t66.5 32t44 46t30.5 71.5t20.5 86t18.5 111.5l106 698q12 77 53 137.5t94 95.5t121 58.5t123 32.5t111 12v2q-85 0 -186.5 31.5t-180.5 69t-180 69t-186 31.5q-99 0 -158 -40.5t-59 -119.5q0 -66 40 -97.5t95 -31.5 q92 0 156 82q58 -26 88 -68t32 -87t-18 -91t-57 -82t-90 -59t-111 -23q-120 0 -211.5 82.5t-91.5 212.5zM629 1763q0 49 38.5 86t86.5 37q39 0 64.5 -27.5t25.5 -66.5q0 -52 -37.5 -88.5t-87.5 -36.5q-38 0 -64 27.5t-26 68.5zM1034 1763q0 49 38.5 86t86.5 37 q39 0 64.5 -27.5t25.5 -66.5q0 -52 -37.5 -88.5t-87.5 -36.5q-38 0 -64 27.5t-26 68.5z" />
<glyph unicode="&#xd0;" horiz-adv-x="1867" d="M0 1284q0 144 107.5 242t271.5 98q87 0 192.5 -32t189 -70.5t186 -70.5t183.5 -32q32 0 49 15t17 36q0 29 -24.5 41t-67.5 -10q-33 63 0.5 111.5t93.5 48.5q46 0 79.5 -28t33.5 -83q0 -36 -23.5 -65t-47.5 -41.5t-50 -20.5q58 7 96 7q93 0 178.5 -21t165 -70t138 -120 t93.5 -179t35 -241q0 -73 -10 -148t-33.5 -157t-58.5 -158t-88.5 -147.5t-120.5 -129t-157.5 -98.5t-196 -60t-239.5 -10.5t-285 48.5l2 14q133 -24 245.5 2.5t191 88.5t140 155t98.5 194t61 214.5t33 208t9 181.5q0 206 -59 311t-193 105q-88 0 -131.5 -60t-69.5 -227 l-63 -399h233l-2 -20h-233l-111 -707h-622l2 14q53 0 92 8t66.5 32t44 46t30.5 71.5t20.5 86t18.5 111.5l51 338h-207l2 20h207l53 338q12 77 53 137.5t94 96t121 59.5t123 33t111 12v2q-85 0 -186.5 31.5t-180.5 69t-180 69t-186 31.5q-99 0 -158 -40.5t-59 -119.5 q0 -66 40 -97.5t95 -31.5q92 0 156 82q58 -26 88 -68t32 -87t-18 -91t-57 -82t-90 -59t-111 -23q-120 0 -211.5 82.5t-91.5 212.5z" />
<glyph unicode="&#xd1;" horiz-adv-x="2512" d="M0 223q0 115 61.5 206t155.5 137t199 46q102 0 193.5 -36.5t153.5 -112t62 -174.5q0 -106 -73.5 -179t-192.5 -73q-92 0 -149.5 64.5t-30.5 154.5q74 2 125 57t51 136q0 73 -52 110t-118 37q-114 0 -207.5 -107t-93.5 -262q0 -57 13.5 -111t45 -105.5t78.5 -89.5 t119.5 -61.5t161.5 -23.5q228 0 373.5 161.5t195.5 463.5l94 575q12 75 14 152.5t-12.5 150t-46.5 103.5q134 -41 348 -31q-69 11 -149 44t-139.5 66t-140.5 59t-158 26q-99 0 -158 -40.5t-59 -119.5q0 -66 40 -97.5t95 -31.5q91 0 155 82q58 -26 88.5 -68t32 -87t-18 -91 t-56.5 -82t-90.5 -59t-112.5 -23q-119 0 -210 83t-91 214q0 141 107 239.5t269 98.5q70 0 146 -21t141.5 -51t128.5 -60.5t128.5 -51.5t121.5 -21q86 0 86 49q0 31 -24.5 43.5t-67.5 -10.5q-33 63 1 111.5t95 48.5q41 0 75 -27t34 -84q0 -60 -39 -94.5t-99 -46.5l594 -850 l103 645q91 570 426 570q46 0 82.5 -13t58.5 -32.5t36.5 -46.5t20 -52t5.5 -51q0 -96 -66 -153.5t-143 -57.5q-83 0 -111 78q31 13 47.5 42.5t16.5 63.5q0 44 -27 76.5t-74 32.5q-53 0 -97.5 -43.5t-73 -113t-46 -134t-27.5 -129.5l-204 -1311l-903 1280l-121 -745 q-25 -154 -75 -272.5t-109 -188t-133 -113.5t-140 -59.5t-137 -15.5q-230 0 -366 115t-136 292zM1440 1796q58 94 103 131t104 37q53 0 106.5 -28t90.5 -61t89.5 -61t104.5 -28q50 0 88.5 29.5t87.5 107.5l16 -6q-55 -89 -98.5 -120.5t-93.5 -31.5q-46 0 -89.5 18.5 t-78.5 44.5t-69.5 52.5t-76 45t-84.5 18.5q-47 0 -87.5 -31.5t-96.5 -122.5z" />
<glyph unicode="&#xd2;" horiz-adv-x="1777" d="M102 489q0 501 385 773q59 143 214 233t391 90q177 0 318.5 -54.5t229 -147t133.5 -209t46 -246.5q0 -179 -56.5 -346.5t-156.5 -299.5t-230.5 -231.5t-285.5 -153t-314 -53.5q-147 0 -273 49t-214 135t-137.5 205t-49.5 256zM506 270q0 -89 12.5 -160.5t38 -127 t69.5 -85.5t103 -30q98 0 200 81.5t185.5 215t150.5 294t104.5 330.5t37.5 312q0 68 -8 127.5t-31.5 124t-61.5 110t-104 75.5t-153 30q-145 0 -293.5 -72t-218.5 -201q190 120 473 193l8 -8q-145 -51 -254.5 -220.5t-175.5 -406.5q85 -76 198 -76q88 0 139.5 50.5 t51.5 134.5q0 67 -41.5 110t-106.5 45q-10 90 59 154.5t161 64.5q106 0 166.5 -59t60.5 -150q0 -80 -45 -150.5t-115 -116.5t-152.5 -72.5t-160.5 -26.5q-133 0 -221 67q-76 -280 -76 -557zM659 1878q0 25 19 43t47 18q27 0 74.5 -30t146.5 -103t162 -116l-8 -13z" />
<glyph unicode="&#xd3;" horiz-adv-x="1777" d="M102 489q0 501 385 773q59 143 214 233t391 90q177 0 318.5 -54.5t229 -147t133.5 -209t46 -246.5q0 -179 -56.5 -346.5t-156.5 -299.5t-230.5 -231.5t-285.5 -153t-314 -53.5q-147 0 -273 49t-214 135t-137.5 205t-49.5 256zM506 270q0 -89 12.5 -160.5t38 -127 t69.5 -85.5t103 -30q98 0 200 81.5t185.5 215t150.5 294t104.5 330.5t37.5 312q0 68 -8 127.5t-31.5 124t-61.5 110t-104 75.5t-153 30q-145 0 -293.5 -72t-218.5 -201q190 120 473 193l8 -8q-145 -51 -254.5 -220.5t-175.5 -406.5q85 -76 198 -76q88 0 139.5 50.5 t51.5 134.5q0 67 -41.5 110t-106.5 45q-10 90 59 154.5t161 64.5q106 0 166.5 -59t60.5 -150q0 -80 -45 -150.5t-115 -116.5t-152.5 -72.5t-160.5 -26.5q-133 0 -221 67q-76 -280 -76 -557zM1008 1690q81 45 200.5 116.5t177 102t84.5 30.5q22 0 35 -13.5t13 -35.5 l-504 -213z" />
<glyph unicode="&#xd4;" horiz-adv-x="1777" d="M102 489q0 501 385 773q59 143 214 233t391 90q177 0 318.5 -54.5t229 -147t133.5 -209t46 -246.5q0 -179 -56.5 -346.5t-156.5 -299.5t-230.5 -231.5t-285.5 -153t-314 -53.5q-147 0 -273 49t-214 135t-137.5 205t-49.5 256zM506 270q0 -89 12.5 -160.5t38 -127 t69.5 -85.5t103 -30q98 0 200 81.5t185.5 215t150.5 294t104.5 330.5t37.5 312q0 68 -8 127.5t-31.5 124t-61.5 110t-104 75.5t-153 30q-145 0 -293.5 -72t-218.5 -201q190 120 473 193l8 -8q-145 -51 -254.5 -220.5t-175.5 -406.5q85 -76 198 -76q88 0 139.5 50.5 t51.5 134.5q0 67 -41.5 110t-106.5 45q-10 90 59 154.5t161 64.5q106 0 166.5 -59t60.5 -150q0 -80 -45 -150.5t-115 -116.5t-152.5 -72.5t-160.5 -26.5q-133 0 -221 67q-76 -280 -76 -557zM750 1659l354 246l276 -246l-12 -10l-283 137l-327 -137z" />
<glyph unicode="&#xd5;" horiz-adv-x="1777" d="M102 489q0 501 385 773q59 143 214 233t391 90q177 0 318.5 -54.5t229 -147t133.5 -209t46 -246.5q0 -179 -56.5 -346.5t-156.5 -299.5t-230.5 -231.5t-285.5 -153t-314 -53.5q-147 0 -273 49t-214 135t-137.5 205t-49.5 256zM506 270q0 -89 12.5 -160.5t38 -127 t69.5 -85.5t103 -30q98 0 200 81.5t185.5 215t150.5 294t104.5 330.5t37.5 312q0 68 -8 127.5t-31.5 124t-61.5 110t-104 75.5t-153 30q-145 0 -293.5 -72t-218.5 -201q190 120 473 193l8 -8q-145 -51 -254.5 -220.5t-175.5 -406.5q85 -76 198 -76q88 0 139.5 50.5 t51.5 134.5q0 67 -41.5 110t-106.5 45q-10 90 59 154.5t161 64.5q106 0 166.5 -59t60.5 -150q0 -80 -45 -150.5t-115 -116.5t-152.5 -72.5t-160.5 -26.5q-133 0 -221 67q-76 -280 -76 -557zM674 1720q58 94 103 131t104 37q53 0 106.5 -28t90.5 -61t89.5 -61t104.5 -28 q50 0 88.5 29.5t87.5 107.5l16 -6q-55 -89 -98 -120t-94 -31q-55 0 -110 28t-93 61t-90.5 61t-104.5 28q-47 0 -87.5 -31.5t-96.5 -122.5z" />
<glyph unicode="&#xd6;" horiz-adv-x="1777" d="M102 489q0 501 385 773q59 143 214 233t391 90q177 0 318.5 -54.5t229 -147t133.5 -209t46 -246.5q0 -179 -56.5 -346.5t-156.5 -299.5t-230.5 -231.5t-285.5 -153t-314 -53.5q-147 0 -273 49t-214 135t-137.5 205t-49.5 256zM506 270q0 -89 12.5 -160.5t38 -127 t69.5 -85.5t103 -30q98 0 200 81.5t185.5 215t150.5 294t104.5 330.5t37.5 312q0 68 -8 127.5t-31.5 124t-61.5 110t-104 75.5t-153 30q-145 0 -293.5 -72t-218.5 -201q190 120 473 193l8 -8q-145 -51 -254.5 -220.5t-175.5 -406.5q85 -76 198 -76q88 0 139.5 50.5 t51.5 134.5q0 67 -41.5 110t-106.5 45q-10 90 59 154.5t161 64.5q106 0 166.5 -59t60.5 -150q0 -80 -45 -150.5t-115 -116.5t-152.5 -72.5t-160.5 -26.5q-133 0 -221 67q-76 -280 -76 -557zM774 1769q0 49 38.5 86t86.5 37q39 0 64.5 -27.5t25.5 -66.5q0 -52 -37.5 -88.5 t-87.5 -36.5q-38 0 -64 27.5t-26 68.5zM1180 1769q0 49 38.5 86t86.5 37q39 0 64.5 -27.5t25.5 -66.5q0 -52 -37.5 -88.5t-87.5 -36.5q-38 0 -64 27.5t-26 68.5z" />
<glyph unicode="&#xd7;" horiz-adv-x="829" d="M145 303l351 311l-252 312l16 14l252 -311l352 311l13 -14l-353 -312l254 -311l-16 -14l-254 311l-350 -311z" />
<glyph unicode="&#xd8;" horiz-adv-x="1777" d="M102 489q0 501 385 773q59 143 214 233t391 90q188 0 340 -63l112 155l15 -10l-111 -154q180 -82 275.5 -239.5t95.5 -345.5q0 -179 -56.5 -346.5t-156.5 -299.5t-230.5 -231.5t-285.5 -153t-314 -53.5q-249 0 -434 138l-119 -166l-14 10l121 168q-109 87 -168.5 215 t-59.5 280zM506 238l381 528q-43 -6 -84 -6q-133 0 -221 67q-76 -280 -76 -557v-32zM508 209q8 -160 62 -251t159 -91q98 0 200 81.5t185.5 215t150.5 294t104.5 330.5t37.5 312q0 171 -53 282l-107 -147q29 -53 29 -109q0 -66 -31.5 -127t-83.5 -105t-116 -75.5t-132 -46.5 zM537 1294q190 120 473 193l8 -8q-145 -51 -254.5 -220.5t-175.5 -406.5q85 -76 198 -76q88 0 139.5 50.5t51.5 134.5q0 67 -41.5 110t-106.5 45q-10 90 59 154.5t161 64.5q124 0 188 -84l109 150q-88 166 -297 166q-145 0 -293.5 -72t-218.5 -201z" />
<glyph unicode="&#xd9;" horiz-adv-x="1982" d="M0 1284q0 144 107.5 242t271.5 98q87 0 192.5 -32t189 -70.5t186 -70.5t183.5 -32q32 0 49 15t17 36q0 29 -24.5 41t-67.5 -10q-33 63 0.5 111.5t93.5 48.5q42 0 76.5 -27t34.5 -73q0 -35 -16.5 -59.5t-41.5 -38.5t-57 -39t-62 -56t-56.5 -93.5t-39.5 -148.5l-86 -548 q-9 -58 -15 -102.5t-11.5 -105.5t-4 -108t7.5 -99.5t22.5 -90t41.5 -69.5t64.5 -48t91.5 -16q191 0 328.5 149.5t177.5 398.5l55 338q9 56 14.5 95t11 93t5.5 91.5t-4 83t-14.5 76.5t-29.5 62.5t-46 50.5t-66 30.5t-88 11.5l2 15h653l-2 -15q-50 0 -93.5 -12t-77.5 -31 t-63.5 -51t-51 -64.5t-40.5 -80t-32 -88t-25.5 -98.5t-20.5 -101.5t-18 -106.5l-47 -299q-43 -271 -196.5 -424t-413.5 -153q-307 0 -446.5 143.5t-90.5 456.5l88 557q12 77 53.5 137.5t94.5 95.5t120.5 58.5t122.5 32.5t111 12v2q-85 0 -186.5 31.5t-180.5 69t-180 69 t-186 31.5q-99 0 -158 -40.5t-59 -119.5q0 -66 40 -97.5t95 -31.5q92 0 156 82q58 -26 88 -68t32 -87t-18 -91t-57 -82t-90 -59t-111 -23q-120 0 -211.5 82.5t-91.5 212.5zM1010 1821q0 25 19 43t46 18t75 -30.5t146 -103.5t162 -116l-8 -12z" />
<glyph unicode="&#xda;" horiz-adv-x="1982" d="M0 1284q0 144 107.5 242t271.5 98q87 0 192.5 -32t189 -70.5t186 -70.5t183.5 -32q32 0 49 15t17 36q0 29 -24.5 41t-67.5 -10q-33 63 0.5 111.5t93.5 48.5q42 0 76.5 -27t34.5 -73q0 -35 -16.5 -59.5t-41.5 -38.5t-57 -39t-62 -56t-56.5 -93.5t-39.5 -148.5l-86 -548 q-9 -58 -15 -102.5t-11.5 -105.5t-4 -108t7.5 -99.5t22.5 -90t41.5 -69.5t64.5 -48t91.5 -16q191 0 328.5 149.5t177.5 398.5l55 338q9 56 14.5 95t11 93t5.5 91.5t-4 83t-14.5 76.5t-29.5 62.5t-46 50.5t-66 30.5t-88 11.5l2 15h653l-2 -15q-50 0 -93.5 -12t-77.5 -31 t-63.5 -51t-51 -64.5t-40.5 -80t-32 -88t-25.5 -98.5t-20.5 -101.5t-18 -106.5l-47 -299q-43 -271 -196.5 -424t-413.5 -153q-307 0 -446.5 143.5t-90.5 456.5l88 557q12 77 53.5 137.5t94.5 95.5t120.5 58.5t122.5 32.5t111 12v2q-85 0 -186.5 31.5t-180.5 69t-180 69 t-186 31.5q-99 0 -158 -40.5t-59 -119.5q0 -66 40 -97.5t95 -31.5q92 0 156 82q58 -26 88 -68t32 -87t-18 -91t-57 -82t-90 -59t-111 -23q-120 0 -211.5 82.5t-91.5 212.5zM1358 1632q81 45 200.5 117t178 102.5t84.5 30.5q22 0 34.5 -13.5t12.5 -35.5l-504 -213z" />
<glyph unicode="&#xdb;" horiz-adv-x="1982" d="M0 1284q0 144 107.5 242t271.5 98q87 0 192.5 -32t189 -70.5t186 -70.5t183.5 -32q32 0 49 15t17 36q0 29 -24.5 41t-67.5 -10q-30 62 -2.5 107t82.5 51l270 188l277 -245l-13 -11l-282 138l-189 -80q27 -11 44.5 -34t17.5 -54q0 -35 -16.5 -59.5t-41.5 -38.5t-57 -39 t-62 -56t-56.5 -93.5t-39.5 -148.5l-86 -548q-9 -58 -15 -102.5t-11.5 -105.5t-4 -108t7.5 -99.5t22.5 -90t41.5 -69.5t64.5 -48t91.5 -16q191 0 328.5 149.5t177.5 398.5l55 338q9 56 14.5 95t11 93t5.5 91.5t-4 83t-14.5 76.5t-29.5 62.5t-46 50.5t-66 30.5t-88 11.5l2 15 h653l-2 -15q-50 0 -93.5 -12t-77.5 -31t-63.5 -51t-51 -64.5t-40.5 -80t-32 -88t-25.5 -98.5t-20.5 -101.5t-18 -106.5l-47 -299q-43 -271 -196.5 -424t-413.5 -153q-307 0 -446.5 143.5t-90.5 456.5l88 557q12 77 53.5 137.5t94.5 95.5t120.5 58.5t122.5 32.5t111 12v2 q-85 0 -186.5 31.5t-180.5 69t-180 69t-186 31.5q-99 0 -158 -40.5t-59 -119.5q0 -66 40 -97.5t95 -31.5q92 0 156 82q58 -26 88 -68t32 -87t-18 -91t-57 -82t-90 -59t-111 -23q-120 0 -211.5 82.5t-91.5 212.5z" />
<glyph unicode="&#xdc;" horiz-adv-x="1982" d="M0 1284q0 144 107.5 242t271.5 98q87 0 192.5 -32t189 -70.5t186 -70.5t183.5 -32q32 0 49 15t17 36q0 29 -24.5 41t-67.5 -10q-24 51 -11 89t52 59q-21 28 -21 63q0 49 38.5 86t86.5 37q39 0 64.5 -27.5t25.5 -66.5q0 -35 -17.5 -64.5t-45.5 -44.5q33 -29 33 -71 q0 -35 -16.5 -59.5t-41.5 -38.5t-57 -39t-62 -56t-56.5 -93.5t-39.5 -148.5l-86 -548q-9 -58 -15 -102.5t-11.5 -105.5t-4 -108t7.5 -99.5t22.5 -90t41.5 -69.5t64.5 -48t91.5 -16q191 0 328.5 149.5t177.5 398.5l55 338q9 56 14.5 95t11 93t5.5 91.5t-4 83t-14.5 76.5 t-29.5 62.5t-46 50.5t-66 30.5t-88 11.5l2 15h653l-2 -15q-50 0 -93.5 -12t-77.5 -31t-63.5 -51t-51 -64.5t-40.5 -80t-32 -88t-25.5 -98.5t-20.5 -101.5t-18 -106.5l-47 -299q-43 -271 -196.5 -424t-413.5 -153q-307 0 -446.5 143.5t-90.5 456.5l88 557q12 77 53.5 137.5 t94.5 95.5t120.5 58.5t122.5 32.5t111 12v2q-85 0 -186.5 31.5t-180.5 69t-180 69t-186 31.5q-99 0 -158 -40.5t-59 -119.5q0 -66 40 -97.5t95 -31.5q92 0 156 82q58 -26 88 -68t32 -87t-18 -91t-57 -82t-90 -59t-111 -23q-120 0 -211.5 82.5t-91.5 212.5zM1530 1712 q0 49 38.5 86t86.5 37q39 0 64.5 -27.5t25.5 -66.5q0 -52 -37.5 -88.5t-87.5 -36.5q-38 0 -64 27.5t-26 68.5z" />
<glyph unicode="&#xdd;" horiz-adv-x="1114" d="M0 1333q76 65 177.5 110.5t199.5 45.5q94 0 172 -39t131.5 -106.5t91 -158t54 -194.5t16 -215t-18.5 -221l414 737q248 437 504 437q141 0 218 -78t77 -201q0 -137 -88 -238.5t-226 -101.5q-109 0 -175 61.5t-66 149.5q0 61 35 117.5t114 77.5q39 -86 127 -86 q62 0 98.5 40t36.5 99q0 125 -153 125q-250 0 -479 -412l-357 -641l-43 -272q-15 -90 -19.5 -131t-3 -95t20.5 -75.5t57.5 -37.5t102.5 -16l-2 -14h-840l2 14q64 0 107.5 16t69.5 37.5t45 75.5t27.5 94.5t23.5 131.5l30 206q-25 196 -79 374t-134.5 299.5t-165.5 121.5 q-39 0 -96 -47zM883 1567q81 45 200.5 117t178 102.5t84.5 30.5q21 0 34 -14t13 -36l-504 -213z" />
<glyph unicode="&#xde;" horiz-adv-x="1421" d="M-20 0l2 14q53 0 91 9t64.5 30t44 47.5t30 69.5t21 87.5t19.5 109.5v2l108 696q11 67 15.5 98.5t8.5 79t-1 67.5t-15.5 46.5t-32 36.5t-54 18t-78.5 8l2 15h837l-2 -15q-58 0 -98.5 -11.5t-67 -31t-44.5 -57.5t-28.5 -78t-21.5 -106h94q334 0 484.5 -99t116.5 -317 q-13 -84 -56 -152t-107.5 -112.5t-139 -76.5t-161.5 -48.5t-163 -23.5t-154 -7h-24l2 16h16q154 0 235 95.5t115 308.5q33 212 -16.5 306.5t-200.5 94.5h-43l-131 -821q-16 -96 -12.5 -159.5t46 -94.5t136.5 -31l-2 -14h-835z" />
<glyph unicode="&#xdf;" horiz-adv-x="1560" d="M-215 -279q0 106 68.5 161t162.5 55q87 0 146 -55.5t49 -153.5q-56 3 -87.5 -23t-31.5 -72q0 -35 20 -56t56 -21q64 0 93.5 49.5t29.5 126.5q0 47 -18.5 89.5t-43.5 74t-49 64t-36.5 76t-4.5 93.5l146 926h-168l2 20h172q2 58 12 127q26 180 163.5 287.5t338.5 107.5 q171 0 274 -78t103 -196q0 -51 -21.5 -107t-47.5 -98t-47.5 -97t-21.5 -103q0 -46 28 -83t72.5 -63.5t98.5 -52t108 -55.5t98.5 -65.5t72.5 -91t28 -124.5q0 -112 -70 -204t-184.5 -142.5t-246.5 -50.5q-61 0 -115.5 5t-112 20t-98.5 38t-67.5 62t-26.5 90q0 79 54 137.5 t136 58.5q66 0 111 -39.5t37 -109.5q-44 -15 -70.5 -52.5t-26.5 -82.5q0 -111 172 -111q109 0 166.5 44t57.5 108q0 44 -29.5 82t-76.5 66.5t-103.5 57t-113.5 60t-104 67t-76.5 86.5t-29.5 111q0 57 23.5 108.5t61.5 91.5t83.5 77.5t91 75.5t83.5 77.5t61.5 90.5t23.5 108 q0 86 -51.5 148t-128.5 90t-168 28q-69 0 -134.5 -17.5t-120 -50.5t-87.5 -87t-33 -121q0 -85 54 -145.5t167 -78.5l-167 -1052q-15 -98 -48 -187t-84.5 -167.5t-129 -125.5t-169.5 -47q-129 0 -202.5 61t-73.5 160z" />
<glyph unicode="&#xe0;" d="M82 365q0 81 23.5 167t66 166t104.5 151.5t134 125t160.5 84.5t179.5 31q53 0 116 -17t111 -34.5t98.5 -27t97.5 6t89 63.5l-109 -635q-18 -101 -24 -186.5t8.5 -161.5t56.5 -92l-6 -6q-66 -14 -146 -14q-55 0 -100.5 9.5t-86 32.5t-62.5 60.5t-29.5 94t12.5 132.5 l76 316l-8 2q-47 -187 -101 -315.5t-114.5 -200t-121.5 -101.5t-134 -30q-62 0 -112.5 21.5t-83 57.5t-54.5 85.5t-31.5 102.5t-9.5 112zM410 1479q0 25 19 43t46 18q17 0 42.5 -17t65 -57t71 -74.5t92 -102.5t96.5 -107l-8 -13zM453 258q0 -70 17 -116t54 -46 q60 0 124.5 93t113.5 234t76 294l22 125q25 124 6.5 177.5t-92.5 53.5q-81 0 -157 -134t-120 -323t-44 -358z" />
<glyph unicode="&#xe1;" d="M82 365q0 81 23.5 167t66 166t104.5 151.5t134 125t160.5 84.5t179.5 31q53 0 116 -17t111 -34.5t98.5 -27t97.5 6t89 63.5l-109 -635q-18 -101 -24 -186.5t8.5 -161.5t56.5 -92l-6 -6q-66 -14 -146 -14q-55 0 -100.5 9.5t-86 32.5t-62.5 60.5t-29.5 94t12.5 132.5 l76 316l-8 2q-47 -187 -101 -315.5t-114.5 -200t-121.5 -101.5t-134 -30q-62 0 -112.5 21.5t-83 57.5t-54.5 85.5t-31.5 102.5t-9.5 112zM453 258q0 -70 17 -116t54 -46q60 0 124.5 93t113.5 234t76 294l22 125q25 124 6.5 177.5t-92.5 53.5q-81 0 -157 -134t-120 -323 t-44 -358zM719 1182q56 45 133 108t123 100.5t96 76t81 56t48 17.5q22 0 34.5 -13.5t12.5 -35.5l-522 -322z" />
<glyph unicode="&#xe2;" d="M82 365q0 81 23.5 167t66 166t104.5 151.5t134 125t160.5 84.5t179.5 31q53 0 116 -17t111 -34.5t98.5 -27t97.5 6t89 63.5l-109 -635q-18 -101 -24 -186.5t8.5 -161.5t56.5 -92l-6 -6q-66 -14 -146 -14q-55 0 -100.5 9.5t-86 32.5t-62.5 60.5t-29.5 94t12.5 132.5 l76 316l-8 2q-47 -187 -101 -315.5t-114.5 -200t-121.5 -101.5t-134 -30q-62 0 -112.5 21.5t-83 57.5t-54.5 85.5t-31.5 102.5t-9.5 112zM453 258q0 -70 17 -116t54 -46q60 0 124.5 93t113.5 234t76 294l22 125q25 124 6.5 177.5t-92.5 53.5q-81 0 -157 -134t-120 -323 t-44 -358zM477 1180l371 346l260 -346l-12 -11l-271 220l-340 -220z" />
<glyph unicode="&#xe3;" d="M82 365q0 81 23.5 167t66 166t104.5 151.5t134 125t160.5 84.5t179.5 31q53 0 116 -17t111 -34.5t98.5 -27t97.5 6t89 63.5l-109 -635q-18 -101 -24 -186.5t8.5 -161.5t56.5 -92l-6 -6q-66 -14 -146 -14q-55 0 -100.5 9.5t-86 32.5t-62.5 60.5t-29.5 94t12.5 132.5 l76 316l-8 2q-47 -187 -101 -315.5t-114.5 -200t-121.5 -101.5t-134 -30q-62 0 -112.5 21.5t-83 57.5t-54.5 85.5t-31.5 102.5t-9.5 112zM412 1212q58 94 102.5 131t103.5 37q53 0 106.5 -28t91 -61t90 -61t104.5 -28q50 0 88.5 29.5t87.5 107.5l16 -6q-55 -89 -98 -120 t-94 -31q-55 0 -110 28t-93 61t-90.5 61t-104.5 28q-47 0 -87.5 -31.5t-96.5 -122.5zM453 258q0 -70 17 -116t54 -46q60 0 124.5 93t113.5 234t76 294l22 125q25 124 6.5 177.5t-92.5 53.5q-81 0 -157 -134t-120 -323t-44 -358z" />
<glyph unicode="&#xe4;" d="M82 365q0 81 23.5 167t66 166t104.5 151.5t134 125t160.5 84.5t179.5 31q53 0 116 -17t111 -34.5t98.5 -27t97.5 6t89 63.5l-109 -635q-18 -101 -24 -186.5t8.5 -161.5t56.5 -92l-6 -6q-66 -14 -146 -14q-55 0 -100.5 9.5t-86 32.5t-62.5 60.5t-29.5 94t12.5 132.5 l76 316l-8 2q-47 -187 -101 -315.5t-114.5 -200t-121.5 -101.5t-134 -30q-62 0 -112.5 21.5t-83 57.5t-54.5 85.5t-31.5 102.5t-9.5 112zM453 258q0 -70 17 -116t54 -46q60 0 124.5 93t113.5 234t76 294l22 125q25 124 6.5 177.5t-92.5 53.5q-81 0 -157 -134t-120 -323 t-44 -358zM498 1276q0 49 38.5 86t86.5 37q39 0 64.5 -27.5t25.5 -66.5q0 -52 -37.5 -88.5t-87.5 -36.5q-38 0 -64 27.5t-26 68.5zM903 1276q0 49 38.5 86t86.5 37q39 0 64.5 -27.5t25.5 -66.5q0 -52 -37.5 -88.5t-87.5 -36.5q-38 0 -64 27.5t-26 68.5z" />
<glyph unicode="&#xe5;" d="M82 365q0 81 23.5 167t66 166t104.5 151.5t134 125t160.5 84.5t179.5 31q53 0 116 -17t111 -34.5t98.5 -27t97.5 6t89 63.5l-109 -635q-18 -101 -24 -186.5t8.5 -161.5t56.5 -92l-6 -6q-66 -14 -146 -14q-55 0 -100.5 9.5t-86 32.5t-62.5 60.5t-29.5 94t12.5 132.5 l76 316l-8 2q-47 -187 -101 -315.5t-114.5 -200t-121.5 -101.5t-134 -30q-62 0 -112.5 21.5t-83 57.5t-54.5 85.5t-31.5 102.5t-9.5 112zM453 258q0 -70 17 -116t54 -46q60 0 124.5 93t113.5 234t76 294l22 125q25 124 6.5 177.5t-92.5 53.5q-81 0 -157 -134t-120 -323 t-44 -358zM608 1329q0 90 74 155.5t170 65.5q77 0 128.5 -49.5t51.5 -122.5q0 -91 -73.5 -157t-170.5 -66q-78 0 -129 50t-51 124zM629 1329q0 -65 45 -109t114 -44q89 0 156.5 60t67.5 142q0 64 -46 108t-114 44q-89 0 -156 -59.5t-67 -141.5z" />
<glyph unicode="&#xe6;" horiz-adv-x="1855" d="M82 365q0 81 23.5 167t66 166t104.5 151.5t134 125t160.5 84.5t179.5 31q61 0 123.5 -27.5t121.5 -62.5t95 -44q178 134 403 134q53 0 103 -5.5t104 -21t94 -40t66 -66.5t26 -97q0 -58 -41 -112.5t-126 -95.5t-215.5 -46t-309.5 35q-2 -8 -2 -23q-5 -84 9 -155.5 t47.5 -129t94 -90t142.5 -32.5t165.5 33.5t149.5 111.5l12 -6q-100 -165 -254.5 -264.5t-328.5 -99.5q-187 0 -296.5 117t-109.5 321q0 96 33 205l-12 4q-47 -187 -101 -315.5t-114.5 -200t-121.5 -101.5t-134 -30q-62 0 -112.5 21.5t-83 57.5t-54.5 85.5t-31.5 102.5 t-9.5 112zM453 258q0 -70 17 -116t54 -46q60 0 124.5 93t113.5 234t76 294l22 125q25 124 6.5 177.5t-92.5 53.5q-81 0 -157 -134t-120 -323t-44 -358zM1194 657q98 -6 176.5 17t125.5 66t72 94.5t25 105.5q0 60 -32.5 96.5t-85.5 36.5q-70 0 -131.5 -63.5t-99 -156.5 t-50.5 -196z" />
<glyph unicode="&#xe7;" horiz-adv-x="1132" d="M82 420q0 176 90 330t249 247t349 93q62 0 124 -11.5t125.5 -38t103.5 -79.5t40 -125q0 -91 -66 -160.5t-167 -69.5q-75 0 -123.5 46.5t-38.5 133.5q60 16 92.5 59.5t32.5 94.5q0 56 -36.5 94.5t-102.5 38.5q-58 0 -107.5 -35.5t-81.5 -91t-55 -124t-33 -132.5t-10 -119 q0 -176 82 -268t211 -92q190 0 317 145l13 -6q-103 -173 -260 -267t-318 -97q-18 -56 -53 -117q76 -9 117.5 -47t41.5 -88q0 -58 -48.5 -100t-133.5 -42q-43 0 -80 16t-55 40l18 12q41 -47 119 -47q75 0 117.5 34.5t42.5 82.5q0 46 -44 82.5t-124 40.5q44 79 64 133 q-86 2 -159.5 30t-130.5 80.5t-89.5 135.5t-32.5 188z" />
<glyph unicode="&#xe8;" horiz-adv-x="1132" d="M82 424q0 130 53.5 251.5t144 213t219.5 146.5t271 55q53 0 103 -5.5t104 -21t94 -40t66 -66.5t26 -97q0 -48 -21.5 -94t-73.5 -86t-127.5 -62t-194 -17.5t-263.5 42.5l2 8q99 -5 176 18.5t121 67t66 95t22 108.5q0 60 -32.5 96.5t-85.5 36.5q-75 0 -139.5 -71.5 t-101 -174.5t-42.5 -209q-5 -84 9 -155.5t47.5 -129t94 -90t142.5 -32.5t165.5 33.5t149.5 111.5l13 -6q-100 -164 -255 -264t-329 -100q-189 0 -306.5 118t-117.5 320zM356 1479q0 25 19 43t47 18q17 0 42.5 -17t64.5 -57t71 -75t91.5 -102t96.5 -107l-8 -13z" />
<glyph unicode="&#xe9;" horiz-adv-x="1132" d="M82 424q0 130 53.5 251.5t144 213t219.5 146.5t271 55q53 0 103 -5.5t104 -21t94 -40t66 -66.5t26 -97q0 -48 -21.5 -94t-73.5 -86t-127.5 -62t-194 -17.5t-263.5 42.5l2 8q99 -5 176 18.5t121 67t66 95t22 108.5q0 60 -32.5 96.5t-85.5 36.5q-75 0 -139.5 -71.5 t-101 -174.5t-42.5 -209q-5 -84 9 -155.5t47.5 -129t94 -90t142.5 -32.5t165.5 33.5t149.5 111.5l13 -6q-100 -164 -255 -264t-329 -100q-189 0 -306.5 118t-117.5 320zM666 1182q56 45 133 108t123 100.5t96 76t81 56t48 17.5q22 0 34.5 -13.5t12.5 -35.5l-522 -322z" />
<glyph unicode="&#xea;" horiz-adv-x="1132" d="M82 424q0 130 53.5 251.5t144 213t219.5 146.5t271 55q53 0 103 -5.5t104 -21t94 -40t66 -66.5t26 -97q0 -48 -21.5 -94t-73.5 -86t-127.5 -62t-194 -17.5t-263.5 42.5l2 8q99 -5 176 18.5t121 67t66 95t22 108.5q0 60 -32.5 96.5t-85.5 36.5q-75 0 -139.5 -71.5 t-101 -174.5t-42.5 -209q-5 -84 9 -155.5t47.5 -129t94 -90t142.5 -32.5t165.5 33.5t149.5 111.5l13 -6q-100 -164 -255 -264t-329 -100q-189 0 -306.5 118t-117.5 320zM424 1180l371 346l260 -346l-13 -11l-270 220l-340 -220z" />
<glyph unicode="&#xeb;" horiz-adv-x="1132" d="M82 424q0 130 53.5 251.5t144 213t219.5 146.5t271 55q53 0 103 -5.5t104 -21t94 -40t66 -66.5t26 -97q0 -48 -21.5 -94t-73.5 -86t-127.5 -62t-194 -17.5t-263.5 42.5l2 8q99 -5 176 18.5t121 67t66 95t22 108.5q0 60 -32.5 96.5t-85.5 36.5q-75 0 -139.5 -71.5 t-101 -174.5t-42.5 -209q-5 -84 9 -155.5t47.5 -129t94 -90t142.5 -32.5t165.5 33.5t149.5 111.5l13 -6q-100 -164 -255 -264t-329 -100q-189 0 -306.5 118t-117.5 320zM444 1276q0 49 38.5 86t86.5 37q39 0 64.5 -27.5t25.5 -66.5q0 -52 -37 -88.5t-87 -36.5 q-38 0 -64.5 27.5t-26.5 68.5zM850 1276q0 49 38.5 86t86.5 37q39 0 64.5 -27.5t25.5 -66.5q0 -52 -37.5 -88.5t-87.5 -36.5q-38 0 -64 27.5t-26 68.5z" />
<glyph unicode="&#xec;" horiz-adv-x="573" d="M72 1479q0 25 19 43t46 18q17 0 42.5 -17t65 -57t71 -74.5t92 -102.5t96.5 -107l-8 -13zM100 305l107 645q5 32 -19 49.5t-65 4.5l-6 6q61 30 153 55t160 25q89 0 120.5 -40.5t14.5 -142.5l-78 -471q-10 -56 -14 -81t-12.5 -84t-9 -92.5t0.5 -75t11.5 -65.5t28.5 -32 l-7 -6q-82 -16 -149 -16q-291 0 -236 321z" />
<glyph unicode="&#xed;" horiz-adv-x="573" d="M100 305l107 645q5 32 -19 49.5t-65 4.5l-6 6q61 30 153 55t160 25q89 0 120.5 -40.5t14.5 -142.5l-78 -471q-10 -56 -14 -81t-12.5 -84t-9 -92.5t0.5 -75t11.5 -65.5t28.5 -32l-7 -6q-82 -16 -149 -16q-291 0 -236 321zM172 1182q56 45 133 108t123 100.5t96 76t81 56 t48 17.5q22 0 34.5 -13.5t12.5 -35.5l-522 -322z" />
<glyph unicode="&#xee;" horiz-adv-x="573" d="M90 1180l371 346l260 -346l-12 -11l-271 220l-340 -220zM100 305l107 645q5 32 -19 49.5t-65 4.5l-6 6q61 30 153 55t160 25q89 0 120.5 -40.5t14.5 -142.5l-78 -471q-10 -56 -14 -81t-12.5 -84t-9 -92.5t0.5 -75t11.5 -65.5t28.5 -32l-7 -6q-82 -16 -149 -16 q-291 0 -236 321z" />
<glyph unicode="&#xef;" horiz-adv-x="573" d="M100 305l107 645q5 32 -19 49.5t-65 4.5l-6 6q61 30 153 55t160 25q89 0 120.5 -40.5t14.5 -142.5l-78 -471q-10 -56 -14 -81t-12.5 -84t-9 -92.5t0.5 -75t11.5 -65.5t28.5 -32l-7 -6q-82 -16 -149 -16q-291 0 -236 321zM115 1276q0 49 38.5 86t86.5 37q39 0 64.5 -27.5 t25.5 -66.5q0 -52 -37.5 -88.5t-87.5 -36.5q-38 0 -64 27.5t-26 68.5zM520 1276q0 49 38.5 86t86.5 37q39 0 64.5 -27.5t25.5 -66.5q0 -52 -37.5 -88.5t-87.5 -36.5q-38 0 -64 27.5t-26 68.5z" />
<glyph unicode="&#xf0;" horiz-adv-x="1253" d="M82 449q0 124 54.5 241.5t145 204.5t215 139.5t257.5 52.5q99 0 176 -61q17 194 -15 322l-235 -127l-6 18l235 127q-48 163 -213 225l6 17q192 -52 324 -178l262 143l4 -19l-252 -137q114 -115 173 -274t59 -340q0 -118 -27 -233.5t-84 -221.5t-137 -187t-195 -129 t-249 -48q-221 0 -359.5 130t-138.5 335zM457 213q0 -213 125 -213q64 0 117 69t84.5 169.5t53 223.5t29.5 222.5t8 173.5q0 100 -27.5 156.5t-94.5 56.5q-54 0 -100.5 -48t-77.5 -127.5t-54.5 -173t-36.5 -192.5t-19.5 -179t-6.5 -138z" />
<glyph unicode="&#xf1;" d="M94 148.5q-2 61.5 12 156.5l115 645q5 32 -19 49.5t-65 4.5l-6 6q61 30 153 55t160 25q91 0 124 -41t12 -142l-113 -463l8 -2q169 648 526 648q62 0 106.5 -15.5t69 -45t38 -62.5t14.5 -76.5t-2 -77.5t-10 -76l-50 -291q-18 -101 -24 -186.5t8.5 -161.5t56.5 -92l-6 -6 q-78 -16 -149 -16q-68 0 -120.5 16t-93.5 52t-56.5 103t-0.5 160l82 508q13 72 6 114t-41 42q-85 0 -179 -155t-152 -386q-98 -395 -23 -432l-6 -6q-106 -16 -172 -16q-63 0 -104.5 14.5t-69 51.5t-29.5 98.5zM391 1212q58 94 103 131t104 37q53 0 106.5 -28t90.5 -61 t89.5 -61t104.5 -28q50 0 88.5 29.5t87.5 107.5l17 -6q-55 -89 -98.5 -120t-94.5 -31q-46 0 -89.5 18.5t-78 44.5l-69 52t-76 44.5t-84.5 18.5q-47 0 -87.5 -31.5t-96.5 -122.5z" />
<glyph unicode="&#xf2;" horiz-adv-x="1239" d="M82 449q0 172 90 320t244.5 234.5t335.5 86.5q219 0 358 -129t139 -332q0 -125 -54 -243.5t-144 -206t-214.5 -140.5t-258.5 -53q-219 0 -357.5 130t-138.5 333zM385 1479q0 25 19 43t47 18q17 0 42.5 -17t64.5 -57t71 -75t91.5 -102t96.5 -107l-8 -13zM457 213 q0 -211 123 -211q65 8 117.5 77.5t84 167t53 216t29.5 217.5t8 180q0 100 -27.5 156.5t-94.5 56.5q-64 0 -116.5 -69.5t-84 -171.5t-53.5 -225t-30.5 -222.5t-8.5 -171.5z" />
<glyph unicode="&#xf3;" horiz-adv-x="1239" d="M82 449q0 172 90 320t244.5 234.5t335.5 86.5q219 0 358 -129t139 -332q0 -125 -54 -243.5t-144 -206t-214.5 -140.5t-258.5 -53q-219 0 -357.5 130t-138.5 333zM457 213q0 -211 123 -211q65 8 117.5 77.5t84 167t53 216t29.5 217.5t8 180q0 100 -27.5 156.5t-94.5 56.5 q-64 0 -116.5 -69.5t-84 -171.5t-53.5 -225t-30.5 -222.5t-8.5 -171.5zM694 1182q55 44 133 107.5t124 101t96 76t81 56t48 17.5q22 0 34.5 -13.5t12.5 -35.5l-523 -322z" />
<glyph unicode="&#xf4;" horiz-adv-x="1239" d="M82 449q0 172 90 320t244.5 234.5t335.5 86.5q219 0 358 -129t139 -332q0 -125 -54 -243.5t-144 -206t-214.5 -140.5t-258.5 -53q-219 0 -357.5 130t-138.5 333zM453 1180l370 346l260 -346l-12 -11l-270 220l-340 -220zM457 213q0 -211 123 -211q65 8 117.5 77.5t84 167 t53 216t29.5 217.5t8 180q0 100 -27.5 156.5t-94.5 56.5q-64 0 -116.5 -69.5t-84 -171.5t-53.5 -225t-30.5 -222.5t-8.5 -171.5z" />
<glyph unicode="&#xf5;" horiz-adv-x="1239" d="M82 449q0 172 90 320t244.5 234.5t335.5 86.5q219 0 358 -129t139 -332q0 -125 -54 -243.5t-144 -206t-214.5 -140.5t-258.5 -53q-219 0 -357.5 130t-138.5 333zM387 1212q58 94 103 131t104 37q53 0 106.5 -28t90.5 -61t89.5 -61t104.5 -28q50 0 88.5 29.5t87.5 107.5 l17 -6q-55 -89 -98.5 -120t-94.5 -31q-46 0 -89.5 18.5t-78 44.5l-69 52t-76 44.5t-84.5 18.5q-48 0 -89 -32t-96 -122zM457 213q0 -211 123 -211q65 8 117.5 77.5t84 167t53 216t29.5 217.5t8 180q0 100 -27.5 156.5t-94.5 56.5q-64 0 -116.5 -69.5t-84 -171.5t-53.5 -225 t-30.5 -222.5t-8.5 -171.5z" />
<glyph unicode="&#xf6;" horiz-adv-x="1239" d="M82 449q0 172 90 320t244.5 234.5t335.5 86.5q219 0 358 -129t139 -332q0 -125 -54 -243.5t-144 -206t-214.5 -140.5t-258.5 -53q-219 0 -357.5 130t-138.5 333zM457 213q0 -211 123 -211q65 8 117.5 77.5t84 167t53 216t29.5 217.5t8 180q0 100 -27.5 156.5t-94.5 56.5 q-64 0 -116.5 -69.5t-84 -171.5t-53.5 -225t-30.5 -222.5t-8.5 -171.5zM473 1276q0 49 38.5 86t86.5 37q39 0 64.5 -27.5t25.5 -66.5q0 -52 -37.5 -88.5t-87.5 -36.5q-38 0 -64 27.5t-26 68.5zM879 1276q0 49 38.5 86t86.5 37q39 0 64.5 -27.5t25.5 -66.5q0 -52 -37.5 -88.5 t-87.5 -36.5q-38 0 -64 27.5t-26 68.5z" />
<glyph unicode="&#xf7;" horiz-adv-x="1073" d="M195 604l4 21h874l-4 -21h-874zM481 248q0 45 34.5 78.5t78.5 33.5q35 0 57.5 -25t22.5 -61q0 -45 -34.5 -77.5t-76.5 -32.5q-35 0 -58.5 24.5t-23.5 59.5zM592 952q0 45 35 79t80 34q33 0 56 -25t23 -61q0 -45 -34 -78t-78 -33q-35 0 -58.5 24.5t-23.5 59.5z" />
<glyph unicode="&#xf8;" horiz-adv-x="1253" d="M106 449q0 172 90 320t244.5 234.5t335.5 86.5q144 0 258 -60l86 121l15 -10l-86 -119q106 -59 165.5 -161.5t59.5 -231.5q0 -167 -91 -315.5t-246.5 -238t-334.5 -89.5q-143 0 -254 57l-90 -125l-16 10l88 123q-106 61 -165 164.5t-59 233.5zM481 213q0 -211 123 -211 q61 8 111 69.5t81.5 149.5t54 198.5t32 206t12.5 183.5l-414 -580v-16zM481 262l416 578v20q0 213 -123 213q-60 0 -110 -61t-81.5 -151.5t-54.5 -205.5t-33.5 -211.5t-13.5 -181.5z" />
<glyph unicode="&#xf9;" horiz-adv-x="1236" d="M92 246q2 41 10 92l101 612q5 32 -19 49.5t-65 4.5l-6 6q61 30 153 55t160 25q89 0 120.5 -40.5t14.5 -142.5l-106 -655q-26 -156 65 -156q166 0 301 541q100 402 23 440l6 6q48 3 80 4.5t70.5 2t62.5 -3t52 -10.5t44 -19t32 -29.5t22.5 -42t10.5 -56t0.5 -72 t-12.5 -89.5l-59 -322q-19 -99 -25 -186t9 -162.5t57 -91.5l-6 -6q-66 -14 -146 -14q-55 0 -100.5 9.5t-86 32.5t-62.5 60.5t-29.5 94t12.5 132.5l76 316l-8 2q-51 -195 -103 -322t-112.5 -198.5t-124.5 -99t-150 -27.5q-81 0 -136.5 24t-81.5 58.5t-36 85.5t-8 92z M352 1479q0 25 19 43t47 18q17 0 42.5 -17t64.5 -57t71 -75t91.5 -102t96.5 -107l-8 -13z" />
<glyph unicode="&#xfa;" horiz-adv-x="1236" d="M92 246q2 41 10 92l101 612q5 32 -19 49.5t-65 4.5l-6 6q61 30 153 55t160 25q89 0 120.5 -40.5t14.5 -142.5l-106 -655q-26 -156 65 -156q166 0 301 541q100 402 23 440l6 6q48 3 80 4.5t70.5 2t62.5 -3t52 -10.5t44 -19t32 -29.5t22.5 -42t10.5 -56t0.5 -72 t-12.5 -89.5l-59 -322q-19 -99 -25 -186t9 -162.5t57 -91.5l-6 -6q-66 -14 -146 -14q-55 0 -100.5 9.5t-86 32.5t-62.5 60.5t-29.5 94t12.5 132.5l76 316l-8 2q-51 -195 -103 -322t-112.5 -198.5t-124.5 -99t-150 -27.5q-81 0 -136.5 24t-81.5 58.5t-36 85.5t-8 92z M662 1182q56 45 133 108t123 100.5t96 76t81 56t48 17.5q22 0 34.5 -13.5t12.5 -35.5l-522 -322z" />
<glyph unicode="&#xfb;" horiz-adv-x="1236" d="M92 246q2 41 10 92l101 612q5 32 -19 49.5t-65 4.5l-6 6q61 30 153 55t160 25q89 0 120.5 -40.5t14.5 -142.5l-106 -655q-26 -156 65 -156q166 0 301 541q100 402 23 440l6 6q48 3 80 4.5t70.5 2t62.5 -3t52 -10.5t44 -19t32 -29.5t22.5 -42t10.5 -56t0.5 -72 t-12.5 -89.5l-59 -322q-19 -99 -25 -186t9 -162.5t57 -91.5l-6 -6q-66 -14 -146 -14q-55 0 -100.5 9.5t-86 32.5t-62.5 60.5t-29.5 94t12.5 132.5l76 316l-8 2q-51 -195 -103 -322t-112.5 -198.5t-124.5 -99t-150 -27.5q-81 0 -136.5 24t-81.5 58.5t-36 85.5t-8 92z M420 1180l371 346l260 -346l-13 -11l-270 220l-340 -220z" />
<glyph unicode="&#xfc;" horiz-adv-x="1236" d="M92 246q2 41 10 92l101 612q5 32 -19 49.5t-65 4.5l-6 6q61 30 153 55t160 25q89 0 120.5 -40.5t14.5 -142.5l-106 -655q-26 -156 65 -156q166 0 301 541q100 402 23 440l6 6q48 3 80 4.5t70.5 2t62.5 -3t52 -10.5t44 -19t32 -29.5t22.5 -42t10.5 -56t0.5 -72 t-12.5 -89.5l-59 -322q-19 -99 -25 -186t9 -162.5t57 -91.5l-6 -6q-66 -14 -146 -14q-55 0 -100.5 9.5t-86 32.5t-62.5 60.5t-29.5 94t12.5 132.5l76 316l-8 2q-51 -195 -103 -322t-112.5 -198.5t-124.5 -99t-150 -27.5q-81 0 -136.5 24t-81.5 58.5t-36 85.5t-8 92z M440 1276q0 49 38.5 86t86.5 37q39 0 64.5 -27.5t25.5 -66.5q0 -52 -37.5 -88.5t-87.5 -36.5q-38 0 -64 27.5t-26 68.5zM846 1276q0 49 38.5 86t86.5 37q39 0 64.5 -27.5t25.5 -66.5q0 -52 -37.5 -88.5t-87.5 -36.5q-38 0 -64 27.5t-26 68.5z" />
<glyph unicode="&#xfd;" horiz-adv-x="1220" d="M43 -238q0 86 60.5 142.5t148.5 56.5q70 0 121 -46t43 -124q-54 -6 -84.5 -39t-30.5 -76q0 -49 39.5 -83.5t118.5 -34.5q58 0 100 20.5t69.5 64t44.5 95t32 129.5l147 764l-8 2q-51 -195 -103 -322t-112.5 -198.5t-124.5 -99t-150 -27.5q-81 0 -136.5 24t-81.5 58.5 t-36 85.5t-8 92t10 92l101 612q5 32 -19 49.5t-65 4.5l-6 6q61 30 153 55t160 25q89 0 120.5 -40.5t14.5 -142.5l-106 -655q-26 -156 65 -156q166 0 301 541q100 402 23 440l6 6q54 4 88 5.5t75.5 1t66 -5.5t52.5 -15t42.5 -26.5t28 -41t17 -57.5t2 -77t-9.5 -99l-118 -754 q-35 -219 -199 -347t-446 -128q-72 0 -136.5 9.5t-129 32t-102.5 69t-38 112.5zM676 1182q56 45 133 108t123 100.5t96 76t81 56t48 17.5q22 0 34.5 -13.5t12.5 -35.5l-522 -322z" />
<glyph unicode="&#xfe;" horiz-adv-x="1208" d="M3.5 -243.5q-4.5 43.5 6.5 98.5l264 1624q5 32 -19 49t-65 4l-6 6q61 29 153.5 54.5t160.5 25.5q91 0 124.5 -40.5t10.5 -141.5l-184 -994l8 -2q42 194 95 327.5t115.5 206t126.5 102.5t142 30q146 0 224.5 -89t78.5 -255q0 -101 -28.5 -207t-86.5 -206t-137.5 -179 t-189.5 -126.5t-234 -47.5q-81 0 -139 18l4 6q91 4 175.5 95t141.5 223.5t91.5 281t35.5 273.5q0 147 -61 147q-88 0 -183 -168t-149 -436l-92 -450q-18 -88 -28.5 -174.5t-4 -168.5t38.5 -98l-6 -6q-27 -4 -53.5 -6t-59.5 -1.5t-62.5 6t-60.5 15.5t-55 27t-45.5 41.5 t-32 58t-15 77z" />
<glyph unicode="&#xff;" horiz-adv-x="1220" d="M43 -238q0 86 60.5 142.5t148.5 56.5q70 0 121 -46t43 -124q-54 -6 -84.5 -39t-30.5 -76q0 -49 39.5 -83.5t118.5 -34.5q58 0 100 20.5t69.5 64t44.5 95t32 129.5l147 764l-8 2q-51 -195 -103 -322t-112.5 -198.5t-124.5 -99t-150 -27.5q-81 0 -136.5 24t-81.5 58.5 t-36 85.5t-8 92t10 92l101 612q5 32 -19 49.5t-65 4.5l-6 6q61 30 153 55t160 25q89 0 120.5 -40.5t14.5 -142.5l-106 -655q-26 -156 65 -156q166 0 301 541q100 402 23 440l6 6q54 4 88 5.5t75.5 1t66 -5.5t52.5 -15t42.5 -26.5t28 -41t17 -57.5t2 -77t-9.5 -99l-118 -754 q-35 -219 -199 -347t-446 -128q-72 0 -136.5 9.5t-129 32t-102.5 69t-38 112.5zM455 1276q0 49 38.5 86t86.5 37q39 0 64.5 -27.5t25.5 -66.5q0 -52 -37.5 -88.5t-87.5 -36.5q-38 0 -64 27.5t-26 68.5zM860 1276q0 49 38.5 86t86.5 37q39 0 64.5 -27.5t25.5 -66.5 q0 -52 -37.5 -88.5t-87.5 -36.5q-38 0 -64 27.5t-26 68.5z" />
<glyph unicode="&#x152;" horiz-adv-x="2252" d="M125 590q0 173 70 331.5t188 274t281.5 184t343.5 68.5q179 0 325 -70q95 49 217.5 72t227.5 23q130 0 234.5 -34t169.5 -105.5t65 -170.5q0 -115 -78 -189.5t-174 -74.5q-83 0 -145 60t-40 147q62 13 102 55t40 115q0 79 -47.5 128.5t-122.5 49.5q-83 0 -149 -62.5 t-98 -147t-32 -165.5q0 -114 66 -200t166 -86h55l-4 -17h-33q-104 0 -196.5 -56t-154 -144.5t-97 -197.5t-35.5 -216q0 -406 334 -406q102 0 194.5 33t159.5 88t116.5 124.5t74 143.5t24.5 144q0 108 -68 181t-196 73q-78 0 -129 -51t-51 -134q0 -67 41 -110t106 -45 q10 -90 -58.5 -154.5t-160.5 -64.5q-106 0 -166.5 59t-60.5 150q0 80 44.5 150.5t115 116.5t154.5 72.5t165 26.5q168 0 256 -84.5t88 -212.5q0 -73 -28 -146.5t-87.5 -142.5t-142.5 -122.5t-202 -86t-257 -32.5q-215 0 -361.5 73.5t-220.5 196.5q-91 -16 -178 -16 q-131 0 -248.5 41t-207.5 116t-142.5 191t-52.5 256zM551 356q0 -354 227 -354q80 0 150 51q-41 86 -41 197q0 104 46 196t135.5 166t236.5 118.5t333 45.5l2 4q-232 4 -363.5 96t-131.5 236q0 94 61 168q-52 152 -200 152q-76 0 -141.5 -46t-111 -120t-82 -173.5 t-58.5 -200.5t-36.5 -206t-20 -185.5t-5.5 -144.5z" />
<glyph unicode="&#x153;" horiz-adv-x="1914" d="M106 449q0 172 90 320t244.5 234.5t335.5 86.5q225 0 354 -142q186 142 422 142q53 0 103 -5.5t104.5 -21t94.5 -40t66 -66.5t26 -97q0 -60 -39.5 -109.5t-123.5 -86t-215.5 -42.5t-316.5 21v-25q0 -76 18.5 -142.5t55.5 -120.5t100 -85.5t144 -31.5q84 0 171.5 36.5 t149.5 114.5l13 -6q-107 -179 -259.5 -288t-340.5 -109q-204 0 -324 123q-164 -123 -377 -123q-219 0 -357.5 130t-138.5 333zM481 213q0 -211 123 -211q65 8 117.5 77.5t84 167t53 216t30 217.5t8.5 180q0 213 -123 213q-64 0 -116.5 -69.5t-84 -171.5t-53.5 -225 t-30.5 -222.5t-8.5 -171.5zM1251 659q98 -6 176.5 18.5t123.5 68t68 94t23 100.5q0 58 -28.5 95.5t-79.5 37.5q-76 0 -139.5 -61t-100 -154.5t-43.5 -198.5z" />
<glyph unicode="&#x178;" horiz-adv-x="1114" d="M0 1333q76 65 177.5 110.5t199.5 45.5q94 0 172 -39t131.5 -106.5t91 -158t54 -194.5t16 -215t-18.5 -221l414 737q248 437 504 437q141 0 218 -78t77 -201q0 -137 -88 -238.5t-226 -101.5q-109 0 -175 61.5t-66 149.5q0 61 35 117.5t114 77.5q39 -86 127 -86 q62 0 98.5 40t36.5 99q0 125 -153 125q-250 0 -479 -412l-357 -641l-43 -272q-15 -90 -19.5 -131t-3 -95t20.5 -75.5t57.5 -37.5t102.5 -16l-2 -14h-840l2 14q64 0 107.5 16t69.5 37.5t45 75.5t27.5 94.5t23.5 131.5l30 206q-25 196 -79 374t-134.5 299.5t-165.5 121.5 q-39 0 -96 -47zM649 1647q0 49 38.5 85.5t86.5 36.5q39 0 64.5 -27.5t25.5 -66.5q0 -52 -37.5 -88.5t-87.5 -36.5q-38 0 -64 28t-26 69zM1055 1647q0 49 38.5 85.5t86.5 36.5q39 0 64.5 -27.5t25.5 -66.5q0 -52 -37.5 -88.5t-87.5 -36.5q-38 0 -64 28t-26 69z" />
<glyph unicode="&#x2c6;" horiz-adv-x="0" d="M117 1180l370 346l261 -346l-13 -11l-270 220l-340 -220z" />
<glyph unicode="&#x2dc;" horiz-adv-x="0" d="M59 1212q58 94 103 131t104 37q53 0 106.5 -28t90.5 -61t89.5 -61t104.5 -28q50 0 89 30t88 107l16 -6q-55 -89 -98.5 -120t-94.5 -31q-46 0 -89.5 18.5t-78 44.5l-69 52t-76 44.5t-84.5 18.5q-47 0 -87.5 -31.5t-96.5 -122.5z" />
<glyph unicode="&#x2000;" horiz-adv-x="982" />
<glyph unicode="&#x2001;" horiz-adv-x="1964" />
<glyph unicode="&#x2002;" horiz-adv-x="982" />
<glyph unicode="&#x2003;" horiz-adv-x="1964" />
<glyph unicode="&#x2004;" horiz-adv-x="654" />
<glyph unicode="&#x2005;" horiz-adv-x="491" />
<glyph unicode="&#x2006;" horiz-adv-x="327" />
<glyph unicode="&#x2007;" horiz-adv-x="327" />
<glyph unicode="&#x2008;" horiz-adv-x="245" />
<glyph unicode="&#x2009;" horiz-adv-x="392" />
<glyph unicode="&#x200a;" horiz-adv-x="109" />
<glyph unicode="&#x2010;" horiz-adv-x="745" d="M154 655l4 21h645l-4 -21h-645z" />
<glyph unicode="&#x2011;" horiz-adv-x="745" d="M154 655l4 21h645l-4 -21h-645z" />
<glyph unicode="&#x2012;" horiz-adv-x="745" d="M154 655l4 21h645l-4 -21h-645z" />
<glyph unicode="&#x2013;" horiz-adv-x="958" d="M154 655l4 21h858l-4 -21h-858z" />
<glyph unicode="&#x2014;" horiz-adv-x="1191" d="M154 655l4 21h1093l-4 -21h-1093z" />
<glyph unicode="&#x2018;" horiz-adv-x="505" d="M225 1032q0 114 98.5 265t241.5 253l10 -10q-88 -76 -110.5 -164t20 -162t136.5 -116q14 -102 -61 -181t-163 -79q-74 0 -123 54.5t-49 139.5z" />
<glyph unicode="&#x2019;" horiz-adv-x="505" d="M264 1286q-13 102 61.5 181t161.5 79q76 0 124 -53.5t48 -140.5q0 -114 -98 -265.5t-242 -252.5l-10 10q87 76 109.5 164t-19.5 162t-135 116z" />
<glyph unicode="&#x201a;" horiz-adv-x="505" d="M78 119q-13 102 61.5 181t161.5 79q76 0 124 -54t48 -141q0 -114 -98 -265.5t-242 -252.5l-10 10q87 76 109.5 164t-19.5 162.5t-135 116.5z" />
<glyph unicode="&#x201c;" horiz-adv-x="960" d="M225 1032q0 114 98.5 265t241.5 253l10 -10q-88 -76 -110.5 -164t20 -162t136.5 -116q14 -102 -61 -181t-163 -79q-74 0 -123 54.5t-49 139.5zM680 1032q0 114 98.5 265t241.5 253l10 -10q-88 -76 -110.5 -164t19.5 -162t136 -116q14 -102 -60.5 -181t-162.5 -79 q-74 0 -123 54.5t-49 139.5z" />
<glyph unicode="&#x201d;" horiz-adv-x="960" d="M264 1286q-13 102 61.5 181t161.5 79q76 0 124 -53.5t48 -140.5q0 -114 -98 -265.5t-242 -252.5l-10 10q87 76 109.5 164t-19.5 162t-135 116zM719 1286q-13 102 61.5 181t161.5 79q76 0 124 -53.5t48 -140.5q0 -114 -98 -265.5t-242 -252.5l-10 10q87 76 109.5 164 t-19.5 162t-135 116z" />
<glyph unicode="&#x201e;" horiz-adv-x="960" d="M78 119q-13 102 61.5 181t161.5 79q76 0 124 -54t48 -141q0 -114 -98 -265.5t-242 -252.5l-10 10q87 76 109.5 164t-19.5 162.5t-135 116.5zM532 119q-13 102 62 181t162 79q76 0 124 -54t48 -141q0 -114 -98 -265.5t-242 -252.5l-10 10q87 76 109.5 164t-20 162.5 t-135.5 116.5z" />
<glyph unicode="&#x2022;" horiz-adv-x="761" d="M246 788q0 123 93.5 212.5t213.5 89.5q97 0 159 -66t62 -164q0 -125 -92 -216t-213 -91q-96 0 -159.5 68t-63.5 167z" />
<glyph unicode="&#x2026;" horiz-adv-x="1501" d="M86 156q0 90 68 156.5t155 66.5q71 0 117.5 -49.5t46.5 -120.5q0 -91 -68.5 -157t-156.5 -66q-70 0 -116 49.5t-46 120.5zM588 156q0 90 67.5 156.5t155.5 66.5q70 0 116 -49.5t46 -120.5q0 -91 -68.5 -157t-154.5 -66q-71 0 -116.5 49t-45.5 121zM1087 156 q0 90 68.5 156.5t155.5 66.5q71 0 117.5 -49.5t46.5 -120.5q0 -91 -69 -157t-157 -66q-70 0 -116 49.5t-46 120.5z" />
<glyph unicode="&#x202f;" horiz-adv-x="392" />
<glyph unicode="&#x2039;" horiz-adv-x="559" d="M184 545l455 403l8 -8l-325 -395l198 -395l-8 -9z" />
<glyph unicode="&#x203a;" horiz-adv-x="559" d="M123 150l328 395l-203 395l12 8l326 -403l-455 -404z" />
<glyph unicode="&#x205f;" horiz-adv-x="491" />
<glyph unicode="&#x20ac;" horiz-adv-x="1400" d="M166 586l4 20h92q0 103 27 221h-84l4 21h86q73 271 285.5 435.5t504.5 164.5q158 0 291 -45l154 41l-72 -572h-14q7 60 1.5 124t-15.5 126t-37 118t-64.5 98t-96.5 67t-134 25q-274 0 -387 -582h444l-4 -21h-444q-15 -71 -19 -110l-16 -111h444l-4 -20h-442 q-70 -582 200 -582q89 0 167.5 35.5t134 91.5t101.5 131.5t74.5 148.5t47.5 150h14l-111 -571l-139 39q-146 -43 -305 -43q-274 0 -431.5 164.5t-160.5 435.5h-96z" />
<glyph unicode="&#x2122;" horiz-adv-x="2373" d="M236 1112l83 322h889l-16 -322h-21q8 157 -54 230t-224 73l-107 -674q-13 -79 -15 -129t25 -73t95 -23l-2 -14h-545l2 14q93 0 127 49q24 36 42 147q2 9 5 27v1v1l107 674q-162 0 -247 -73t-126 -230h-18zM1065 502l2 14q34 0 63 8.5t51.5 20.5t42 35t33 42.5t26 53.5 t19.5 56.5t15.5 63t12.5 62.5t11 64l48 295q18 116 -9 158t-137 42l2 17h459l127 -588l319 588h412l-2 -17q-30 0 -52.5 -4.5t-39 -11t-28.5 -22.5t-20 -29.5t-15 -42t-10.5 -50t-10.5 -63.5l-72 -453q-13 -79 -15 -129t25 -73t95 -23l-2 -14h-531l2 14q24 0 41.5 1.5t32 9 t24 12.5t18.5 23t13.5 28t11 40.5t9.5 48t10 62.5l104 654l-481 -891h-37l-200 856l-74 -463q-8 -49 -12 -77.5t-7.5 -74t-1 -73t11.5 -61t26.5 -51.5t47 -31t70.5 -13l-2 -14h-426z" />
<glyph unicode="&#x25fc;" horiz-adv-x="1085" d="M0 0v1085h1085v-1085h-1085z" />
</font>
</defs>
</svg>
